font.ufo
<glyph name="exclam" format="1">
  <advance width="237"/>
  <unicode hex="0021"/>
  <outline>
    <contour>
      <point x="157" y="135" type="line"/>
      <point x="157" y="145"/>
      <point x="151" y="148"/>
      <point x="143" y="148" type="curve" smooth="yes"/>
      <point x="95" y="148" type="line" smooth="yes"/>
      <point x="86" y="148"/>
      <point x="82" y="145"/>
      <point x="82" y="135" type="curve" smooth="yes"/>
      <point x="82" y="15" type="line" smooth="yes"/>
      <point x="82" y="5"/>
      <point x="86" y="0"/>
      <point x="95" y="0" type="curve" smooth="yes"/>
      <point x="143" y="0" type="line" smooth="yes"/>
      <point x="152" y="0"/>
      <point x="157" y="4"/>
      <point x="157" y="14" type="curve" smooth="yes"/>
    </contour>
    <contour>
      <point x="91" y="229" type="curve" smooth="yes"/>
      <point x="92" y="219"/>
      <point x="96" y="214"/>
      <point x="105" y="214" type="curve" smooth="yes"/>
      <point x="132" y="214" type="line" smooth="yes"/>
      <point x="141" y="214"/>
      <point x="144" y="219"/>
      <point x="146" y="229" type="curve" smooth="yes"/>
      <point x="148" y="243"/>
      <point x="159" y="405"/>
      <point x="159" y="513" type="curve" smooth="yes"/>
      <point x="159" y="629" type="line" smooth="yes"/>
      <point x="159" y="640"/>
      <point x="154" y="643"/>
      <point x="145" y="643" type="curve" smooth="yes"/>
      <point x="92" y="643" type="line" smooth="yes"/>
      <point x="83" y="643"/>
      <point x="78" y="640"/>
      <point x="78" y="629" type="curve" smooth="yes"/>
      <point x="78" y="513" type="line" smooth="yes"/>
      <point x="78" y="405"/>
      <point x="89" y="243"/>
    </contour>
  </outline>
</glyph>
<glyph name="quotedbl" format="1">
  <advance width="337"/>
  <unicode hex="0022"/>
  <outline>
    <contour>
      <point x="124" y="629" type="line"/>
      <point x="125" y="638"/>
      <point x="121" y="643"/>
      <point x="112" y="643" type="curve" smooth="yes"/>
      <point x="68" y="643" type="line" smooth="yes"/>
      <point x="58" y="643"/>
      <point x="55" y="638"/>
      <point x="55" y="629" type="curve" smooth="yes"/>
      <point x="71" y="445" type="line" smooth="yes"/>
      <point x="72" y="435"/>
      <point x="77" y="429"/>
      <point x="86" y="429" type="curve" smooth="yes"/>
      <point x="94" y="429" type="line" smooth="yes"/>
      <point x="103" y="429"/>
      <point x="108" y="434"/>
      <point x="109" y="444" type="curve" smooth="yes"/>
    </contour>
    <contour>
      <point x="266" y="444" type="line"/>
      <point x="265" y="434"/>
      <point x="260" y="429"/>
      <point x="251" y="429" type="curve" smooth="yes"/>
      <point x="242" y="429" type="line" smooth="yes"/>
      <point x="234" y="429"/>
      <point x="229" y="435"/>
      <point x="228" y="445" type="curve" smooth="yes"/>
      <point x="212" y="629" type="line" smooth="yes"/>
      <point x="212" y="638"/>
      <point x="215" y="643"/>
      <point x="225" y="643" type="curve" smooth="yes"/>
      <point x="269" y="643" type="line" smooth="yes"/>
      <point x="278" y="643"/>
      <point x="282" y="638"/>
      <point x="281" y="629" type="curve" smooth="yes"/>
    </contour>
  </outline>
</glyph>
<glyph name="numbersign" format="1">
  <advance width="675"/>
  <unicode hex="0023"/>
  <outline>
    <contour>
      <point x="337" y="625" type="line"/>
      <point x="341" y="638"/>
      <point x="336" y="643"/>
      <point x="325" y="643" type="curve" smooth="yes"/>
      <point x="293" y="643" type="line" smooth="yes"/>
      <point x="283" y="643"/>
      <point x="279" y="638"/>
      <point x="277" y="628" type="curve" smooth="yes"/>
      <point x="113" y="18" type="line" smooth="yes"/>
      <point x="109" y="5"/>
      <point x="113" y="0"/>
      <point x="123" y="0" type="curve" smooth="yes"/>
      <point x="155" y="0" type="line" smooth="yes"/>
      <point x="166" y="0"/>
      <point x="170" y="5"/>
      <point x="173" y="15" type="curve" smooth="yes"/>
    </contour>
    <contour>
      <point x="626" y="471" type="line"/>
      <point x="626" y="480"/>
      <point x="622" y="485"/>
      <point x="612" y="485" type="curve" smooth="yes"/>
      <point x="125" y="485" type="line" smooth="yes"/>
      <point x="114" y="485"/>
      <point x="110" y="480"/>
      <point x="110" y="471" type="curve" smooth="yes"/>
      <point x="110" y="438" type="line" smooth="yes"/>
      <point x="110" y="429"/>
      <point x="114" y="424"/>
      <point x="125" y="424" type="curve" smooth="yes"/>
      <point x="224" y="424"/>
      <point x="512" y="424"/>
      <point x="612" y="424" type="curve" smooth="yes"/>
      <point x="622" y="424"/>
      <point x="626" y="429"/>
      <point x="626" y="438" type="curve" smooth="yes"/>
    </contour>
    <contour>
      <point x="341" y="18" type="line"/>
      <point x="338" y="5"/>
      <point x="341" y="0"/>
      <point x="351" y="0" type="curve" smooth="yes"/>
      <point x="385" y="0" type="line" smooth="yes"/>
      <point x="395" y="0"/>
      <point x="399" y="5"/>
      <point x="402" y="15" type="curve" smooth="yes"/>
      <point x="566" y="625" type="line" smooth="yes"/>
      <point x="569" y="638"/>
      <point x="565" y="643"/>
      <point x="554" y="643" type="curve" smooth="yes"/>
      <point x="524" y="643" type="line" smooth="yes"/>
      <point x="513" y="643"/>
      <point x="508" y="638"/>
      <point x="505" y="628" type="curve" smooth="yes"/>
    </contour>
    <contour>
      <point x="550" y="158" type="line"/>
      <point x="561" y="158"/>
      <point x="564" y="163"/>
      <point x="564" y="172" type="curve" smooth="yes"/>
      <point x="564" y="205" type="line" smooth="yes"/>
      <point x="564" y="214"/>
      <point x="561" y="219"/>
      <point x="550" y="219" type="curve" smooth="yes"/>
      <point x="451" y="219"/>
      <point x="163" y="219"/>
      <point x="63" y="219" type="curve" smooth="yes"/>
      <point x="52" y="219"/>
      <point x="49" y="214"/>
      <point x="49" y="205" type="curve" smooth="yes"/>
      <point x="49" y="172" type="line" smooth="yes"/>
      <point x="49" y="163"/>
      <point x="52" y="158"/>
      <point x="63" y="158" type="curve" smooth="yes"/>
    </contour>
  </outline>
</glyph>
<glyph name="dollar" format="1">
  <advance width="511"/>
  <unicode hex="0024"/>
  <outline>
    <contour>
      <point x="281" y="-98" type="line"/>
      <point x="290" y="-98"/>
      <point x="295" y="-95"/>
      <point x="295" y="-84" type="curve" smooth="yes"/>
      <point x="295" y="0" type="line"/>
      <point x="302" y="0" type="line" smooth="yes"/>
      <point x="392" y="0"/>
      <point x="449" y="56"/>
      <point x="449" y="148" type="curve" smooth="yes"/>
      <point x="449" y="206" type="line" smooth="yes"/>
      <point x="449" y="322"/>
      <point x="380" y="352"/>
      <point x="301" y="355" type="curve" smooth="yes"/>
      <point x="239" y="357" type="line" smooth="yes"/>
      <point x="174" y="359"/>
      <point x="135" y="375"/>
      <point x="135" y="439" type="curve" smooth="yes"/>
      <point x="135" y="486" type="line" smooth="yes"/>
      <point x="135" y="550"/>
      <point x="163" y="580"/>
      <point x="224" y="580" type="curve" smooth="yes"/>
      <point x="283" y="580" type="line" smooth="yes"/>
      <point x="344" y="580"/>
      <point x="372" y="550"/>
      <point x="372" y="490" type="curve" smooth="yes"/>
      <point x="372" y="471" type="line" smooth="yes"/>
      <point x="372" y="460"/>
      <point x="377" y="456"/>
      <point x="386" y="456" type="curve" smooth="yes"/>
      <point x="431" y="456" type="line" smooth="yes"/>
      <point x="440" y="456"/>
      <point x="445" y="460"/>
      <point x="445" y="471" type="curve" smooth="yes"/>
      <point x="445" y="496" type="line" smooth="yes"/>
      <point x="445" y="587"/>
      <point x="389" y="644"/>
      <point x="302" y="644" type="curve" smooth="yes"/>
      <point x="295" y="644" type="line"/>
      <point x="295" y="729" type="line" smooth="yes"/>
      <point x="295" y="740"/>
      <point x="290" y="743"/>
      <point x="281" y="743" type="curve" smooth="yes"/>
      <point x="247" y="743" type="line" smooth="yes"/>
      <point x="238" y="743"/>
      <point x="233" y="740"/>
      <point x="233" y="729" type="curve" smooth="yes"/>
      <point x="233" y="644" type="line"/>
      <point x="209" y="644" type="line" smooth="yes"/>
      <point x="118" y="644"/>
      <point x="62" y="588"/>
      <point x="62" y="496" type="curve" smooth="yes"/>
      <point x="62" y="441" type="line" smooth="yes"/>
      <point x="62" y="321"/>
      <point x="133" y="294"/>
      <point x="216" y="291" type="curve" smooth="yes"/>
      <point x="271" y="290" type="line" smooth="yes"/>
      <point x="335" y="287"/>
      <point x="376" y="270"/>
      <point x="376" y="203" type="curve" smooth="yes"/>
      <point x="376" y="156" type="line" smooth="yes"/>
      <point x="376" y="94"/>
      <point x="347" y="64"/>
      <point x="287" y="64" type="curve" smooth="yes"/>
      <point x="224" y="64" type="line" smooth="yes"/>
      <point x="164" y="64"/>
      <point x="135" y="94"/>
      <point x="135" y="154" type="curve" smooth="yes"/>
      <point x="135" y="176" type="line" smooth="yes"/>
      <point x="135" y="187"/>
      <point x="131" y="190"/>
      <point x="122" y="190" type="curve" smooth="yes"/>
      <point x="76" y="190" type="line" smooth="yes"/>
      <point x="67" y="190"/>
      <point x="63" y="187"/>
      <point x="63" y="176" type="curve" smooth="yes"/>
      <point x="63" y="148" type="line" smooth="yes"/>
      <point x="63" y="57"/>
      <point x="119" y="0"/>
      <point x="209" y="0" type="curve" smooth="yes"/>
      <point x="233" y="0" type="line"/>
      <point x="233" y="-84" type="line" smooth="yes"/>
      <point x="233" y="-95"/>
      <point x="238" y="-98"/>
      <point x="247" y="-98" type="curve" smooth="yes"/>
    </contour>
  </outline>
</glyph>
<glyph name="percent" format="1">
  <advance width="724"/>
  <unicode hex="0025"/>
  <outline>
    <contour>
      <point x="519" y="626" type="line"/>
      <point x="524" y="638"/>
      <point x="520" y="643"/>
      <point x="510" y="643" type="curve" smooth="yes"/>
      <point x="481" y="643" type="line" smooth="yes"/>
      <point x="471" y="643"/>
      <point x="468" y="639"/>
      <point x="463" y="628" type="curve"/>
      <point x="435" y="555"/>
      <point x="232" y="89"/>
      <point x="204" y="16" type="curve"/>
      <point x="199" y="4"/>
      <point x="204" y="0"/>
      <point x="213" y="0" type="curve" smooth="yes"/>
      <point x="242" y="0" type="line" smooth="yes"/>
      <point x="251" y="0"/>
      <point x="256" y="3"/>
      <point x="261" y="15" type="curve" smooth="yes"/>
    </contour>
    <contour>
      <point x="162" y="646" type="line"/>
      <point x="87" y="646"/>
      <point x="50" y="609"/>
      <point x="50" y="532" type="curve" smooth="yes"/>
      <point x="50" y="462" type="line" smooth="yes"/>
      <point x="50" y="386"/>
      <point x="87" y="348"/>
      <point x="162" y="348" type="curve" smooth="yes"/>
      <point x="197" y="348" type="line" smooth="yes"/>
      <point x="273" y="348"/>
      <point x="309" y="386"/>
      <point x="309" y="462" type="curve" smooth="yes"/>
      <point x="309" y="532" type="line" smooth="yes"/>
      <point x="309" y="609"/>
      <point x="273" y="646"/>
      <point x="197" y="646" type="curve" smooth="yes"/>
    </contour>
    <contour>
      <point x="189" y="599" type="line"/>
      <point x="239" y="599"/>
      <point x="254" y="580"/>
      <point x="254" y="530" type="curve" smooth="yes"/>
      <point x="254" y="464" type="line" smooth="yes"/>
      <point x="254" y="414"/>
      <point x="239" y="394"/>
      <point x="189" y="394" type="curve" smooth="yes"/>
      <point x="170" y="394" type="line" smooth="yes"/>
      <point x="119" y="394"/>
      <point x="105" y="414"/>
      <point x="105" y="464" type="curve" smooth="yes"/>
      <point x="105" y="530" type="line" smooth="yes"/>
      <point x="105" y="580"/>
      <point x="119" y="599"/>
      <point x="170" y="599" type="curve" smooth="yes"/>
    </contour>
    <contour>
      <point x="527" y="299" type="line"/>
      <point x="452" y="299"/>
      <point x="415" y="261"/>
      <point x="415" y="185" type="curve" smooth="yes"/>
      <point x="415" y="115" type="line" smooth="yes"/>
      <point x="415" y="38"/>
      <point x="452" y="0"/>
      <point x="527" y="0" type="curve" smooth="yes"/>
      <point x="562" y="0" type="line" smooth="yes"/>
      <point x="638" y="0"/>
      <point x="674" y="38"/>
      <point x="674" y="115" type="curve" smooth="yes"/>
      <point x="674" y="185" type="line" smooth="yes"/>
      <point x="674" y="261"/>
      <point x="638" y="299"/>
      <point x="562" y="299" type="curve" smooth="yes"/>
    </contour>
    <contour>
      <point x="555" y="252" type="line"/>
      <point x="605" y="252"/>
      <point x="620" y="233"/>
      <point x="620" y="182" type="curve" smooth="yes"/>
      <point x="620" y="117" type="line" smooth="yes"/>
      <point x="620" y="67"/>
      <point x="605" y="47"/>
      <point x="555" y="47" type="curve" smooth="yes"/>
      <point x="536" y="47" type="line" smooth="yes"/>
      <point x="485" y="47"/>
      <point x="470" y="67"/>
      <point x="470" y="117" type="curve" smooth="yes"/>
      <point x="470" y="182" type="line" smooth="yes"/>
      <point x="470" y="233"/>
      <point x="485" y="252"/>
      <point x="536" y="252" type="curve" smooth="yes"/>
    </contour>
  </outline>
</glyph>
<glyph name="ampersand" format="1">
  <advance width="603"/>
  <unicode hex="0026"/>
  <outline>
    <contour>
      <point x="218" y="65" type="line"/>
      <point x="161" y="65"/>
      <point x="132" y="93"/>
      <point x="132" y="149" type="curve" smooth="yes"/>
      <point x="132" y="219" type="line" smooth="yes"/>
      <point x="132" y="276"/>
      <point x="155" y="305"/>
      <point x="204" y="308" type="curve"/>
      <point x="361" y="125" type="line"/>
      <point x="354" y="85"/>
      <point x="328" y="65"/>
      <point x="284" y="65" type="curve" smooth="yes"/>
    </contour>
    <contour>
      <point x="461" y="10" type="line"/>
      <point x="467" y="3"/>
      <point x="476" y="0"/>
      <point x="484" y="0" type="curve" smooth="yes"/>
      <point x="542" y="0" type="line" smooth="yes"/>
      <point x="549" y="0"/>
      <point x="549" y="7"/>
      <point x="546" y="11" type="curve" smooth="yes"/>
      <point x="352" y="238" type="line"/>
      <point x="532" y="238" type="line" smooth="yes"/>
      <point x="543" y="238"/>
      <point x="547" y="242"/>
      <point x="547" y="251" type="curve" smooth="yes"/>
      <point x="547" y="288" type="line" smooth="yes"/>
      <point x="547" y="297"/>
      <point x="543" y="302"/>
      <point x="532" y="302" type="curve" smooth="yes"/>
      <point x="505" y="302"/>
      <point x="324" y="302"/>
      <point x="298" y="302" type="curve"/>
      <point x="240" y="369" type="line"/>
      <point x="211" y="401"/>
      <point x="196" y="429"/>
      <point x="196" y="467" type="curve" smooth="yes"/>
      <point x="196" y="496" type="line" smooth="yes"/>
      <point x="196" y="552"/>
      <point x="224" y="581"/>
      <point x="279" y="581" type="curve" smooth="yes"/>
      <point x="295" y="581" type="line" smooth="yes"/>
      <point x="347" y="581"/>
      <point x="375" y="552"/>
      <point x="375" y="496" type="curve" smooth="yes"/>
      <point x="375" y="455" type="line" smooth="yes"/>
      <point x="375" y="444"/>
      <point x="380" y="440"/>
      <point x="389" y="440" type="curve" smooth="yes"/>
      <point x="434" y="440" type="line" smooth="yes"/>
      <point x="443" y="440"/>
      <point x="447" y="444"/>
      <point x="447" y="455" type="curve" smooth="yes"/>
      <point x="447" y="497" type="line" smooth="yes"/>
      <point x="447" y="590"/>
      <point x="391" y="643"/>
      <point x="300" y="643" type="curve" smooth="yes"/>
      <point x="273" y="643" type="line" smooth="yes"/>
      <point x="182" y="643"/>
      <point x="122" y="590"/>
      <point x="122" y="497" type="curve" smooth="yes"/>
      <point x="122" y="468" type="line" smooth="yes"/>
      <point x="122" y="421"/>
      <point x="136" y="387"/>
      <point x="166" y="351" type="curve"/>
      <point x="92" y="346"/>
      <point x="62" y="283"/>
      <point x="62" y="223" type="curve" smooth="yes"/>
      <point x="62" y="146" type="line" smooth="yes"/>
      <point x="62" y="53"/>
      <point x="118" y="0"/>
      <point x="209" y="0" type="curve" smooth="yes"/>
      <point x="284" y="0" type="line" smooth="yes"/>
      <point x="349" y="0"/>
      <point x="390" y="24"/>
      <point x="407" y="73" type="curve"/>
    </contour>
  </outline>
</glyph>
<glyph name="quotesingle" format="1">
  <advance width="186"/>
  <unicode hex="0027"/>
  <outline>
    <contour>
      <point x="127" y="615" type="line"/>
      <point x="128" y="624"/>
      <point x="124" y="628"/>
      <point x="114" y="628" type="curve" smooth="yes"/>
      <point x="72" y="628" type="line" smooth="yes"/>
      <point x="62" y="628"/>
      <point x="58" y="624"/>
      <point x="59" y="615" type="curve" smooth="yes"/>
      <point x="74" y="458" type="line" smooth="yes"/>
      <point x="75" y="449"/>
      <point x="79" y="445"/>
      <point x="88" y="445" type="curve" smooth="yes"/>
      <point x="98" y="445" type="line" smooth="yes"/>
      <point x="106" y="445"/>
      <point x="110" y="449"/>
      <point x="113" y="458" type="curve"/>
    </contour>
  </outline>
</glyph>
<glyph name="parenleft" format="1">
  <advance width="290"/>
  <unicode hex="0028"/>
  <outline>
    <contour>
      <point x="227" y="601" type="line"/>
      <point x="227" y="592"/>
      <point x="224" y="588"/>
      <point x="213" y="588" type="curve" smooth="yes"/>
      <point x="213" y="588"/>
      <point x="210" y="588"/>
      <point x="210" y="588" type="curve" smooth="yes"/>
      <point x="149" y="588"/>
      <point x="114" y="549"/>
      <point x="114" y="476" type="curve" smooth="yes"/>
      <point x="114" y="65" type="line" smooth="yes"/>
      <point x="114" y="-8"/>
      <point x="149" y="-47"/>
      <point x="211" y="-47" type="curve" smooth="yes"/>
      <point x="210" y="-47"/>
      <point x="213" y="-47"/>
      <point x="213" y="-47" type="curve" smooth="yes"/>
      <point x="224" y="-47"/>
      <point x="227" y="-51"/>
      <point x="227" y="-60" type="curve" smooth="yes"/>
      <point x="227" y="-91" type="line" smooth="yes"/>
      <point x="227" y="-99"/>
      <point x="224" y="-102"/>
      <point x="213" y="-102" type="curve" smooth="yes"/>
      <point x="213" y="-102"/>
      <point x="210" y="-102"/>
      <point x="210" y="-102" type="curve" smooth="yes"/>
      <point x="116" y="-102"/>
      <point x="53" y="-45"/>
      <point x="53" y="71" type="curve" smooth="yes"/>
      <point x="53" y="470" type="line" smooth="yes"/>
      <point x="53" y="586"/>
      <point x="116" y="643"/>
      <point x="210" y="643" type="curve" smooth="yes"/>
      <point x="211" y="643"/>
      <point x="213" y="643"/>
      <point x="214" y="643" type="curve" smooth="yes"/>
      <point x="224" y="643"/>
      <point x="227" y="640"/>
      <point x="227" y="632" type="curve" smooth="yes"/>
    </contour>
  </outline>
</glyph>
<glyph name="parenright" format="1">
  <advance width="290"/>
  <unicode hex="0029"/>
  <outline>
    <contour>
      <point x="53" y="-91" type="line"/>
      <point x="53" y="-99"/>
      <point x="55" y="-102"/>
      <point x="66" y="-102" type="curve" smooth="yes"/>
      <point x="66" y="-102"/>
      <point x="68" y="-102"/>
      <point x="69" y="-102" type="curve" smooth="yes"/>
      <point x="163" y="-102"/>
      <point x="227" y="-45"/>
      <point x="227" y="71" type="curve" smooth="yes"/>
      <point x="227" y="470" type="line" smooth="yes"/>
      <point x="227" y="586"/>
      <point x="163" y="643"/>
      <point x="69" y="643" type="curve" smooth="yes"/>
      <point x="68" y="643"/>
      <point x="66" y="643"/>
      <point x="66" y="643" type="curve" smooth="yes"/>
      <point x="55" y="643"/>
      <point x="53" y="640"/>
      <point x="53" y="632" type="curve" smooth="yes"/>
      <point x="53" y="601" type="line" smooth="yes"/>
      <point x="53" y="592"/>
      <point x="55" y="588"/>
      <point x="66" y="588" type="curve" smooth="yes"/>
      <point x="66" y="588"/>
      <point x="68" y="588"/>
      <point x="69" y="588" type="curve" smooth="yes"/>
      <point x="129" y="588"/>
      <point x="165" y="549"/>
      <point x="165" y="476" type="curve" smooth="yes"/>
      <point x="165" y="65" type="line" smooth="yes"/>
      <point x="165" y="-8"/>
      <point x="129" y="-47"/>
      <point x="69" y="-47" type="curve" smooth="yes"/>
      <point x="68" y="-47"/>
      <point x="66" y="-47"/>
      <point x="66" y="-47" type="curve" smooth="yes"/>
      <point x="55" y="-47"/>
      <point x="53" y="-51"/>
      <point x="53" y="-60" type="curve" smooth="yes"/>
    </contour>
  </outline>
</glyph>
<glyph name="asterisk" format="1">
  <advance width="404"/>
  <unicode hex="002A"/>
  <outline>
    <contour>
      <point x="230" y="630" type="line"/>
      <point x="230" y="640"/>
      <point x="225" y="643"/>
      <point x="216" y="643" type="curve" smooth="yes"/>
      <point x="186" y="643" type="line" smooth="yes"/>
      <point x="177" y="643"/>
      <point x="173" y="640"/>
      <point x="173" y="630" type="curve" smooth="yes"/>
      <point x="173" y="616" type="line" smooth="yes"/>
      <point x="173" y="559"/>
      <point x="199" y="508"/>
      <point x="202" y="499" type="curve"/>
      <point x="207" y="508"/>
      <point x="230" y="559"/>
      <point x="230" y="616" type="curve" smooth="yes"/>
    </contour>
    <contour>
      <point x="103" y="410" type="line"/>
      <point x="97" y="401"/>
      <point x="99" y="395"/>
      <point x="106" y="391" type="curve" smooth="yes"/>
      <point x="130" y="373" type="line" smooth="yes"/>
      <point x="138" y="368"/>
      <point x="144" y="368"/>
      <point x="149" y="375" type="curve" smooth="yes"/>
      <point x="157" y="387" type="line" smooth="yes"/>
      <point x="191" y="433"/>
      <point x="199" y="490"/>
      <point x="202" y="499" type="curve"/>
      <point x="193" y="494"/>
      <point x="145" y="467"/>
      <point x="111" y="420" type="curve" smooth="yes"/>
    </contour>
    <contour>
      <point x="87" y="565" type="line"/>
      <point x="77" y="568"/>
      <point x="72" y="565"/>
      <point x="70" y="557" type="curve" smooth="yes"/>
      <point x="60" y="528" type="line" smooth="yes"/>
      <point x="57" y="520"/>
      <point x="60" y="514"/>
      <point x="68" y="511" type="curve" smooth="yes"/>
      <point x="82" y="507" type="line" smooth="yes"/>
      <point x="136" y="489"/>
      <point x="193" y="499"/>
      <point x="202" y="499" type="curve"/>
      <point x="195" y="506"/>
      <point x="154" y="543"/>
      <point x="99" y="561" type="curve" smooth="yes"/>
    </contour>
    <contour>
      <point x="335" y="513" type="line"/>
      <point x="345" y="516"/>
      <point x="347" y="522"/>
      <point x="344" y="530" type="curve"/>
      <point x="335" y="559" type="line" smooth="yes"/>
      <point x="332" y="568"/>
      <point x="328" y="570"/>
      <point x="318" y="567" type="curve" smooth="yes"/>
      <point x="304" y="563" type="line" smooth="yes"/>
      <point x="249" y="546"/>
      <point x="210" y="505"/>
      <point x="202" y="499" type="curve"/>
      <point x="212" y="497"/>
      <point x="268" y="491"/>
      <point x="322" y="509" type="curve" smooth="yes"/>
    </contour>
    <contour>
      <point x="256" y="377" type="line"/>
      <point x="263" y="369"/>
      <point x="268" y="370"/>
      <point x="275" y="374" type="curve" smooth="yes"/>
      <point x="300" y="392" type="line" smooth="yes"/>
      <point x="307" y="397"/>
      <point x="308" y="403"/>
      <point x="303" y="410" type="curve" smooth="yes"/>
      <point x="295" y="422" type="line" smooth="yes"/>
      <point x="261" y="468"/>
      <point x="210" y="493"/>
      <point x="202" y="499" type="curve"/>
      <point x="203" y="489"/>
      <point x="214" y="434"/>
      <point x="249" y="388" type="curve" smooth="yes"/>
    </contour>
  </outline>
</glyph>
<glyph name="plus" format="1">
  <advance width="535"/>
  <unicode hex="002B"/>
  <outline>
    <contour>
      <point x="300" y="503" type="line"/>
      <point x="300" y="515"/>
      <point x="295" y="519"/>
      <point x="285" y="519" type="curve" smooth="yes"/>
      <point x="251" y="519" type="line" smooth="yes"/>
      <point x="240" y="519"/>
      <point x="236" y="515"/>
      <point x="236" y="503" type="curve" smooth="yes"/>
      <point x="236" y="139" type="line" smooth="yes"/>
      <point x="236" y="127"/>
      <point x="240" y="123"/>
      <point x="251" y="123" type="curve" smooth="yes"/>
      <point x="285" y="123" type="line" smooth="yes"/>
      <point x="295" y="123"/>
      <point x="300" y="127"/>
      <point x="300" y="139" type="curve" smooth="yes"/>
    </contour>
    <contour>
      <point x="85" y="352" type="line"/>
      <point x="73" y="352"/>
      <point x="70" y="347"/>
      <point x="70" y="337" type="curve" smooth="yes"/>
      <point x="70" y="305" type="line" smooth="yes"/>
      <point x="70" y="295"/>
      <point x="73" y="291"/>
      <point x="85" y="291" type="curve" smooth="yes"/>
      <point x="450" y="291" type="line" smooth="yes"/>
      <point x="462" y="291"/>
      <point x="465" y="295"/>
      <point x="465" y="305" type="curve" smooth="yes"/>
      <point x="465" y="337" type="line" smooth="yes"/>
      <point x="465" y="347"/>
      <point x="462" y="352"/>
      <point x="450" y="352" type="curve" smooth="yes"/>
    </contour>
  </outline>
</glyph>
<glyph name="comma" format="1">
  <advance width="194"/>
  <unicode hex="002C"/>
  <outline>
    <contour>
      <point x="136" y="135" type="line"/>
      <point x="136" y="145"/>
      <point x="131" y="148"/>
      <point x="123" y="148" type="curve" smooth="yes"/>
      <point x="72" y="148" type="line" smooth="yes"/>
      <point x="63" y="148"/>
      <point x="59" y="145"/>
      <point x="59" y="135" type="curve" smooth="yes"/>
      <point x="59" y="-91" type="line" smooth="yes"/>
      <point x="59" y="-101"/>
      <point x="64" y="-104"/>
      <point x="69" y="-104" type="curve" smooth="yes"/>
      <point x="74" y="-104"/>
      <point x="78" y="-101"/>
      <point x="81" y="-96" type="curve" smooth="yes"/>
      <point x="121" y="-2" type="line" smooth="yes"/>
      <point x="131" y="22"/>
      <point x="136" y="37"/>
      <point x="136" y="56" type="curve" smooth="yes"/>
    </contour>
  </outline>
</glyph>
<glyph name="period" format="1">
  <advance width="194"/>
  <unicode hex="002E"/>
  <outline>
    <contour>
      <point x="136" y="135" type="line"/>
      <point x="136" y="145"/>
      <point x="131" y="148"/>
      <point x="123" y="148" type="curve" smooth="yes"/>
      <point x="72" y="148" type="line" smooth="yes"/>
      <point x="63" y="148"/>
      <point x="59" y="145"/>
      <point x="59" y="135" type="curve" smooth="yes"/>
      <point x="59" y="14" type="line" smooth="yes"/>
      <point x="59" y="4"/>
      <point x="63" y="0"/>
      <point x="72" y="0" type="curve" smooth="yes"/>
      <point x="123" y="0" type="line" smooth="yes"/>
      <point x="131" y="0"/>
      <point x="136" y="4"/>
      <point x="136" y="14" type="curve" smooth="yes"/>
    </contour>
  </outline>
</glyph>
<glyph name="slash" format="1">
  <advance width="400"/>
  <unicode hex="002F"/>
  <outline>
    <contour>
      <point x="347" y="626" type="line"/>
      <point x="351" y="636"/>
      <point x="347" y="643"/>
      <point x="337" y="643" type="curve" smooth="yes"/>
      <point x="295" y="643" type="line" smooth="yes"/>
      <point x="284" y="643"/>
      <point x="280" y="638"/>
      <point x="276" y="628" type="curve"/>
      <point x="248" y="555"/>
      <point x="82" y="89"/>
      <point x="53" y="16" type="curve"/>
      <point x="49" y="5"/>
      <point x="55" y="0"/>
      <point x="65" y="0" type="curve" smooth="yes"/>
      <point x="106" y="0" type="line" smooth="yes"/>
      <point x="116" y="0"/>
      <point x="121" y="4"/>
      <point x="125" y="15" type="curve" smooth="yes"/>
    </contour>
  </outline>
</glyph>
<glyph name="zero" format="1">
  <advance width="520"/>
  <unicode hex="0030"/>
  <outline>
    <contour>
      <point x="310" y="0" type="line"/>
      <point x="401" y="0"/>
      <point x="457" y="55"/>
      <point x="457" y="148" type="curve" smooth="yes"/>
      <point x="457" y="495" type="line" smooth="yes"/>
      <point x="457" y="588"/>
      <point x="401" y="643"/>
      <point x="310" y="643" type="curve" smooth="yes"/>
      <point x="210" y="643" type="line" smooth="yes"/>
      <point x="119" y="643"/>
      <point x="63" y="588"/>
      <point x="63" y="495" type="curve" smooth="yes"/>
      <point x="63" y="148" type="line" smooth="yes"/>
      <point x="63" y="55"/>
      <point x="119" y="0"/>
      <point x="210" y="0" type="curve" smooth="yes"/>
    </contour>
    <contour>
      <point x="219" y="64" type="line"/>
      <point x="163" y="64"/>
      <point x="136" y="95"/>
      <point x="136" y="151" type="curve" smooth="yes"/>
      <point x="136" y="492" type="line" smooth="yes"/>
      <point x="136" y="548"/>
      <point x="163" y="579"/>
      <point x="219" y="579" type="curve" smooth="yes"/>
      <point x="301" y="579" type="line" smooth="yes"/>
      <point x="358" y="579"/>
      <point x="385" y="548"/>
      <point x="385" y="492" type="curve" smooth="yes"/>
      <point x="385" y="151" type="line" smooth="yes"/>
      <point x="385" y="95"/>
      <point x="358" y="64"/>
      <point x="301" y="64" type="curve" smooth="yes"/>
    </contour>
  </outline>
</glyph>
<glyph name="one" format="1">
  <advance width="322"/>
  <unicode hex="0031"/>
  <outline>
    <contour>
      <point x="170" y="565" type="line"/>
      <point x="170" y="14" type="line" smooth="yes"/>
      <point x="170" y="3"/>
      <point x="175" y="0"/>
      <point x="184" y="0" type="curve" smooth="yes"/>
      <point x="229" y="0" type="line" smooth="yes"/>
      <point x="238" y="0"/>
      <point x="243" y="3"/>
      <point x="243" y="14" type="curve" smooth="yes"/>
      <point x="243" y="629" type="line" smooth="yes"/>
      <point x="243" y="640"/>
      <point x="238" y="643"/>
      <point x="229" y="643" type="curve" smooth="yes"/>
      <point x="187" y="643" type="line" smooth="yes"/>
      <point x="176" y="643"/>
      <point x="170" y="639"/>
      <point x="161" y="634" type="curve" smooth="yes"/>
      <point x="45" y="567" type="line" smooth="yes"/>
      <point x="35" y="561"/>
      <point x="33" y="557"/>
      <point x="33" y="545" type="curve" smooth="yes"/>
      <point x="33" y="505" type="line" smooth="yes"/>
      <point x="33" y="495"/>
      <point x="38" y="490"/>
      <point x="51" y="497" type="curve"/>
    </contour>
  </outline>
</glyph>
<glyph name="two" format="1">
  <advance width="482"/>
  <unicode hex="0032"/>
  <outline>
    <contour>
      <point x="57" y="14" type="line"/>
      <point x="57" y="4"/>
      <point x="61" y="0"/>
      <point x="71" y="0" type="curve" smooth="yes"/>
      <point x="415" y="0" type="line" smooth="yes"/>
      <point x="425" y="0"/>
      <point x="429" y="4"/>
      <point x="429" y="14" type="curve" smooth="yes"/>
      <point x="429" y="51" type="line" smooth="yes"/>
      <point x="429" y="61"/>
      <point x="425" y="65"/>
      <point x="415" y="65" type="curve" smooth="yes"/>
      <point x="136" y="65" type="line"/>
      <point x="136" y="111" type="line" smooth="yes"/>
      <point x="136" y="138"/>
      <point x="146" y="156"/>
      <point x="169" y="174" type="curve" smooth="yes"/>
      <point x="365" y="329" type="line" smooth="yes"/>
      <point x="403" y="359"/>
      <point x="427" y="403"/>
      <point x="427" y="456" type="curve" smooth="yes"/>
      <point x="427" y="497" type="line" smooth="yes"/>
      <point x="427" y="590"/>
      <point x="371" y="643"/>
      <point x="280" y="643" type="curve" smooth="yes"/>
      <point x="200" y="643" type="line" smooth="yes"/>
      <point x="109" y="643"/>
      <point x="53" y="590"/>
      <point x="53" y="497" type="curve" smooth="yes"/>
      <point x="53" y="455" type="line" smooth="yes"/>
      <point x="53" y="444"/>
      <point x="57" y="440"/>
      <point x="66" y="440" type="curve" smooth="yes"/>
      <point x="111" y="440" type="line" smooth="yes"/>
      <point x="120" y="440"/>
      <point x="125" y="444"/>
      <point x="125" y="455" type="curve" smooth="yes"/>
      <point x="125" y="496" type="line" smooth="yes"/>
      <point x="125" y="552"/>
      <point x="153" y="581"/>
      <point x="209" y="581" type="curve" smooth="yes"/>
      <point x="270" y="581" type="line" smooth="yes"/>
      <point x="327" y="581"/>
      <point x="356" y="552"/>
      <point x="356" y="496" type="curve" smooth="yes"/>
      <point x="356" y="460" type="line" smooth="yes"/>
      <point x="356" y="425"/>
      <point x="340" y="392"/>
      <point x="306" y="366" type="curve" smooth="yes"/>
      <point x="113" y="214" type="line"/>
      <point x="78" y="187"/>
      <point x="57" y="153"/>
      <point x="57" y="104" type="curve" smooth="yes"/>
    </contour>
  </outline>
</glyph>
<glyph name="three" format="1">
  <advance width="500"/>
  <unicode hex="0033"/>
  <outline>
    <contour>
      <point x="223" y="354" type="line"/>
      <point x="213" y="354"/>
      <point x="209" y="349"/>
      <point x="209" y="340" type="curve" smooth="yes"/>
      <point x="209" y="307" type="line" smooth="yes"/>
      <point x="209" y="298"/>
      <point x="213" y="293"/>
      <point x="223" y="293" type="curve" smooth="yes"/>
      <point x="281" y="293" type="line" smooth="yes"/>
      <point x="337" y="293"/>
      <point x="366" y="265"/>
      <point x="366" y="208" type="curve" smooth="yes"/>
      <point x="366" y="147" type="line" smooth="yes"/>
      <point x="366" y="91"/>
      <point x="337" y="62"/>
      <point x="281" y="62" type="curve" smooth="yes"/>
      <point x="212" y="62" type="line" smooth="yes"/>
      <point x="156" y="62"/>
      <point x="128" y="91"/>
      <point x="128" y="147" type="curve" smooth="yes"/>
      <point x="128" y="186" type="line" smooth="yes"/>
      <point x="128" y="197"/>
      <point x="123" y="201"/>
      <point x="114" y="201" type="curve" smooth="yes"/>
      <point x="69" y="201" type="line" smooth="yes"/>
      <point x="60" y="201"/>
      <point x="55" y="197"/>
      <point x="55" y="186" type="curve" smooth="yes"/>
      <point x="55" y="146" type="line" smooth="yes"/>
      <point x="55" y="53"/>
      <point x="112" y="0"/>
      <point x="203" y="0" type="curve" smooth="yes"/>
      <point x="290" y="0" type="line" smooth="yes"/>
      <point x="381" y="0"/>
      <point x="438" y="53"/>
      <point x="438" y="146" type="curve" smooth="yes"/>
      <point x="438" y="209" type="line" smooth="yes"/>
      <point x="438" y="279"/>
      <point x="399" y="312"/>
      <point x="356" y="323" type="curve"/>
      <point x="404" y="338"/>
      <point x="438" y="373"/>
      <point x="438" y="438" type="curve" smooth="yes"/>
      <point x="438" y="497" type="line" smooth="yes"/>
      <point x="438" y="590"/>
      <point x="381" y="643"/>
      <point x="290" y="643" type="curve" smooth="yes"/>
      <point x="203" y="643" type="line" smooth="yes"/>
      <point x="112" y="643"/>
      <point x="55" y="590"/>
      <point x="55" y="497" type="curve" smooth="yes"/>
      <point x="55" y="464" type="line" smooth="yes"/>
      <point x="55" y="453"/>
      <point x="60" y="449"/>
      <point x="69" y="449" type="curve" smooth="yes"/>
      <point x="114" y="449" type="line" smooth="yes"/>
      <point x="123" y="449"/>
      <point x="128" y="453"/>
      <point x="128" y="464" type="curve" smooth="yes"/>
      <point x="128" y="496" type="line" smooth="yes"/>
      <point x="128" y="552"/>
      <point x="156" y="581"/>
      <point x="212" y="581" type="curve" smooth="yes"/>
      <point x="281" y="581" type="line" smooth="yes"/>
      <point x="337" y="581"/>
      <point x="366" y="552"/>
      <point x="366" y="496" type="curve" smooth="yes"/>
      <point x="366" y="439" type="line" smooth="yes"/>
      <point x="366" y="382"/>
      <point x="337" y="354"/>
      <point x="281" y="354" type="curve" smooth="yes"/>
    </contour>
  </outline>
</glyph>
<glyph name="four" format="1">
  <advance width="526"/>
  <unicode hex="0034"/>
  <outline>
    <contour>
      <point x="397" y="0" type="line"/>
      <point x="406" y="0"/>
      <point x="411" y="3"/>
      <point x="411" y="14" type="curve" smooth="yes"/>
      <point x="411" y="127" type="line"/>
      <point x="485" y="127" type="line" smooth="yes"/>
      <point x="495" y="127"/>
      <point x="499" y="133"/>
      <point x="499" y="142" type="curve" smooth="yes"/>
      <point x="499" y="178" type="line" smooth="yes"/>
      <point x="499" y="187"/>
      <point x="495" y="191"/>
      <point x="485" y="191" type="curve" smooth="yes"/>
      <point x="411" y="191" type="line"/>
      <point x="411" y="622" type="line" smooth="yes"/>
      <point x="411" y="636"/>
      <point x="402" y="643"/>
      <point x="389" y="643" type="curve" smooth="yes"/>
      <point x="324" y="643" type="line" smooth="yes"/>
      <point x="308" y="643"/>
      <point x="301" y="638"/>
      <point x="294" y="623" type="curve" smooth="yes"/>
      <point x="50" y="202" type="line" smooth="yes"/>
      <point x="45" y="193"/>
      <point x="43" y="185"/>
      <point x="43" y="172" type="curve" smooth="yes"/>
      <point x="43" y="148" type="line" smooth="yes"/>
      <point x="43" y="135"/>
      <point x="50" y="127"/>
      <point x="64" y="127" type="curve" smooth="yes"/>
      <point x="342" y="127" type="line"/>
      <point x="342" y="14" type="line" smooth="yes"/>
      <point x="342" y="3"/>
      <point x="346" y="0"/>
      <point x="355" y="0" type="curve" smooth="yes"/>
    </contour>
    <contour>
      <point x="342" y="584" type="line"/>
      <point x="342" y="191" type="line"/>
      <point x="116" y="191" type="line"/>
    </contour>
  </outline>
</glyph>
<glyph name="five" format="1">
  <advance width="489"/>
  <unicode hex="0035"/>
  <outline>
    <contour>
      <point x="278" y="352" type="line"/>
      <point x="338" y="352"/>
      <point x="365" y="323"/>
      <point x="365" y="260" type="curve" smooth="yes"/>
      <point x="365" y="149" type="line" smooth="yes"/>
      <point x="365" y="93"/>
      <point x="336" y="62"/>
      <point x="280" y="62" type="curve" smooth="yes"/>
      <point x="215" y="62" type="line" smooth="yes"/>
      <point x="159" y="62"/>
      <point x="132" y="93"/>
      <point x="132" y="149" type="curve" smooth="yes"/>
      <point x="132" y="179" type="line" smooth="yes"/>
      <point x="132" y="190"/>
      <point x="127" y="194"/>
      <point x="118" y="194" type="curve" smooth="yes"/>
      <point x="73" y="194" type="line" smooth="yes"/>
      <point x="64" y="194"/>
      <point x="59" y="190"/>
      <point x="59" y="179" type="curve" smooth="yes"/>
      <point x="59" y="148" type="line" smooth="yes"/>
      <point x="59" y="55"/>
      <point x="115" y="0"/>
      <point x="207" y="0" type="curve" smooth="yes"/>
      <point x="289" y="0" type="line" smooth="yes"/>
      <point x="380" y="0"/>
      <point x="436" y="55"/>
      <point x="436" y="148" type="curve" smooth="yes"/>
      <point x="436" y="269" type="line" smooth="yes"/>
      <point x="436" y="361"/>
      <point x="383" y="412"/>
      <point x="293" y="412" type="curve" smooth="yes"/>
      <point x="221" y="412" type="line" smooth="yes"/>
      <point x="172" y="412"/>
      <point x="146" y="389"/>
      <point x="136" y="362" type="curve"/>
      <point x="136" y="575" type="line"/>
      <point x="408" y="575" type="line" smooth="yes"/>
      <point x="419" y="575"/>
      <point x="423" y="580"/>
      <point x="423" y="589" type="curve" smooth="yes"/>
      <point x="423" y="629" type="line" smooth="yes"/>
      <point x="423" y="638"/>
      <point x="419" y="643"/>
      <point x="408" y="643" type="curve" smooth="yes"/>
      <point x="77" y="643" type="line" smooth="yes"/>
      <point x="67" y="643"/>
      <point x="63" y="639"/>
      <point x="63" y="629" type="curve" smooth="yes"/>
      <point x="63" y="317" type="line" smooth="yes"/>
      <point x="63" y="307"/>
      <point x="68" y="303"/>
      <point x="77" y="303" type="curve" smooth="yes"/>
      <point x="123" y="303" type="line" smooth="yes"/>
      <point x="149" y="303"/>
      <point x="139" y="352"/>
      <point x="204" y="352" type="curve" smooth="yes"/>
    </contour>
  </outline>
</glyph>
<glyph name="six" format="1">
  <advance width="505"/>
  <unicode hex="0036"/>
  <outline>
    <contour>
      <point x="299" y="0" type="line"/>
      <point x="390" y="0"/>
      <point x="446" y="55"/>
      <point x="446" y="148" type="curve" smooth="yes"/>
      <point x="446" y="242" type="line" smooth="yes"/>
      <point x="446" y="335"/>
      <point x="390" y="390"/>
      <point x="299" y="390" type="curve" smooth="yes"/>
      <point x="129" y="390" type="line"/>
      <point x="129" y="492" type="line" smooth="yes"/>
      <point x="129" y="548"/>
      <point x="157" y="579"/>
      <point x="213" y="579" type="curve" smooth="yes"/>
      <point x="398" y="579" type="line" smooth="yes"/>
      <point x="408" y="579"/>
      <point x="412" y="584"/>
      <point x="412" y="592" type="curve" smooth="yes"/>
      <point x="412" y="629" type="line" smooth="yes"/>
      <point x="412" y="638"/>
      <point x="408" y="643"/>
      <point x="398" y="643" type="curve" smooth="yes"/>
      <point x="204" y="643" type="line" smooth="yes"/>
      <point x="113" y="643"/>
      <point x="56" y="588"/>
      <point x="56" y="495" type="curve" smooth="yes"/>
      <point x="56" y="148" type="line" smooth="yes"/>
      <point x="56" y="55"/>
      <point x="113" y="0"/>
      <point x="204" y="0" type="curve" smooth="yes"/>
    </contour>
    <contour>
      <point x="213" y="64" type="line"/>
      <point x="156" y="64"/>
      <point x="129" y="95"/>
      <point x="129" y="151" type="curve" smooth="yes"/>
      <point x="129" y="326" type="line"/>
      <point x="290" y="326" type="line" smooth="yes"/>
      <point x="346" y="326"/>
      <point x="374" y="296"/>
      <point x="374" y="239" type="curve" smooth="yes"/>
      <point x="374" y="151" type="line" smooth="yes"/>
      <point x="374" y="95"/>
      <point x="346" y="64"/>
      <point x="290" y="64" type="curve" smooth="yes"/>
    </contour>
  </outline>
</glyph>
<glyph name="seven" format="1">
  <advance width="395"/>
  <unicode hex="0037"/>
  <outline>
    <contour>
      <point x="135" y="0" type="line"/>
      <point x="148" y="0"/>
      <point x="154" y="2"/>
      <point x="158" y="13" type="curve" smooth="yes"/>
      <point x="367" y="555" type="line" smooth="yes"/>
      <point x="372" y="565"/>
      <point x="375" y="572"/>
      <point x="375" y="587" type="curve" smooth="yes"/>
      <point x="375" y="629" type="line" smooth="yes"/>
      <point x="375" y="638"/>
      <point x="371" y="643"/>
      <point x="361" y="643" type="curve" smooth="yes"/>
      <point x="31" y="643" type="line" smooth="yes"/>
      <point x="20" y="643"/>
      <point x="17" y="638"/>
      <point x="17" y="629" type="curve" smooth="yes"/>
      <point x="17" y="590" type="line" smooth="yes"/>
      <point x="17" y="581"/>
      <point x="20" y="576"/>
      <point x="31" y="576" type="curve" smooth="yes"/>
      <point x="297" y="576" type="line"/>
      <point x="80" y="17" type="line" smooth="yes"/>
      <point x="75" y="7"/>
      <point x="79" y="0"/>
      <point x="88" y="0" type="curve" smooth="yes"/>
    </contour>
  </outline>
</glyph>
<glyph name="eight" format="1">
  <advance width="526"/>
  <unicode hex="0038"/>
  <outline>
    <contour>
      <point x="316" y="0" type="line"/>
      <point x="407" y="0"/>
      <point x="463" y="51"/>
      <point x="463" y="143" type="curve" smooth="yes"/>
      <point x="463" y="203" type="line" smooth="yes"/>
      <point x="463" y="265"/>
      <point x="437" y="306"/>
      <point x="393" y="324" type="curve"/>
      <point x="435" y="339"/>
      <point x="463" y="382"/>
      <point x="463" y="444" type="curve" smooth="yes"/>
      <point x="463" y="500" type="line" smooth="yes"/>
      <point x="463" y="593"/>
      <point x="407" y="643"/>
      <point x="316" y="643" type="curve" smooth="yes"/>
      <point x="210" y="643" type="line" smooth="yes"/>
      <point x="119" y="643"/>
      <point x="63" y="593"/>
      <point x="63" y="500" type="curve" smooth="yes"/>
      <point x="63" y="444" type="line" smooth="yes"/>
      <point x="63" y="382"/>
      <point x="89" y="341"/>
      <point x="133" y="324" type="curve"/>
      <point x="88" y="305"/>
      <point x="63" y="265"/>
      <point x="63" y="204" type="curve" smooth="yes"/>
      <point x="63" y="143" type="line" smooth="yes"/>
      <point x="63" y="51"/>
      <point x="119" y="0"/>
      <point x="210" y="0" type="curve" smooth="yes"/>
    </contour>
    <contour>
      <point x="219" y="353" type="line"/>
      <point x="162" y="353"/>
      <point x="135" y="383"/>
      <point x="135" y="440" type="curve" smooth="yes"/>
      <point x="135" y="495" type="line" smooth="yes"/>
      <point x="135" y="551"/>
      <point x="162" y="579"/>
      <point x="219" y="579" type="curve" smooth="yes"/>
      <point x="307" y="579" type="line" smooth="yes"/>
      <point x="364" y="579"/>
      <point x="391" y="551"/>
      <point x="391" y="495" type="curve" smooth="yes"/>
      <point x="391" y="440" type="line" smooth="yes"/>
      <point x="391" y="383"/>
      <point x="364" y="353"/>
      <point x="307" y="353" type="curve" smooth="yes"/>
    </contour>
    <contour>
      <point x="219" y="64" type="line"/>
      <point x="162" y="64"/>
      <point x="135" y="92"/>
      <point x="135" y="148" type="curve" smooth="yes"/>
      <point x="135" y="208" type="line" smooth="yes"/>
      <point x="135" y="264"/>
      <point x="162" y="294"/>
      <point x="219" y="294" type="curve" smooth="yes"/>
      <point x="307" y="294" type="line" smooth="yes"/>
      <point x="364" y="294"/>
      <point x="391" y="264"/>
      <point x="391" y="208" type="curve" smooth="yes"/>
      <point x="391" y="148" type="line" smooth="yes"/>
      <point x="391" y="92"/>
      <point x="364" y="64"/>
      <point x="307" y="64" type="curve" smooth="yes"/>
    </contour>
  </outline>
</glyph>
<glyph name="nine" format="1">
  <advance width="505"/>
  <unicode hex="0039"/>
  <outline>
    <contour>
      <point x="295" y="0" type="line"/>
      <point x="386" y="0"/>
      <point x="442" y="55"/>
      <point x="442" y="148" type="curve" smooth="yes"/>
      <point x="442" y="495" type="line" smooth="yes"/>
      <point x="442" y="588"/>
      <point x="386" y="643"/>
      <point x="295" y="643" type="curve" smooth="yes"/>
      <point x="200" y="643" type="line" smooth="yes"/>
      <point x="109" y="643"/>
      <point x="53" y="588"/>
      <point x="53" y="495" type="curve" smooth="yes"/>
      <point x="53" y="397" type="line" smooth="yes"/>
      <point x="53" y="305"/>
      <point x="109" y="250"/>
      <point x="200" y="250" type="curve" smooth="yes"/>
      <point x="370" y="250" type="line"/>
      <point x="370" y="151" type="line" smooth="yes"/>
      <point x="370" y="95"/>
      <point x="342" y="64"/>
      <point x="286" y="64" type="curve" smooth="yes"/>
      <point x="98" y="64" type="line" smooth="yes"/>
      <point x="87" y="64"/>
      <point x="83" y="59"/>
      <point x="83" y="51" type="curve" smooth="yes"/>
      <point x="83" y="14" type="line" smooth="yes"/>
      <point x="83" y="5"/>
      <point x="87" y="0"/>
      <point x="98" y="0" type="curve" smooth="yes"/>
    </contour>
    <contour>
      <point x="209" y="314" type="line"/>
      <point x="153" y="314"/>
      <point x="126" y="344"/>
      <point x="126" y="400" type="curve" smooth="yes"/>
      <point x="126" y="492" type="line" smooth="yes"/>
      <point x="126" y="548"/>
      <point x="153" y="579"/>
      <point x="209" y="579" type="curve" smooth="yes"/>
      <point x="286" y="579" type="line" smooth="yes"/>
      <point x="342" y="579"/>
      <point x="370" y="548"/>
      <point x="370" y="492" type="curve" smooth="yes"/>
      <point x="370" y="314" type="line"/>
    </contour>
  </outline>
</glyph>
<glyph name="colon" format="1">
  <advance width="194"/>
  <unicode hex="003A"/>
  <outline>
    <contour>
      <point x="136" y="135" type="line"/>
      <point x="136" y="145"/>
      <point x="131" y="148"/>
      <point x="123" y="148" type="curve" smooth="yes"/>
      <point x="72" y="148" type="line" smooth="yes"/>
      <point x="63" y="148"/>
      <point x="59" y="145"/>
      <point x="59" y="135" type="curve" smooth="yes"/>
      <point x="59" y="15" type="line" smooth="yes"/>
      <point x="59" y="5"/>
      <point x="63" y="0"/>
      <point x="72" y="0" type="curve" smooth="yes"/>
      <point x="123" y="0" type="line" smooth="yes"/>
      <point x="131" y="0"/>
      <point x="136" y="4"/>
      <point x="136" y="14" type="curve" smooth="yes"/>
    </contour>
    <contour>
      <point x="136" y="497" type="line"/>
      <point x="136" y="507"/>
      <point x="131" y="510"/>
      <point x="123" y="510" type="curve" smooth="yes"/>
      <point x="72" y="510" type="line" smooth="yes"/>
      <point x="63" y="510"/>
      <point x="59" y="506"/>
      <point x="59" y="496" type="curve" smooth="yes"/>
      <point x="59" y="377" type="line" smooth="yes"/>
      <point x="59" y="367"/>
      <point x="63" y="362"/>
      <point x="72" y="362" type="curve" smooth="yes"/>
      <point x="123" y="362" type="line" smooth="yes"/>
      <point x="131" y="362"/>
      <point x="136" y="366"/>
      <point x="136" y="376" type="curve" smooth="yes"/>
    </contour>
  </outline>
</glyph>
<glyph name="semicolon" format="1">
  <advance width="194"/>
  <unicode hex="003B"/>
  <outline>
    <contour>
      <point x="136" y="497" type="line"/>
      <point x="136" y="507"/>
      <point x="131" y="510"/>
      <point x="123" y="510" type="curve" smooth="yes"/>
      <point x="72" y="510" type="line" smooth="yes"/>
      <point x="63" y="510"/>
      <point x="59" y="506"/>
      <point x="59" y="496" type="curve" smooth="yes"/>
      <point x="59" y="377" type="line" smooth="yes"/>
      <point x="59" y="367"/>
      <point x="63" y="362"/>
      <point x="72" y="362" type="curve" smooth="yes"/>
      <point x="123" y="362" type="line" smooth="yes"/>
      <point x="131" y="362"/>
      <point x="136" y="366"/>
      <point x="136" y="376" type="curve" smooth="yes"/>
    </contour>
    <contour>
      <point x="136" y="135" type="line"/>
      <point x="136" y="145"/>
      <point x="131" y="148"/>
      <point x="123" y="148" type="curve" smooth="yes"/>
      <point x="72" y="148" type="line" smooth="yes"/>
      <point x="63" y="148"/>
      <point x="59" y="145"/>
      <point x="59" y="135" type="curve" smooth="yes"/>
      <point x="59" y="-91" type="line" smooth="yes"/>
      <point x="59" y="-101"/>
      <point x="64" y="-104"/>
      <point x="69" y="-104" type="curve" smooth="yes"/>
      <point x="74" y="-104"/>
      <point x="78" y="-101"/>
      <point x="81" y="-96" type="curve" smooth="yes"/>
      <point x="121" y="-2" type="line" smooth="yes"/>
      <point x="131" y="22"/>
      <point x="136" y="37"/>
      <point x="136" y="56" type="curve" smooth="yes"/>
    </contour>
  </outline>
</glyph>
<glyph name="less" format="1">
  <advance width="528"/>
  <unicode hex="003C"/>
  <outline>
    <contour>
      <point x="462" y="486" type="line"/>
      <point x="462" y="496"/>
      <point x="456" y="500"/>
      <point x="445" y="496" type="curve" smooth="yes"/>
      <point x="83" y="365" type="line" smooth="yes"/>
      <point x="71" y="361"/>
      <point x="66" y="354"/>
      <point x="66" y="341" type="curve" smooth="yes"/>
      <point x="66" y="306" type="line" smooth="yes"/>
      <point x="66" y="294"/>
      <point x="71" y="287"/>
      <point x="83" y="282" type="curve" smooth="yes"/>
      <point x="445" y="151" type="line" smooth="yes"/>
      <point x="456" y="147"/>
      <point x="462" y="151"/>
      <point x="462" y="161" type="curve" smooth="yes"/>
      <point x="462" y="198" type="line" smooth="yes"/>
      <point x="462" y="208"/>
      <point x="460" y="214"/>
      <point x="449" y="216" type="curve" smooth="yes"/>
      <point x="128" y="324" type="line"/>
      <point x="449" y="431" type="line" smooth="yes"/>
      <point x="460" y="434"/>
      <point x="462" y="440"/>
      <point x="462" y="450" type="curve" smooth="yes"/>
    </contour>
  </outline>
</glyph>
<glyph name="equal" format="1">
  <advance width="542"/>
  <unicode hex="003D"/>
  <outline>
    <contour>
      <point x="88" y="259" type="line"/>
      <point x="77" y="259"/>
      <point x="73" y="255"/>
      <point x="73" y="244" type="curve" smooth="yes"/>
      <point x="73" y="214" type="line" smooth="yes"/>
      <point x="73" y="204"/>
      <point x="77" y="199"/>
      <point x="88" y="199" type="curve" smooth="yes"/>
      <point x="453" y="199" type="line" smooth="yes"/>
      <point x="465" y="199"/>
      <point x="469" y="204"/>
      <point x="469" y="214" type="curve" smooth="yes"/>
      <point x="469" y="244" type="line" smooth="yes"/>
      <point x="469" y="255"/>
      <point x="465" y="259"/>
      <point x="453" y="259" type="curve" smooth="yes"/>
    </contour>
    <contour>
      <point x="88" y="444" type="line"/>
      <point x="77" y="444"/>
      <point x="73" y="439"/>
      <point x="73" y="429" type="curve" smooth="yes"/>
      <point x="73" y="398" type="line" smooth="yes"/>
      <point x="73" y="388"/>
      <point x="77" y="383"/>
      <point x="88" y="383" type="curve" smooth="yes"/>
      <point x="453" y="383" type="line" smooth="yes"/>
      <point x="465" y="383"/>
      <point x="469" y="388"/>
      <point x="469" y="398" type="curve" smooth="yes"/>
      <point x="469" y="429" type="line" smooth="yes"/>
      <point x="469" y="439"/>
      <point x="465" y="444"/>
      <point x="453" y="444" type="curve" smooth="yes"/>
    </contour>
  </outline>
</glyph>
<glyph name="greater" format="1">
  <advance width="542"/>
  <unicode hex="003E"/>
  <outline>
    <contour>
      <point x="73" y="450" type="line"/>
      <point x="73" y="440"/>
      <point x="75" y="434"/>
      <point x="86" y="431" type="curve" smooth="yes"/>
      <point x="407" y="324" type="line"/>
      <point x="86" y="216" type="line" smooth="yes"/>
      <point x="75" y="214"/>
      <point x="73" y="208"/>
      <point x="73" y="198" type="curve" smooth="yes"/>
      <point x="73" y="161" type="line" smooth="yes"/>
      <point x="73" y="151"/>
      <point x="78" y="147"/>
      <point x="90" y="151" type="curve" smooth="yes"/>
      <point x="452" y="282" type="line" smooth="yes"/>
      <point x="464" y="287"/>
      <point x="469" y="294"/>
      <point x="469" y="306" type="curve" smooth="yes"/>
      <point x="469" y="341" type="line" smooth="yes"/>
      <point x="469" y="354"/>
      <point x="464" y="361"/>
      <point x="452" y="365" type="curve" smooth="yes"/>
      <point x="90" y="496" type="line" smooth="yes"/>
      <point x="78" y="500"/>
      <point x="73" y="496"/>
      <point x="73" y="486" type="curve" smooth="yes"/>
    </contour>
  </outline>
</glyph>
<glyph name="question" format="1">
  <advance width="471"/>
  <unicode hex="003F"/>
  <outline>
    <contour>
      <point x="274" y="262" type="line"/>
      <point x="274" y="292"/>
      <point x="277" y="307"/>
      <point x="310" y="335" type="curve" smooth="yes"/>
      <point x="362" y="379" type="line" smooth="yes"/>
      <point x="392" y="404"/>
      <point x="409" y="432"/>
      <point x="409" y="470" type="curve" smooth="yes"/>
      <point x="409" y="496" type="line" smooth="yes"/>
      <point x="409" y="589"/>
      <point x="353" y="642"/>
      <point x="261" y="642" type="curve" smooth="yes"/>
      <point x="209" y="642" type="line" smooth="yes"/>
      <point x="118" y="642"/>
      <point x="62" y="589"/>
      <point x="62" y="496" type="curve" smooth="yes"/>
      <point x="62" y="459" type="line" smooth="yes"/>
      <point x="62" y="449"/>
      <point x="66" y="445"/>
      <point x="75" y="445" type="curve" smooth="yes"/>
      <point x="120" y="445" type="line" smooth="yes"/>
      <point x="129" y="445"/>
      <point x="134" y="449"/>
      <point x="134" y="459" type="curve" smooth="yes"/>
      <point x="134" y="495" type="line" smooth="yes"/>
      <point x="134" y="551"/>
      <point x="162" y="580"/>
      <point x="218" y="580" type="curve" smooth="yes"/>
      <point x="252" y="580" type="line" smooth="yes"/>
      <point x="309" y="580"/>
      <point x="338" y="551"/>
      <point x="338" y="495" type="curve" smooth="yes"/>
      <point x="338" y="474" type="line" smooth="yes"/>
      <point x="338" y="446"/>
      <point x="326" y="426"/>
      <point x="301" y="405" type="curve" smooth="yes"/>
      <point x="259" y="369" type="line" smooth="yes"/>
      <point x="217" y="334"/>
      <point x="204" y="313"/>
      <point x="204" y="260" type="curve" smooth="yes"/>
      <point x="204" y="228" type="line" smooth="yes"/>
      <point x="204" y="218"/>
      <point x="209" y="214"/>
      <point x="218" y="214" type="curve" smooth="yes"/>
      <point x="260" y="214" type="line" smooth="yes"/>
      <point x="269" y="214"/>
      <point x="274" y="218"/>
      <point x="274" y="228" type="curve" smooth="yes"/>
    </contour>
    <contour>
      <point x="276" y="135" type="line"/>
      <point x="276" y="145"/>
      <point x="271" y="148"/>
      <point x="263" y="148" type="curve" smooth="yes"/>
      <point x="212" y="148" type="line" smooth="yes"/>
      <point x="203" y="148"/>
      <point x="199" y="145"/>
      <point x="199" y="135" type="curve" smooth="yes"/>
      <point x="199" y="15" type="line" smooth="yes"/>
      <point x="199" y="5"/>
      <point x="203" y="0"/>
      <point x="212" y="0" type="curve" smooth="yes"/>
      <point x="263" y="0" type="line" smooth="yes"/>
      <point x="272" y="0"/>
      <point x="276" y="4"/>
      <point x="276" y="14" type="curve" smooth="yes"/>
    </contour>
  </outline>
</glyph>
<glyph name="at" format="1">
  <advance width="751"/>
  <unicode hex="0040"/>
  <outline>
    <contour>
      <point x="508" y="-58" type="line"/>
      <point x="519" y="-58"/>
      <point x="522" y="-53"/>
      <point x="522" y="-44" type="curve" smooth="yes"/>
      <point x="522" y="-24" type="line" smooth="yes"/>
      <point x="522" y="-15"/>
      <point x="519" y="-11"/>
      <point x="508" y="-11" type="curve" smooth="yes"/>
      <point x="326" y="-11" type="line" smooth="yes"/>
      <point x="215" y="-11"/>
      <point x="124" y="67"/>
      <point x="124" y="194" type="curve" smooth="yes"/>
      <point x="124" y="351" type="line" smooth="yes"/>
      <point x="124" y="478"/>
      <point x="211" y="556"/>
      <point x="322" y="556" type="curve" smooth="yes"/>
      <point x="513" y="556" type="line" smooth="yes"/>
      <point x="583" y="556"/>
      <point x="631" y="516"/>
      <point x="631" y="443" type="curve" smooth="yes"/>
      <point x="631" y="222" type="line" smooth="yes"/>
      <point x="631" y="163"/>
      <point x="600" y="131"/>
      <point x="543" y="131" type="curve" smooth="yes"/>
      <point x="538" y="131" type="line" smooth="yes"/>
      <point x="530" y="131"/>
      <point x="524" y="134"/>
      <point x="524" y="141" type="curve" smooth="yes"/>
      <point x="524" y="446" type="line" smooth="yes"/>
      <point x="524" y="457"/>
      <point x="519" y="460"/>
      <point x="510" y="460" type="curve" smooth="yes"/>
      <point x="359" y="460" type="line" smooth="yes"/>
      <point x="275" y="460"/>
      <point x="219" y="405"/>
      <point x="219" y="312" type="curve" smooth="yes"/>
      <point x="219" y="228" type="line" smooth="yes"/>
      <point x="219" y="136"/>
      <point x="275" y="84"/>
      <point x="354" y="84" type="curve" smooth="yes"/>
      <point x="392" y="84"/>
      <point x="438" y="95"/>
      <point x="458" y="137" type="curve"/>
      <point x="462" y="137" type="line"/>
      <point x="462" y="132"/>
      <point x="462" y="127"/>
      <point x="462" y="122" type="curve" smooth="yes"/>
      <point x="462" y="96"/>
      <point x="484" y="83"/>
      <point x="507" y="83" type="curve" smooth="yes"/>
      <point x="546" y="83" type="line" smooth="yes"/>
      <point x="625" y="83"/>
      <point x="680" y="136"/>
      <point x="680" y="217" type="curve" smooth="yes"/>
      <point x="680" y="447" type="line" smooth="yes"/>
      <point x="680" y="539"/>
      <point x="614" y="603"/>
      <point x="517" y="603" type="curve" smooth="yes"/>
      <point x="319" y="603" type="line" smooth="yes"/>
      <point x="190" y="603"/>
      <point x="75" y="506"/>
      <point x="75" y="354" type="curve" smooth="yes"/>
      <point x="75" y="189" type="line" smooth="yes"/>
      <point x="75" y="32"/>
      <point x="195" y="-58"/>
      <point x="327" y="-58" type="curve" smooth="yes"/>
    </contour>
    <contour>
      <point x="462" y="233" type="line"/>
      <point x="462" y="175"/>
      <point x="430" y="141"/>
      <point x="370" y="141" type="curve" smooth="yes"/>
      <point x="369" y="141"/>
      <point x="368" y="141"/>
      <point x="368" y="141" type="curve"/>
      <point x="312" y="141"/>
      <point x="284" y="172"/>
      <point x="284" y="228" type="curve" smooth="yes"/>
      <point x="284" y="316" type="line" smooth="yes"/>
      <point x="284" y="372"/>
      <point x="312" y="403"/>
      <point x="368" y="403" type="curve" smooth="yes"/>
      <point x="452" y="403" type="line" smooth="yes"/>
      <point x="460" y="403"/>
      <point x="462" y="400"/>
      <point x="462" y="393" type="curve" smooth="yes"/>
    </contour>
  </outline>
</glyph>
<glyph name="B" format="1">
  <advance width="549"/>
  <unicode hex="0042"/>
  <outline>
    <contour>
      <point x="79" y="14" type="line"/>
      <point x="79" y="3"/>
      <point x="84" y="0"/>
      <point x="93" y="0" type="curve" smooth="yes"/>
      <point x="335" y="0" type="line" smooth="yes"/>
      <point x="427" y="0"/>
      <point x="483" y="53"/>
      <point x="483" y="146" type="curve" smooth="yes"/>
      <point x="483" y="213" type="line" smooth="yes"/>
      <point x="483" y="283"/>
      <point x="438" y="323"/>
      <point x="391" y="327" type="curve"/>
      <point x="440" y="342"/>
      <point x="475" y="377"/>
      <point x="475" y="442" type="curve" smooth="yes"/>
      <point x="475" y="497" type="line" smooth="yes"/>
      <point x="475" y="590"/>
      <point x="419" y="643"/>
      <point x="328" y="643" type="curve" smooth="yes"/>
      <point x="93" y="643" type="line" smooth="yes"/>
      <point x="84" y="643"/>
      <point x="79" y="640"/>
      <point x="79" y="629" type="curve" smooth="yes"/>
    </contour>
    <contour>
      <point x="162" y="358" type="line"/>
      <point x="155" y="358"/>
      <point x="152" y="361"/>
      <point x="152" y="367" type="curve" smooth="yes"/>
      <point x="152" y="571" type="line" smooth="yes"/>
      <point x="152" y="578"/>
      <point x="155" y="581"/>
      <point x="162" y="581" type="curve" smooth="yes"/>
      <point x="319" y="581" type="line" smooth="yes"/>
      <point x="375" y="581"/>
      <point x="404" y="552"/>
      <point x="404" y="496" type="curve" smooth="yes"/>
      <point x="404" y="443" type="line" smooth="yes"/>
      <point x="404" y="387"/>
      <point x="373" y="358"/>
      <point x="316" y="358" type="curve" smooth="yes"/>
    </contour>
    <contour>
      <point x="162" y="62" type="line"/>
      <point x="155" y="62"/>
      <point x="152" y="65"/>
      <point x="152" y="72" type="curve" smooth="yes"/>
      <point x="152" y="288" type="line" smooth="yes"/>
      <point x="152" y="294"/>
      <point x="155" y="297"/>
      <point x="162" y="297" type="curve" smooth="yes"/>
      <point x="320" y="297" type="line" smooth="yes"/>
      <point x="383" y="297"/>
      <point x="412" y="269"/>
      <point x="412" y="212" type="curve" smooth="yes"/>
      <point x="412" y="147" type="line" smooth="yes"/>
      <point x="412" y="91"/>
      <point x="383" y="62"/>
      <point x="326" y="62" type="curve" smooth="yes"/>
    </contour>
  </outline>
</glyph>
<glyph name="D" format="1">
  <advance width="556"/>
  <unicode hex="0044"/>
  <outline>
    <contour>
      <point x="79" y="14" type="line"/>
      <point x="79" y="3"/>
      <point x="84" y="0"/>
      <point x="93" y="0" type="curve" smooth="yes"/>
      <point x="339" y="0" type="line" smooth="yes"/>
      <point x="430" y="0"/>
      <point x="487" y="55"/>
      <point x="487" y="148" type="curve" smooth="yes"/>
      <point x="487" y="495" type="line" smooth="yes"/>
      <point x="487" y="588"/>
      <point x="430" y="643"/>
      <point x="339" y="643" type="curve" smooth="yes"/>
      <point x="93" y="643" type="line" smooth="yes"/>
      <point x="84" y="643"/>
      <point x="79" y="640"/>
      <point x="79" y="629" type="curve" smooth="yes"/>
    </contour>
    <contour>
      <point x="162" y="64" type="line"/>
      <point x="155" y="64"/>
      <point x="152" y="67"/>
      <point x="152" y="73" type="curve" smooth="yes"/>
      <point x="152" y="570" type="line" smooth="yes"/>
      <point x="152" y="576"/>
      <point x="155" y="579"/>
      <point x="162" y="579" type="curve" smooth="yes"/>
      <point x="330" y="579" type="line" smooth="yes"/>
      <point x="386" y="579"/>
      <point x="414" y="548"/>
      <point x="414" y="492" type="curve" smooth="yes"/>
      <point x="414" y="151" type="line" smooth="yes"/>
      <point x="414" y="95"/>
      <point x="386" y="64"/>
      <point x="330" y="64" type="curve" smooth="yes"/>
    </contour>
  </outline>
</glyph>
<glyph name="F" format="1">
  <advance width="457"/>
  <unicode hex="0046"/>
  <outline>
    <contour>
      <point x="138" y="0" type="line"/>
      <point x="147" y="0"/>
      <point x="152" y="3"/>
      <point x="152" y="14" type="curve" smooth="yes"/>
      <point x="152" y="269" type="line" smooth="yes"/>
      <point x="152" y="276"/>
      <point x="155" y="279"/>
      <point x="162" y="279" type="curve" smooth="yes"/>
      <point x="376" y="279" type="line" smooth="yes"/>
      <point x="386" y="279"/>
      <point x="390" y="283"/>
      <point x="390" y="293" type="curve" smooth="yes"/>
      <point x="390" y="329" type="line" smooth="yes"/>
      <point x="390" y="338"/>
      <point x="386" y="343"/>
      <point x="376" y="343" type="curve" smooth="yes"/>
      <point x="162" y="343" type="line" smooth="yes"/>
      <point x="155" y="343"/>
      <point x="152" y="346"/>
      <point x="152" y="352" type="curve" smooth="yes"/>
      <point x="152" y="570" type="line" smooth="yes"/>
      <point x="152" y="576"/>
      <point x="155" y="579"/>
      <point x="162" y="579" type="curve" smooth="yes"/>
      <point x="404" y="579" type="line" smooth="yes"/>
      <point x="414" y="579"/>
      <point x="418" y="584"/>
      <point x="418" y="593" type="curve" smooth="yes"/>
      <point x="418" y="629" type="line" smooth="yes"/>
      <point x="418" y="638"/>
      <point x="414" y="643"/>
      <point x="404" y="643" type="curve" smooth="yes"/>
      <point x="93" y="643" type="line" smooth="yes"/>
      <point x="84" y="643"/>
      <point x="79" y="640"/>
      <point x="79" y="629" type="curve" smooth="yes"/>
      <point x="79" y="14" type="line" smooth="yes"/>
      <point x="79" y="3"/>
      <point x="84" y="0"/>
      <point x="93" y="0" type="curve" smooth="yes"/>
    </contour>
  </outline>
</glyph>
<glyph name="G" format="1">
  <advance width="541"/>
  <unicode hex="0047"/>
  <outline>
    <contour>
      <point x="325" y="0" type="line"/>
      <point x="416" y="0"/>
      <point x="472" y="55"/>
      <point x="472" y="148" type="curve" smooth="yes"/>
      <point x="472" y="316" type="line" smooth="yes"/>
      <point x="472" y="330"/>
      <point x="464" y="337"/>
      <point x="452" y="337" type="curve" smooth="yes"/>
      <point x="291" y="337" type="line" smooth="yes"/>
      <point x="280" y="337"/>
      <point x="277" y="332"/>
      <point x="277" y="323" type="curve" smooth="yes"/>
      <point x="277" y="286" type="line" smooth="yes"/>
      <point x="277" y="277"/>
      <point x="280" y="273"/>
      <point x="291" y="273" type="curve" smooth="yes"/>
      <point x="390" y="273" type="line" smooth="yes"/>
      <point x="397" y="273"/>
      <point x="399" y="270"/>
      <point x="399" y="263" type="curve" smooth="yes"/>
      <point x="399" y="151" type="line" smooth="yes"/>
      <point x="399" y="95"/>
      <point x="372" y="64"/>
      <point x="316" y="64" type="curve" smooth="yes"/>
      <point x="225" y="64" type="line" smooth="yes"/>
      <point x="169" y="64"/>
      <point x="142" y="95"/>
      <point x="142" y="151" type="curve" smooth="yes"/>
      <point x="142" y="492" type="line" smooth="yes"/>
      <point x="142" y="548"/>
      <point x="169" y="579"/>
      <point x="225" y="579" type="curve" smooth="yes"/>
      <point x="316" y="579" type="line" smooth="yes"/>
      <point x="372" y="579"/>
      <point x="399" y="548"/>
      <point x="399" y="492" type="curve" smooth="yes"/>
      <point x="399" y="454" type="line" smooth="yes"/>
      <point x="399" y="443"/>
      <point x="404" y="439"/>
      <point x="413" y="439" type="curve" smooth="yes"/>
      <point x="458" y="439" type="line" smooth="yes"/>
      <point x="467" y="439"/>
      <point x="472" y="443"/>
      <point x="472" y="454" type="curve" smooth="yes"/>
      <point x="472" y="495" type="line" smooth="yes"/>
      <point x="472" y="588"/>
      <point x="416" y="643"/>
      <point x="325" y="643" type="curve" smooth="yes"/>
      <point x="217" y="643" type="line" smooth="yes"/>
      <point x="125" y="643"/>
      <point x="69" y="588"/>
      <point x="69" y="495" type="curve" smooth="yes"/>
      <point x="69" y="148" type="line" smooth="yes"/>
      <point x="69" y="55"/>
      <point x="125" y="0"/>
      <point x="217" y="0" type="curve" smooth="yes"/>
    </contour>
  </outline>
</glyph>
<glyph name="H" format="1">
  <advance width="572"/>
  <unicode hex="0048"/>
  <outline>
    <contour>
      <point x="138" y="0" type="line"/>
      <point x="147" y="0"/>
      <point x="152" y="3"/>
      <point x="152" y="14" type="curve" smooth="yes"/>
      <point x="152" y="284" type="line" smooth="yes"/>
      <point x="152" y="290"/>
      <point x="155" y="293"/>
      <point x="162" y="293" type="curve" smooth="yes"/>
      <point x="410" y="293" type="line" smooth="yes"/>
      <point x="417" y="293"/>
      <point x="420" y="290"/>
      <point x="420" y="284" type="curve" smooth="yes"/>
      <point x="420" y="14" type="line" smooth="yes"/>
      <point x="420" y="3"/>
      <point x="425" y="0"/>
      <point x="434" y="0" type="curve" smooth="yes"/>
      <point x="479" y="0" type="line" smooth="yes"/>
      <point x="488" y="0"/>
      <point x="493" y="3"/>
      <point x="493" y="14" type="curve" smooth="yes"/>
      <point x="493" y="629" type="line" smooth="yes"/>
      <point x="493" y="640"/>
      <point x="488" y="643"/>
      <point x="479" y="643" type="curve" smooth="yes"/>
      <point x="434" y="643" type="line" smooth="yes"/>
      <point x="425" y="643"/>
      <point x="420" y="640"/>
      <point x="420" y="629" type="curve" smooth="yes"/>
      <point x="420" y="366" type="line" smooth="yes"/>
      <point x="420" y="360"/>
      <point x="417" y="357"/>
      <point x="410" y="357" type="curve" smooth="yes"/>
      <point x="162" y="357" type="line" smooth="yes"/>
      <point x="155" y="357"/>
      <point x="152" y="360"/>
      <point x="152" y="366" type="curve" smooth="yes"/>
      <point x="152" y="629" type="line" smooth="yes"/>
      <point x="152" y="640"/>
      <point x="147" y="643"/>
      <point x="138" y="643" type="curve" smooth="yes"/>
      <point x="93" y="643" type="line" smooth="yes"/>
      <point x="84" y="643"/>
      <point x="79" y="640"/>
      <point x="79" y="629" type="curve" smooth="yes"/>
      <point x="79" y="14" type="line" smooth="yes"/>
      <point x="79" y="3"/>
      <point x="84" y="0"/>
      <point x="93" y="0" type="curve" smooth="yes"/>
    </contour>
  </outline>
</glyph>
<glyph name="I" format="1">
  <advance width="241"/>
  <unicode hex="0049"/>
  <outline>
    <contour>
      <point x="157" y="629" type="line"/>
      <point x="157" y="640"/>
      <point x="152" y="643"/>
      <point x="143" y="643" type="curve" smooth="yes"/>
      <point x="98" y="643" type="line" smooth="yes"/>
      <point x="89" y="643"/>
      <point x="84" y="640"/>
      <point x="84" y="629" type="curve" smooth="yes"/>
      <point x="84" y="14" type="line" smooth="yes"/>
      <point x="84" y="3"/>
      <point x="89" y="0"/>
      <point x="98" y="0" type="curve" smooth="yes"/>
      <point x="143" y="0" type="line" smooth="yes"/>
      <point x="152" y="0"/>
      <point x="157" y="3"/>
      <point x="157" y="14" type="curve" smooth="yes"/>
    </contour>
  </outline>
</glyph>
<glyph name="J" format="1">
  <advance width="505"/>
  <unicode hex="004A"/>
  <outline>
    <contour>
      <point x="373" y="643" type="line"/>
      <point x="363" y="643"/>
      <point x="359" y="639"/>
      <point x="359" y="629" type="curve" smooth="yes"/>
      <point x="359" y="151" type="line" smooth="yes"/>
      <point x="359" y="95"/>
      <point x="331" y="64"/>
      <point x="275" y="64" type="curve" smooth="yes"/>
      <point x="193" y="64" type="line" smooth="yes"/>
      <point x="137" y="64"/>
      <point x="109" y="95"/>
      <point x="109" y="151" type="curve" smooth="yes"/>
      <point x="109" y="167"/>
      <point x="109" y="217"/>
      <point x="109" y="234" type="curve" smooth="yes"/>
      <point x="109" y="245"/>
      <point x="104" y="248"/>
      <point x="95" y="248" type="curve" smooth="yes"/>
      <point x="50" y="248" type="line" smooth="yes"/>
      <point x="41" y="248"/>
      <point x="36" y="245"/>
      <point x="36" y="234" type="curve" smooth="yes"/>
      <point x="36" y="217"/>
      <point x="36" y="166"/>
      <point x="36" y="148" type="curve" smooth="yes"/>
      <point x="36" y="55"/>
      <point x="93" y="0"/>
      <point x="184" y="0" type="curve" smooth="yes"/>
      <point x="284" y="0" type="line" smooth="yes"/>
      <point x="375" y="0"/>
      <point x="431" y="55"/>
      <point x="431" y="148" type="curve" smooth="yes"/>
      <point x="431" y="630" type="line" smooth="yes"/>
      <point x="431" y="639"/>
      <point x="427" y="643"/>
      <point x="418" y="643" type="curve" smooth="yes"/>
    </contour>
  </outline>
</glyph>
<glyph name="K" format="1">
  <advance width="538"/>
  <unicode hex="004B"/>
  <outline>
    <contour>
      <point x="138" y="0" type="line"/>
      <point x="147" y="0"/>
      <point x="152" y="3"/>
      <point x="152" y="14" type="curve" smooth="yes"/>
      <point x="152" y="198" type="line"/>
      <point x="243" y="307" type="line"/>
      <point x="435" y="14" type="line" smooth="yes"/>
      <point x="442" y="2"/>
      <point x="451" y="0"/>
      <point x="464" y="0" type="curve" smooth="yes"/>
      <point x="505" y="0" type="line" smooth="yes"/>
      <point x="516" y="0"/>
      <point x="521" y="6"/>
      <point x="514" y="16" type="curve" smooth="yes"/>
      <point x="288" y="360" type="line"/>
      <point x="486" y="628" type="line" smooth="yes"/>
      <point x="494" y="638"/>
      <point x="490" y="643"/>
      <point x="481" y="643" type="curve" smooth="yes"/>
      <point x="427" y="643" type="line" smooth="yes"/>
      <point x="415" y="643"/>
      <point x="409" y="641"/>
      <point x="401" y="629" type="curve" smooth="yes"/>
      <point x="177" y="325" type="line" smooth="yes"/>
      <point x="171" y="317"/>
      <point x="160" y="299"/>
      <point x="155" y="284" type="curve"/>
      <point x="152" y="284" type="line"/>
      <point x="152" y="629" type="line" smooth="yes"/>
      <point x="152" y="640"/>
      <point x="147" y="643"/>
      <point x="138" y="643" type="curve" smooth="yes"/>
      <point x="93" y="643" type="line" smooth="yes"/>
      <point x="84" y="643"/>
      <point x="79" y="640"/>
      <point x="79" y="629" type="curve" smooth="yes"/>
      <point x="79" y="14" type="line" smooth="yes"/>
      <point x="79" y="3"/>
      <point x="84" y="0"/>
      <point x="93" y="0" type="curve" smooth="yes"/>
    </contour>
  </outline>
</glyph>
<glyph name="L" format="1">
  <advance width="451"/>
  <unicode hex="004C"/>
  <outline>
    <contour>
      <point x="414" y="0" type="line"/>
      <point x="424" y="0"/>
      <point x="428" y="5"/>
      <point x="428" y="14" type="curve" smooth="yes"/>
      <point x="428" y="51" type="line" smooth="yes"/>
      <point x="428" y="60"/>
      <point x="424" y="66"/>
      <point x="414" y="66" type="curve" smooth="yes"/>
      <point x="162" y="66" type="line" smooth="yes"/>
      <point x="155" y="66"/>
      <point x="152" y="69"/>
      <point x="152" y="75" type="curve" smooth="yes"/>
      <point x="152" y="629" type="line" smooth="yes"/>
      <point x="152" y="640"/>
      <point x="147" y="643"/>
      <point x="138" y="643" type="curve" smooth="yes"/>
      <point x="93" y="643" type="line" smooth="yes"/>
      <point x="84" y="643"/>
      <point x="79" y="640"/>
      <point x="79" y="629" type="curve" smooth="yes"/>
      <point x="79" y="14" type="line" smooth="yes"/>
      <point x="79" y="3"/>
      <point x="84" y="0"/>
      <point x="93" y="0" type="curve" smooth="yes"/>
    </contour>
  </outline>
</glyph>
<glyph name="M" format="1">
  <advance width="705"/>
  <unicode hex="004D"/>
  <outline>
    <contour>
      <point x="355" y="221" type="line"/>
      <point x="350" y="221" type="line"/>
      <point x="186" y="635" type="line" smooth="yes"/>
      <point x="184" y="640"/>
      <point x="181" y="643"/>
      <point x="174" y="643" type="curve" smooth="yes"/>
      <point x="93" y="643" type="line" smooth="yes"/>
      <point x="85" y="643"/>
      <point x="79" y="640"/>
      <point x="79" y="629" type="curve" smooth="yes"/>
      <point x="79" y="14" type="line" smooth="yes"/>
      <point x="79" y="3"/>
      <point x="85" y="0"/>
      <point x="93" y="0" type="curve" smooth="yes"/>
      <point x="137" y="0" type="line" smooth="yes"/>
      <point x="147" y="0"/>
      <point x="150" y="3"/>
      <point x="150" y="14" type="curve" smooth="yes"/>
      <point x="150" y="546" type="line"/>
      <point x="154" y="546" type="line"/>
      <point x="312" y="153" type="line" smooth="yes"/>
      <point x="315" y="144"/>
      <point x="319" y="140"/>
      <point x="329" y="140" type="curve" smooth="yes"/>
      <point x="377" y="140" type="line" smooth="yes"/>
      <point x="386" y="140"/>
      <point x="391" y="144"/>
      <point x="395" y="153" type="curve" smooth="yes"/>
      <point x="550" y="545" type="line"/>
      <point x="554" y="545" type="line"/>
      <point x="554" y="14" type="line" smooth="yes"/>
      <point x="554" y="3"/>
      <point x="559" y="0"/>
      <point x="568" y="0" type="curve" smooth="yes"/>
      <point x="612" y="0" type="line" smooth="yes"/>
      <point x="621" y="0"/>
      <point x="626" y="3"/>
      <point x="626" y="14" type="curve" smooth="yes"/>
      <point x="626" y="629" type="line" smooth="yes"/>
      <point x="626" y="640"/>
      <point x="621" y="643"/>
      <point x="612" y="643" type="curve" smooth="yes"/>
      <point x="531" y="643" type="line" smooth="yes"/>
      <point x="524" y="643"/>
      <point x="520" y="640"/>
      <point x="519" y="635" type="curve" smooth="yes"/>
    </contour>
  </outline>
</glyph>
<glyph name="N" format="1">
  <advance width="581"/>
  <unicode hex="004E"/>
  <outline>
    <contour>
      <point x="137" y="0" type="line"/>
      <point x="146" y="0"/>
      <point x="151" y="3"/>
      <point x="151" y="14" type="curve" smooth="yes"/>
      <point x="151" y="493" type="line"/>
      <point x="155" y="493" type="line"/>
      <point x="430" y="13" type="line" smooth="yes"/>
      <point x="433" y="9"/>
      <point x="438" y="0"/>
      <point x="451" y="0" type="curve" smooth="yes"/>
      <point x="488" y="0" type="line" smooth="yes"/>
      <point x="497" y="0"/>
      <point x="502" y="3"/>
      <point x="502" y="14" type="curve" smooth="yes"/>
      <point x="502" y="629" type="line" smooth="yes"/>
      <point x="502" y="640"/>
      <point x="497" y="643"/>
      <point x="488" y="643" type="curve" smooth="yes"/>
      <point x="444" y="643" type="line" smooth="yes"/>
      <point x="435" y="643"/>
      <point x="430" y="640"/>
      <point x="430" y="629" type="curve" smooth="yes"/>
      <point x="430" y="150" type="line"/>
      <point x="426" y="150" type="line"/>
      <point x="150" y="635" type="line" smooth="yes"/>
      <point x="149" y="637"/>
      <point x="145" y="643"/>
      <point x="134" y="643" type="curve" smooth="yes"/>
      <point x="93" y="643" type="line" smooth="yes"/>
      <point x="84" y="643"/>
      <point x="79" y="640"/>
      <point x="79" y="629" type="curve" smooth="yes"/>
      <point x="79" y="14" type="line" smooth="yes"/>
      <point x="79" y="3"/>
      <point x="84" y="0"/>
      <point x="93" y="0" type="curve" smooth="yes"/>
    </contour>
  </outline>
</glyph>
<glyph name="P" format="1">
  <advance width="526"/>
  <unicode hex="0050"/>
  <outline>
    <contour>
      <point x="162" y="301" type="line"/>
      <point x="155" y="301"/>
      <point x="152" y="304"/>
      <point x="152" y="310" type="curve" smooth="yes"/>
      <point x="152" y="570" type="line" smooth="yes"/>
      <point x="152" y="576"/>
      <point x="155" y="579"/>
      <point x="162" y="579" type="curve" smooth="yes"/>
      <point x="317" y="579" type="line" smooth="yes"/>
      <point x="374" y="579"/>
      <point x="401" y="548"/>
      <point x="401" y="492" type="curve" smooth="yes"/>
      <point x="401" y="387" type="line" smooth="yes"/>
      <point x="401" y="331"/>
      <point x="374" y="301"/>
      <point x="317" y="301" type="curve" smooth="yes"/>
    </contour>
    <contour>
      <point x="138" y="0" type="line"/>
      <point x="147" y="0"/>
      <point x="152" y="3"/>
      <point x="152" y="14" type="curve" smooth="yes"/>
      <point x="152" y="227" type="line" smooth="yes"/>
      <point x="152" y="233"/>
      <point x="155" y="236"/>
      <point x="162" y="236" type="curve" smooth="yes"/>
      <point x="327" y="236" type="line" smooth="yes"/>
      <point x="418" y="236"/>
      <point x="474" y="291"/>
      <point x="474" y="384" type="curve" smooth="yes"/>
      <point x="474" y="495" type="line" smooth="yes"/>
      <point x="474" y="588"/>
      <point x="418" y="643"/>
      <point x="327" y="643" type="curve" smooth="yes"/>
      <point x="93" y="643" type="line" smooth="yes"/>
      <point x="84" y="643"/>
      <point x="79" y="640"/>
      <point x="79" y="629" type="curve" smooth="yes"/>
      <point x="79" y="14" type="line" smooth="yes"/>
      <point x="79" y="3"/>
      <point x="84" y="0"/>
      <point x="93" y="0" type="curve" smooth="yes"/>
    </contour>
  </outline>
</glyph>
<glyph name="Q" format="1">
  <advance width="560"/>
  <unicode hex="0051"/>
  <outline>
    <contour>
      <point x="421" y="-133" type="line"/>
      <point x="430" y="-133"/>
      <point x="436" y="-127"/>
      <point x="430" y="-117" type="curve" smooth="yes"/>
      <point x="359" y="2" type="line"/>
      <point x="438" y="8"/>
      <point x="487" y="62"/>
      <point x="487" y="148" type="curve" smooth="yes"/>
      <point x="487" y="495" type="line" smooth="yes"/>
      <point x="487" y="588"/>
      <point x="431" y="643"/>
      <point x="339" y="643" type="curve" smooth="yes"/>
      <point x="220" y="643" type="line" smooth="yes"/>
      <point x="129" y="643"/>
      <point x="73" y="588"/>
      <point x="73" y="495" type="curve" smooth="yes"/>
      <point x="73" y="148" type="line" smooth="yes"/>
      <point x="73" y="55"/>
      <point x="129" y="0"/>
      <point x="220" y="0" type="curve" smooth="yes"/>
      <point x="282" y="0" type="line"/>
      <point x="354" y="-119" type="line" smooth="yes"/>
      <point x="360" y="-129"/>
      <point x="366" y="-133"/>
      <point x="380" y="-133" type="curve" smooth="yes"/>
    </contour>
    <contour>
      <point x="229" y="64" type="line"/>
      <point x="173" y="64"/>
      <point x="146" y="95"/>
      <point x="146" y="151" type="curve" smooth="yes"/>
      <point x="146" y="492" type="line" smooth="yes"/>
      <point x="146" y="548"/>
      <point x="173" y="579"/>
      <point x="229" y="579" type="curve" smooth="yes"/>
      <point x="331" y="579" type="line" smooth="yes"/>
      <point x="387" y="579"/>
      <point x="415" y="548"/>
      <point x="415" y="492" type="curve" smooth="yes"/>
      <point x="415" y="151" type="line" smooth="yes"/>
      <point x="415" y="95"/>
      <point x="387" y="64"/>
      <point x="331" y="64" type="curve" smooth="yes"/>
    </contour>
  </outline>
</glyph>
<glyph name="S" format="1">
  <advance width="555"/>
  <unicode hex="0053"/>
  <outline>
    <contour>
      <point x="72" y="148" type="curve"/>
      <point x="72" y="56"/>
      <point x="129" y="0"/>
      <point x="220" y="0" type="curve" smooth="yes"/>
      <point x="335" y="0" type="line" smooth="yes"/>
      <point x="426" y="0"/>
      <point x="483" y="56"/>
      <point x="483" y="148" type="curve" smooth="yes"/>
      <point x="483" y="193" type="line" smooth="yes"/>
      <point x="483" y="415"/>
      <point x="144" y="310"/>
      <point x="144" y="444" type="curve" smooth="yes"/>
      <point x="144" y="484" type="line" smooth="yes"/>
      <point x="144" y="549"/>
      <point x="172" y="579"/>
      <point x="233" y="579" type="curve" smooth="yes"/>
      <point x="318" y="579" type="line" smooth="yes"/>
      <point x="378" y="579"/>
      <point x="407" y="549"/>
      <point x="407" y="488" type="curve" smooth="yes"/>
      <point x="407" y="488"/>
      <point x="407" y="470"/>
      <point x="407" y="470" type="curve"/>
      <point x="407" y="459"/>
      <point x="411" y="455"/>
      <point x="420" y="455" type="curve" smooth="yes"/>
      <point x="466" y="455" type="line" smooth="yes"/>
      <point x="475" y="455"/>
      <point x="479" y="459"/>
      <point x="479" y="470" type="curve" smooth="yes"/>
      <point x="479" y="472"/>
      <point x="479" y="492"/>
      <point x="479" y="495" type="curve"/>
      <point x="479" y="587"/>
      <point x="422" y="643"/>
      <point x="331" y="643" type="curve" smooth="yes"/>
      <point x="220" y="643" type="line" smooth="yes"/>
      <point x="128" y="643"/>
      <point x="72" y="587"/>
      <point x="72" y="495" type="curve" smooth="yes"/>
      <point x="72" y="446" type="line" smooth="yes"/>
      <point x="72" y="229"/>
      <point x="411" y="341"/>
      <point x="411" y="190" type="curve" smooth="yes"/>
      <point x="411" y="156" type="line" smooth="yes"/>
      <point x="411" y="94"/>
      <point x="382" y="64"/>
      <point x="322" y="64" type="curve" smooth="yes"/>
      <point x="234" y="64" type="line" smooth="yes"/>
      <point x="173" y="64"/>
      <point x="145" y="94"/>
      <point x="145" y="154" type="curve" smooth="yes"/>
      <point x="145" y="155"/>
      <point x="145" y="179"/>
      <point x="145" y="180" type="curve"/>
      <point x="145" y="190"/>
      <point x="140" y="194"/>
      <point x="131" y="194" type="curve" smooth="yes"/>
      <point x="86" y="194" type="line" smooth="yes"/>
      <point x="77" y="194"/>
      <point x="72" y="190"/>
      <point x="72" y="180" type="curve" smooth="yes"/>
      <point x="72" y="178"/>
      <point x="72" y="150"/>
    </contour>
  </outline>
</glyph>
<glyph name="T" format="1">
  <advance width="427"/>
  <unicode hex="0054"/>
  <outline>
    <contour>
      <point x="236" y="0" type="line"/>
      <point x="245" y="0"/>
      <point x="250" y="3"/>
      <point x="250" y="14" type="curve" smooth="yes"/>
      <point x="250" y="570" type="line" smooth="yes"/>
      <point x="250" y="576"/>
      <point x="253" y="579"/>
      <point x="260" y="579" type="curve" smooth="yes"/>
      <point x="396" y="579" type="line" smooth="yes"/>
      <point x="407" y="579"/>
      <point x="411" y="584"/>
      <point x="411" y="593" type="curve" smooth="yes"/>
      <point x="411" y="629" type="line" smooth="yes"/>
      <point x="411" y="638"/>
      <point x="407" y="643"/>
      <point x="396" y="643" type="curve" smooth="yes"/>
      <point x="31" y="643" type="line" smooth="yes"/>
      <point x="20" y="643"/>
      <point x="16" y="638"/>
      <point x="16" y="629" type="curve" smooth="yes"/>
      <point x="16" y="593" type="line" smooth="yes"/>
      <point x="16" y="584"/>
      <point x="20" y="579"/>
      <point x="31" y="579" type="curve" smooth="yes"/>
      <point x="167" y="579" type="line" smooth="yes"/>
      <point x="175" y="579"/>
      <point x="177" y="576"/>
      <point x="177" y="570" type="curve" smooth="yes"/>
      <point x="177" y="14" type="line" smooth="yes"/>
      <point x="177" y="3"/>
      <point x="182" y="0"/>
      <point x="191" y="0" type="curve" smooth="yes"/>
    </contour>
  </outline>
</glyph>
<glyph name="U" format="1">
  <advance width="554"/>
  <unicode hex="0055"/>
  <outline>
    <contour>
      <point x="421" y="643" type="line"/>
      <point x="412" y="643"/>
      <point x="408" y="639"/>
      <point x="408" y="629" type="curve" smooth="yes"/>
      <point x="408" y="151" type="line" smooth="yes"/>
      <point x="408" y="95"/>
      <point x="380" y="64"/>
      <point x="324" y="64" type="curve" smooth="yes"/>
      <point x="230" y="64" type="line" smooth="yes"/>
      <point x="174" y="64"/>
      <point x="147" y="95"/>
      <point x="147" y="151" type="curve" smooth="yes"/>
      <point x="147" y="629" type="line" smooth="yes"/>
      <point x="147" y="640"/>
      <point x="142" y="643"/>
      <point x="133" y="643" type="curve" smooth="yes"/>
      <point x="88" y="643" type="line" smooth="yes"/>
      <point x="79" y="643"/>
      <point x="74" y="640"/>
      <point x="74" y="629" type="curve" smooth="yes"/>
      <point x="74" y="148" type="line" smooth="yes"/>
      <point x="74" y="55"/>
      <point x="130" y="0"/>
      <point x="222" y="0" type="curve" smooth="yes"/>
      <point x="333" y="0" type="line" smooth="yes"/>
      <point x="424" y="0"/>
      <point x="480" y="55"/>
      <point x="480" y="148" type="curve" smooth="yes"/>
      <point x="480" y="630" type="line" smooth="yes"/>
      <point x="480" y="639"/>
      <point x="476" y="643"/>
      <point x="466" y="643" type="curve" smooth="yes"/>
    </contour>
  </outline>
</glyph>
<glyph name="V" format="1">
  <advance width="506"/>
  <unicode hex="0056"/>
  <outline>
    <contour>
      <point x="289" y="0" type="line"/>
      <point x="297" y="0"/>
      <point x="302" y="3"/>
      <point x="305" y="14" type="curve" smooth="yes"/>
      <point x="482" y="628" type="line" smooth="yes"/>
      <point x="484" y="638"/>
      <point x="480" y="643"/>
      <point x="470" y="643" type="curve" smooth="yes"/>
      <point x="420" y="643" type="line" smooth="yes"/>
      <point x="411" y="643"/>
      <point x="406" y="640"/>
      <point x="404" y="629" type="curve" smooth="yes"/>
      <point x="255" y="82" type="line"/>
      <point x="255" y="82"/>
      <point x="252" y="82"/>
      <point x="251" y="82" type="curve"/>
      <point x="102" y="629" type="line" smooth="yes"/>
      <point x="100" y="640"/>
      <point x="96" y="643"/>
      <point x="86" y="643" type="curve" smooth="yes"/>
      <point x="37" y="643" type="line" smooth="yes"/>
      <point x="26" y="643"/>
      <point x="22" y="638"/>
      <point x="24" y="628" type="curve" smooth="yes"/>
      <point x="201" y="14" type="line" smooth="yes"/>
      <point x="204" y="3"/>
      <point x="209" y="0"/>
      <point x="218" y="0" type="curve" smooth="yes"/>
    </contour>
  </outline>
</glyph>
<glyph name="W" format="1">
  <advance width="797"/>
  <unicode hex="0057"/>
  <outline>
    <contour>
      <point x="249" y="0" type="line"/>
      <point x="257" y="0"/>
      <point x="263" y="4"/>
      <point x="265" y="14" type="curve" smooth="yes"/>
      <point x="397" y="551" type="line"/>
      <point x="401" y="551" type="line"/>
      <point x="532" y="14" type="line" smooth="yes"/>
      <point x="534" y="5"/>
      <point x="540" y="0"/>
      <point x="549" y="0" type="curve" smooth="yes"/>
      <point x="626" y="0" type="line" smooth="yes"/>
      <point x="635" y="0"/>
      <point x="640" y="4"/>
      <point x="642" y="14" type="curve" smooth="yes"/>
      <point x="771" y="628" type="line" smooth="yes"/>
      <point x="773" y="638"/>
      <point x="768" y="643"/>
      <point x="758" y="643" type="curve" smooth="yes"/>
      <point x="704" y="643" type="line" smooth="yes"/>
      <point x="695" y="643"/>
      <point x="689" y="639"/>
      <point x="687" y="628" type="curve" smooth="yes"/>
      <point x="587" y="78" type="line"/>
      <point x="581" y="78" type="line"/>
      <point x="444" y="630" type="line" smooth="yes"/>
      <point x="442" y="640"/>
      <point x="436" y="643"/>
      <point x="428" y="643" type="curve" smooth="yes"/>
      <point x="368" y="643" type="line" smooth="yes"/>
      <point x="361" y="643"/>
      <point x="354" y="640"/>
      <point x="352" y="630" type="curve" smooth="yes"/>
      <point x="217" y="78" type="line"/>
      <point x="211" y="78" type="line"/>
      <point x="110" y="629" type="line" smooth="yes"/>
      <point x="109" y="640"/>
      <point x="103" y="643"/>
      <point x="94" y="643" type="curve" smooth="yes"/>
      <point x="40" y="643" type="line" smooth="yes"/>
      <point x="30" y="643"/>
      <point x="25" y="638"/>
      <point x="27" y="629" type="curve" smooth="yes"/>
      <point x="155" y="14" type="line" smooth="yes"/>
      <point x="157" y="3"/>
      <point x="163" y="0"/>
      <point x="172" y="0" type="curve" smooth="yes"/>
    </contour>
  </outline>
</glyph>
<glyph name="X" format="1">
  <advance width="514"/>
  <unicode hex="0058"/>
  <outline>
    <contour>
      <point x="402" y="13" type="line"/>
      <point x="406" y="3"/>
      <point x="412" y="0"/>
      <point x="421" y="0" type="curve" smooth="yes"/>
      <point x="474" y="0" type="line" smooth="yes"/>
      <point x="483" y="0"/>
      <point x="487" y="7"/>
      <point x="482" y="15" type="curve" smooth="yes"/>
      <point x="308" y="337" type="line"/>
      <point x="475" y="628" type="line" smooth="yes"/>
      <point x="479" y="636"/>
      <point x="475" y="643"/>
      <point x="466" y="643" type="curve" smooth="yes"/>
      <point x="414" y="643" type="line" smooth="yes"/>
      <point x="404" y="643"/>
      <point x="398" y="640"/>
      <point x="392" y="629" type="curve" smooth="yes"/>
      <point x="260" y="383" type="line"/>
      <point x="256" y="383" type="line"/>
      <point x="122" y="629" type="line" smooth="yes"/>
      <point x="117" y="640"/>
      <point x="109" y="643"/>
      <point x="100" y="643" type="curve" smooth="yes"/>
      <point x="50" y="643" type="line" smooth="yes"/>
      <point x="41" y="643"/>
      <point x="36" y="636"/>
      <point x="41" y="628" type="curve" smooth="yes"/>
      <point x="207" y="336" type="line"/>
      <point x="32" y="15" type="line" smooth="yes"/>
      <point x="28" y="7"/>
      <point x="32" y="0"/>
      <point x="41" y="0" type="curve" smooth="yes"/>
      <point x="93" y="0" type="line" smooth="yes"/>
      <point x="102" y="0"/>
      <point x="108" y="3"/>
      <point x="113" y="13" type="curve" smooth="yes"/>
      <point x="255" y="281" type="line"/>
      <point x="259" y="281" type="line"/>
    </contour>
  </outline>
</glyph>
<glyph name="Y" format="1">
  <advance width="500"/>
  <unicode hex="0059"/>
  <outline>
    <contour>
      <point x="272" y="0" type="line"/>
      <point x="281" y="0"/>
      <point x="286" y="3"/>
      <point x="286" y="14" type="curve" smooth="yes"/>
      <point x="286" y="241" type="line"/>
      <point x="477" y="628" type="line" smooth="yes"/>
      <point x="482" y="637"/>
      <point x="477" y="643"/>
      <point x="468" y="643" type="curve" smooth="yes"/>
      <point x="411" y="643" type="line" smooth="yes"/>
      <point x="403" y="643"/>
      <point x="398" y="639"/>
      <point x="395" y="629" type="curve" smooth="yes"/>
      <point x="253" y="326" type="line"/>
      <point x="248" y="326" type="line"/>
      <point x="105" y="629" type="line" smooth="yes"/>
      <point x="101" y="639"/>
      <point x="97" y="643"/>
      <point x="88" y="643" type="curve" smooth="yes"/>
      <point x="32" y="643" type="line" smooth="yes"/>
      <point x="24" y="643"/>
      <point x="18" y="637"/>
      <point x="23" y="628" type="curve" smooth="yes"/>
      <point x="213" y="241" type="line"/>
      <point x="213" y="14" type="line" smooth="yes"/>
      <point x="213" y="3"/>
      <point x="218" y="0"/>
      <point x="227" y="0" type="curve" smooth="yes"/>
    </contour>
  </outline>
</glyph>
<glyph name="Z" format="1">
  <advance width="493"/>
  <unicode hex="005A"/>
  <outline>
    <contour>
      <point x="44" y="14" type="line"/>
      <point x="44" y="5"/>
      <point x="47" y="0"/>
      <point x="58" y="0" type="curve" smooth="yes"/>
      <point x="435" y="0" type="line" smooth="yes"/>
      <point x="446" y="0"/>
      <point x="449" y="6"/>
      <point x="449" y="15" type="curve" smooth="yes"/>
      <point x="449" y="55" type="line" smooth="yes"/>
      <point x="449" y="64"/>
      <point x="446" y="68"/>
      <point x="435" y="68" type="curve" smooth="yes"/>
      <point x="129" y="68" type="line"/>
      <point x="129" y="72" type="line"/>
      <point x="431" y="553" type="line" smooth="yes"/>
      <point x="437" y="562"/>
      <point x="439" y="569"/>
      <point x="439" y="581" type="curve" smooth="yes"/>
      <point x="439" y="629" type="line" smooth="yes"/>
      <point x="439" y="638"/>
      <point x="436" y="643"/>
      <point x="425" y="643" type="curve" smooth="yes"/>
      <point x="71" y="643" type="line" smooth="yes"/>
      <point x="61" y="643"/>
      <point x="57" y="638"/>
      <point x="57" y="629" type="curve" smooth="yes"/>
      <point x="57" y="589" type="line" smooth="yes"/>
      <point x="57" y="580"/>
      <point x="61" y="575"/>
      <point x="71" y="575" type="curve" smooth="yes"/>
      <point x="360" y="575" type="line"/>
      <point x="360" y="571" type="line"/>
      <point x="50" y="76" type="line" smooth="yes"/>
      <point x="44" y="68"/>
      <point x="44" y="60"/>
      <point x="44" y="50" type="curve" smooth="yes"/>
    </contour>
  </outline>
</glyph>
<glyph name="bracketleft" format="1">
  <advance width="297"/>
  <unicode hex="005B"/>
  <outline>
    <contour>
      <point x="217" y="-100" type="line"/>
      <point x="227" y="-100"/>
      <point x="231" y="-95"/>
      <point x="231" y="-87" type="curve" smooth="yes"/>
      <point x="231" y="-61" type="line" smooth="yes"/>
      <point x="231" y="-52"/>
      <point x="227" y="-47"/>
      <point x="217" y="-47" type="curve" smooth="yes"/>
      <point x="139" y="-47" type="line" smooth="yes"/>
      <point x="132" y="-47"/>
      <point x="129" y="-44"/>
      <point x="129" y="-37" type="curve" smooth="yes"/>
      <point x="129" y="580" type="line" smooth="yes"/>
      <point x="129" y="587"/>
      <point x="132" y="590"/>
      <point x="139" y="590" type="curve" smooth="yes"/>
      <point x="217" y="590" type="line" smooth="yes"/>
      <point x="227" y="590"/>
      <point x="231" y="595"/>
      <point x="231" y="604" type="curve" smooth="yes"/>
      <point x="231" y="629" type="line" smooth="yes"/>
      <point x="231" y="638"/>
      <point x="227" y="643"/>
      <point x="217" y="643" type="curve" smooth="yes"/>
      <point x="81" y="643" type="line" smooth="yes"/>
      <point x="71" y="643"/>
      <point x="67" y="639"/>
      <point x="67" y="629" type="curve" smooth="yes"/>
      <point x="67" y="-86" type="line" smooth="yes"/>
      <point x="67" y="-96"/>
      <point x="71" y="-100"/>
      <point x="81" y="-100" type="curve" smooth="yes"/>
    </contour>
  </outline>
</glyph>
<glyph name="backslash" format="1">
  <advance width="400"/>
  <unicode hex="005C"/>
  <outline>
    <contour>
      <point x="275" y="15" type="line"/>
      <point x="280" y="4"/>
      <point x="285" y="0"/>
      <point x="294" y="0" type="curve" smooth="yes"/>
      <point x="336" y="0" type="line" smooth="yes"/>
      <point x="345" y="0"/>
      <point x="351" y="5"/>
      <point x="347" y="16" type="curve"/>
      <point x="319" y="89"/>
      <point x="153" y="555"/>
      <point x="125" y="628" type="curve"/>
      <point x="120" y="638"/>
      <point x="116" y="643"/>
      <point x="106" y="643" type="curve" smooth="yes"/>
      <point x="63" y="643" type="line" smooth="yes"/>
      <point x="53" y="643"/>
      <point x="49" y="637"/>
      <point x="53" y="626" type="curve" smooth="yes"/>
    </contour>
  </outline>
</glyph>
<glyph name="bracketright" format="1">
  <advance width="297"/>
  <unicode hex="005D"/>
  <outline>
    <contour>
      <point x="60" y="-87" type="line"/>
      <point x="60" y="-95"/>
      <point x="63" y="-100"/>
      <point x="74" y="-100" type="curve" smooth="yes"/>
      <point x="210" y="-100" type="line" smooth="yes"/>
      <point x="219" y="-100"/>
      <point x="223" y="-96"/>
      <point x="223" y="-86" type="curve" smooth="yes"/>
      <point x="223" y="629" type="line" smooth="yes"/>
      <point x="223" y="639"/>
      <point x="219" y="643"/>
      <point x="210" y="643" type="curve" smooth="yes"/>
      <point x="74" y="643" type="line" smooth="yes"/>
      <point x="63" y="643"/>
      <point x="60" y="638"/>
      <point x="60" y="629" type="curve" smooth="yes"/>
      <point x="60" y="604" type="line" smooth="yes"/>
      <point x="60" y="595"/>
      <point x="63" y="590"/>
      <point x="74" y="590" type="curve" smooth="yes"/>
      <point x="152" y="590" type="line" smooth="yes"/>
      <point x="159" y="590"/>
      <point x="162" y="587"/>
      <point x="162" y="580" type="curve" smooth="yes"/>
      <point x="162" y="-37" type="line" smooth="yes"/>
      <point x="162" y="-44"/>
      <point x="159" y="-47"/>
      <point x="152" y="-47" type="curve" smooth="yes"/>
      <point x="74" y="-47" type="line" smooth="yes"/>
      <point x="63" y="-47"/>
      <point x="60" y="-52"/>
      <point x="60" y="-61" type="curve" smooth="yes"/>
    </contour>
  </outline>
</glyph>
<glyph name="asciicircum" format="1">
  <advance width="479"/>
  <unicode hex="005E"/>
  <outline>
    <contour>
      <point x="353" y="378" type="line"/>
      <point x="359" y="368"/>
      <point x="363" y="364"/>
      <point x="373" y="364" type="curve" smooth="yes"/>
      <point x="413" y="364" type="line" smooth="yes"/>
      <point x="423" y="364"/>
      <point x="429" y="369"/>
      <point x="423" y="380" type="curve" smooth="yes"/>
      <point x="295" y="623" type="line" smooth="yes"/>
      <point x="288" y="638"/>
      <point x="281" y="643"/>
      <point x="265" y="643" type="curve" smooth="yes"/>
      <point x="213" y="643" type="line" smooth="yes"/>
      <point x="197" y="643"/>
      <point x="190" y="638"/>
      <point x="183" y="623" type="curve" smooth="yes"/>
      <point x="55" y="380" type="line" smooth="yes"/>
      <point x="49" y="369"/>
      <point x="55" y="364"/>
      <point x="65" y="364" type="curve" smooth="yes"/>
      <point x="105" y="364" type="line" smooth="yes"/>
      <point x="115" y="364"/>
      <point x="119" y="368"/>
      <point x="125" y="378" type="curve"/>
      <point x="239" y="597" type="line"/>
    </contour>
  </outline>
</glyph>
<glyph name="underscore" format="1">
  <advance width="372"/>
  <unicode hex="005F"/>
  <outline>
    <contour>
      <point x="358" y="-103" type="line"/>
      <point x="369" y="-103"/>
      <point x="372" y="-98"/>
      <point x="372" y="-89" type="curve" smooth="yes"/>
      <point x="372" y="-71" type="line" smooth="yes"/>
      <point x="372" y="-62"/>
      <point x="369" y="-57"/>
      <point x="358" y="-57" type="curve" smooth="yes"/>
      <point x="14" y="-57" type="line" smooth="yes"/>
      <point x="3" y="-57"/>
      <point x="0" y="-62"/>
      <point x="0" y="-71" type="curve" smooth="yes"/>
      <point x="0" y="-89" type="line" smooth="yes"/>
      <point x="0" y="-98"/>
      <point x="3" y="-103"/>
      <point x="14" y="-103" type="curve" smooth="yes"/>
    </contour>
  </outline>
</glyph>
<glyph name="grave" format="1">
  <advance width="277"/>
  <unicode hex="0060"/>
  <outline>
    <contour>
      <point x="154" y="690" type="line"/>
      <point x="149" y="699"/>
      <point x="142" y="703"/>
      <point x="133" y="703" type="curve" smooth="yes"/>
      <point x="72" y="703" type="line" smooth="yes"/>
      <point x="64" y="703"/>
      <point x="60" y="697"/>
      <point x="66" y="689" type="curve" smooth="yes"/>
      <point x="153" y="584" type="line" smooth="yes"/>
      <point x="158" y="578"/>
      <point x="166" y="574"/>
      <point x="173" y="574" type="curve" smooth="yes"/>
      <point x="206" y="574" type="line" smooth="yes"/>
      <point x="214" y="574"/>
      <point x="217" y="579"/>
      <point x="212" y="588" type="curve" smooth="yes"/>
    </contour>
  </outline>
</glyph>
<glyph name="b" format="1">
  <advance width="510"/>
  <unicode hex="0062"/>
  <outline>
    <contour>
      <point x="69" y="14" type="line"/>
      <point x="69" y="3"/>
      <point x="74" y="0"/>
      <point x="83" y="0" type="curve" smooth="yes"/>
      <point x="304" y="0" type="line" smooth="yes"/>
      <point x="395" y="0"/>
      <point x="451" y="55"/>
      <point x="451" y="148" type="curve" smooth="yes"/>
      <point x="451" y="369" type="line" smooth="yes"/>
      <point x="451" y="461"/>
      <point x="395" y="516"/>
      <point x="304" y="516" type="curve" smooth="yes"/>
      <point x="248" y="516" type="line" smooth="yes"/>
      <point x="197" y="516"/>
      <point x="161" y="495"/>
      <point x="146" y="463" type="curve"/>
      <point x="142" y="463" type="line"/>
      <point x="142" y="689" type="line" smooth="yes"/>
      <point x="142" y="700"/>
      <point x="137" y="703"/>
      <point x="128" y="703" type="curve" smooth="yes"/>
      <point x="83" y="703" type="line" smooth="yes"/>
      <point x="74" y="703"/>
      <point x="69" y="700"/>
      <point x="69" y="689" type="curve" smooth="yes"/>
    </contour>
    <contour>
      <point x="152" y="64" type="line"/>
      <point x="145" y="64"/>
      <point x="142" y="67"/>
      <point x="142" y="73" type="curve" smooth="yes"/>
      <point x="142" y="361" type="line" smooth="yes"/>
      <point x="142" y="418"/>
      <point x="174" y="452"/>
      <point x="235" y="452" type="curve" smooth="yes"/>
      <point x="294" y="452" type="line" smooth="yes"/>
      <point x="351" y="452"/>
      <point x="379" y="422"/>
      <point x="379" y="365" type="curve" smooth="yes"/>
      <point x="379" y="151" type="line" smooth="yes"/>
      <point x="379" y="95"/>
      <point x="351" y="64"/>
      <point x="294" y="64" type="curve" smooth="yes"/>
    </contour>
  </outline>
</glyph>
<glyph name="c" format="1">
  <advance width="399"/>
  <unicode hex="0063"/>
  <outline>
    <contour>
      <point x="366" y="50" type="line"/>
      <point x="366" y="59"/>
      <point x="362" y="64"/>
      <point x="352" y="64" type="curve" smooth="yes"/>
      <point x="215" y="64" type="line" smooth="yes"/>
      <point x="159" y="64"/>
      <point x="132" y="95"/>
      <point x="132" y="151" type="curve" smooth="yes"/>
      <point x="132" y="359" type="line" smooth="yes"/>
      <point x="132" y="415"/>
      <point x="159" y="446"/>
      <point x="215" y="446" type="curve" smooth="yes"/>
      <point x="352" y="446" type="line" smooth="yes"/>
      <point x="363" y="446"/>
      <point x="366" y="450"/>
      <point x="366" y="459" type="curve" smooth="yes"/>
      <point x="366" y="496" type="line" smooth="yes"/>
      <point x="366" y="505"/>
      <point x="362" y="510"/>
      <point x="352" y="510" type="curve" smooth="yes"/>
      <point x="207" y="510" type="line" smooth="yes"/>
      <point x="115" y="510"/>
      <point x="59" y="455"/>
      <point x="59" y="362" type="curve" smooth="yes"/>
      <point x="59" y="148" type="line" smooth="yes"/>
      <point x="59" y="55"/>
      <point x="115" y="0"/>
      <point x="207" y="0" type="curve" smooth="yes"/>
      <point x="352" y="0" type="line" smooth="yes"/>
      <point x="363" y="0"/>
      <point x="366" y="4"/>
      <point x="366" y="13" type="curve" smooth="yes"/>
    </contour>
  </outline>
</glyph>
<glyph name="d" format="1">
  <advance width="510"/>
  <unicode hex="0064"/>
  <outline>
    <contour>
      <point x="369" y="156" type="line"/>
      <point x="369" y="98"/>
      <point x="336" y="64"/>
      <point x="276" y="64" type="curve" smooth="yes"/>
      <point x="215" y="64" type="line" smooth="yes"/>
      <point x="159" y="64"/>
      <point x="132" y="95"/>
      <point x="132" y="151" type="curve" smooth="yes"/>
      <point x="132" y="359" type="line" smooth="yes"/>
      <point x="132" y="415"/>
      <point x="159" y="446"/>
      <point x="215" y="446" type="curve" smooth="yes"/>
      <point x="276" y="446" type="line" smooth="yes"/>
      <point x="336" y="446"/>
      <point x="369" y="412"/>
      <point x="369" y="354" type="curve" smooth="yes"/>
    </contour>
    <contour>
      <point x="262" y="0" type="line"/>
      <point x="314" y="0"/>
      <point x="350" y="21"/>
      <point x="365" y="53" type="curve"/>
      <point x="369" y="53" type="line"/>
      <point x="369" y="14" type="line" smooth="yes"/>
      <point x="369" y="3"/>
      <point x="373" y="0"/>
      <point x="382" y="0" type="curve" smooth="yes"/>
      <point x="428" y="0" type="line" smooth="yes"/>
      <point x="437" y="0"/>
      <point x="441" y="3"/>
      <point x="441" y="14" type="curve" smooth="yes"/>
      <point x="441" y="689" type="line" smooth="yes"/>
      <point x="441" y="700"/>
      <point x="437" y="703"/>
      <point x="428" y="703" type="curve" smooth="yes"/>
      <point x="382" y="703" type="line" smooth="yes"/>
      <point x="373" y="703"/>
      <point x="369" y="700"/>
      <point x="369" y="689" type="curve" smooth="yes"/>
      <point x="369" y="457" type="line"/>
      <point x="365" y="457" type="line"/>
      <point x="350" y="489"/>
      <point x="314" y="510"/>
      <point x="262" y="510" type="curve" smooth="yes"/>
      <point x="203" y="510" type="line" smooth="yes"/>
      <point x="112" y="510"/>
      <point x="59" y="455"/>
      <point x="59" y="362" type="curve" smooth="yes"/>
      <point x="59" y="148" type="line" smooth="yes"/>
      <point x="59" y="55"/>
      <point x="112" y="0"/>
      <point x="203" y="0" type="curve" smooth="yes"/>
    </contour>
  </outline>
</glyph>
<glyph name="f" format="1">
  <advance width="318"/>
  <unicode hex="0066"/>
  <outline>
    <contour>
      <point x="197" y="510" type="line"/>
      <point x="190" y="510"/>
      <point x="188" y="513"/>
      <point x="188" y="519" type="curve" smooth="yes"/>
      <point x="188" y="553" type="line" smooth="yes"/>
      <point x="188" y="610"/>
      <point x="205" y="639"/>
      <point x="261" y="639" type="curve" smooth="yes"/>
      <point x="286" y="639" type="line" smooth="yes"/>
      <point x="296" y="639"/>
      <point x="300" y="644"/>
      <point x="300" y="653" type="curve" smooth="yes"/>
      <point x="300" y="690" type="line" smooth="yes"/>
      <point x="300" y="699"/>
      <point x="297" y="703"/>
      <point x="286" y="703" type="curve" smooth="yes"/>
      <point x="252" y="703" type="line" smooth="yes"/>
      <point x="161" y="703"/>
      <point x="115" y="649"/>
      <point x="115" y="556" type="curve" smooth="yes"/>
      <point x="115" y="519" type="line" smooth="yes"/>
      <point x="115" y="513"/>
      <point x="112" y="510"/>
      <point x="105" y="510" type="curve" smooth="yes"/>
      <point x="46" y="510" type="line" smooth="yes"/>
      <point x="35" y="510"/>
      <point x="32" y="506"/>
      <point x="32" y="497" type="curve" smooth="yes"/>
      <point x="32" y="460" type="line" smooth="yes"/>
      <point x="32" y="451"/>
      <point x="35" y="446"/>
      <point x="46" y="446" type="curve" smooth="yes"/>
      <point x="105" y="446" type="line" smooth="yes"/>
      <point x="112" y="446"/>
      <point x="115" y="443"/>
      <point x="115" y="437" type="curve" smooth="yes"/>
      <point x="115" y="14" type="line" smooth="yes"/>
      <point x="115" y="3"/>
      <point x="120" y="0"/>
      <point x="129" y="0" type="curve" smooth="yes"/>
      <point x="173" y="0" type="line" smooth="yes"/>
      <point x="182" y="0"/>
      <point x="188" y="3"/>
      <point x="188" y="14" type="curve" smooth="yes"/>
      <point x="188" y="437" type="line" smooth="yes"/>
      <point x="188" y="443"/>
      <point x="190" y="446"/>
      <point x="197" y="446" type="curve" smooth="yes"/>
      <point x="285" y="446" type="line" smooth="yes"/>
      <point x="296" y="446"/>
      <point x="300" y="451"/>
      <point x="300" y="460" type="curve" smooth="yes"/>
      <point x="300" y="497" type="line" smooth="yes"/>
      <point x="300" y="506"/>
      <point x="296" y="510"/>
      <point x="285" y="510" type="curve" smooth="yes"/>
    </contour>
  </outline>
</glyph>
<glyph name="g" format="1">
  <advance width="510"/>
  <unicode hex="0067"/>
  <outline>
    <contour>
      <point x="368" y="183" type="line"/>
      <point x="368" y="125"/>
      <point x="336" y="91"/>
      <point x="275" y="91" type="curve" smooth="yes"/>
      <point x="219" y="91" type="line" smooth="yes"/>
      <point x="162" y="91"/>
      <point x="135" y="121"/>
      <point x="135" y="178" type="curve" smooth="yes"/>
      <point x="135" y="359" type="line" smooth="yes"/>
      <point x="135" y="415"/>
      <point x="162" y="446"/>
      <point x="219" y="446" type="curve" smooth="yes"/>
      <point x="358" y="446" type="line" smooth="yes"/>
      <point x="365" y="446"/>
      <point x="368" y="443"/>
      <point x="368" y="437" type="curve" smooth="yes"/>
    </contour>
    <contour>
      <point x="262" y="27" type="line"/>
      <point x="313" y="27"/>
      <point x="349" y="49"/>
      <point x="364" y="80" type="curve"/>
      <point x="368" y="80" type="line"/>
      <point x="368" y="3" type="line" smooth="yes"/>
      <point x="368" y="-53"/>
      <point x="341" y="-83"/>
      <point x="284" y="-83" type="curve" smooth="yes"/>
      <point x="109" y="-83" type="line" smooth="yes"/>
      <point x="98" y="-83"/>
      <point x="94" y="-88"/>
      <point x="94" y="-97" type="curve" smooth="yes"/>
      <point x="94" y="-134" type="line" smooth="yes"/>
      <point x="94" y="-144"/>
      <point x="98" y="-148"/>
      <point x="109" y="-148" type="curve" smooth="yes"/>
      <point x="293" y="-148" type="line" smooth="yes"/>
      <point x="385" y="-148"/>
      <point x="441" y="-92"/>
      <point x="441" y="0" type="curve" smooth="yes"/>
      <point x="441" y="496" type="line" smooth="yes"/>
      <point x="441" y="507"/>
      <point x="436" y="510"/>
      <point x="427" y="510" type="curve" smooth="yes"/>
      <point x="210" y="510" type="line" smooth="yes"/>
      <point x="118" y="510"/>
      <point x="62" y="455"/>
      <point x="62" y="362" type="curve" smooth="yes"/>
      <point x="62" y="175" type="line" smooth="yes"/>
      <point x="62" y="82"/>
      <point x="115" y="27"/>
      <point x="206" y="27" type="curve" smooth="yes"/>
    </contour>
  </outline>
</glyph>
<glyph name="h" format="1">
  <advance width="512"/>
  <unicode hex="0068"/>
  <outline>
    <contour>
      <point x="128" y="0" type="line"/>
      <point x="137" y="0"/>
      <point x="142" y="3"/>
      <point x="142" y="14" type="curve" smooth="yes"/>
      <point x="142" y="354" type="line" smooth="yes"/>
      <point x="142" y="412"/>
      <point x="174" y="446"/>
      <point x="235" y="446" type="curve" smooth="yes"/>
      <point x="291" y="446" type="line" smooth="yes"/>
      <point x="347" y="446"/>
      <point x="375" y="415"/>
      <point x="375" y="359" type="curve" smooth="yes"/>
      <point x="375" y="14" type="line" smooth="yes"/>
      <point x="375" y="3"/>
      <point x="380" y="0"/>
      <point x="389" y="0" type="curve" smooth="yes"/>
      <point x="434" y="0" type="line" smooth="yes"/>
      <point x="443" y="0"/>
      <point x="448" y="3"/>
      <point x="448" y="14" type="curve" smooth="yes"/>
      <point x="448" y="362" type="line" smooth="yes"/>
      <point x="448" y="455"/>
      <point x="395" y="510"/>
      <point x="304" y="510" type="curve" smooth="yes"/>
      <point x="248" y="510" type="line" smooth="yes"/>
      <point x="195" y="510"/>
      <point x="161" y="489"/>
      <point x="146" y="457" type="curve"/>
      <point x="142" y="457" type="line"/>
      <point x="142" y="689" type="line" smooth="yes"/>
      <point x="142" y="700"/>
      <point x="137" y="703"/>
      <point x="128" y="703" type="curve" smooth="yes"/>
      <point x="83" y="703" type="line" smooth="yes"/>
      <point x="74" y="703"/>
      <point x="69" y="700"/>
      <point x="69" y="689" type="curve" smooth="yes"/>
      <point x="69" y="14" type="line" smooth="yes"/>
      <point x="69" y="3"/>
      <point x="74" y="0"/>
      <point x="83" y="0" type="curve" smooth="yes"/>
    </contour>
  </outline>
</glyph>
<glyph name="i" format="1">
  <advance width="221"/>
  <unicode hex="0069"/>
  <outline>
    <contour>
      <point x="74" y="14" type="line"/>
      <point x="74" y="3"/>
      <point x="79" y="0"/>
      <point x="88" y="0" type="curve" smooth="yes"/>
      <point x="133" y="0" type="line" smooth="yes"/>
      <point x="143" y="0"/>
      <point x="147" y="3"/>
      <point x="147" y="14" type="curve" smooth="yes"/>
      <point x="147" y="496" type="line" smooth="yes"/>
      <point x="147" y="507"/>
      <point x="142" y="510"/>
      <point x="133" y="510" type="curve" smooth="yes"/>
      <point x="87" y="510" type="line" smooth="yes"/>
      <point x="78" y="510"/>
      <point x="74" y="507"/>
      <point x="74" y="496" type="curve" smooth="yes"/>
    </contour>
    <contour>
      <point x="74" y="594" type="line"/>
      <point x="74" y="585"/>
      <point x="78" y="580"/>
      <point x="87" y="580" type="curve" smooth="yes"/>
      <point x="133" y="580" type="line" smooth="yes"/>
      <point x="142" y="580"/>
      <point x="147" y="585"/>
      <point x="147" y="594" type="curve" smooth="yes"/>
      <point x="147" y="688" type="line" smooth="yes"/>
      <point x="147" y="698"/>
      <point x="142" y="702"/>
      <point x="133" y="702" type="curve" smooth="yes"/>
      <point x="87" y="702" type="line" smooth="yes"/>
      <point x="78" y="702"/>
      <point x="74" y="698"/>
      <point x="74" y="688" type="curve" smooth="yes"/>
    </contour>
  </outline>
</glyph>
<glyph name="j" format="1">
  <advance width="221"/>
  <unicode hex="006A"/>
  <outline>
    <contour>
      <point x="-1" y="-148" type="line"/>
      <point x="90" y="-148"/>
      <point x="147" y="-92"/>
      <point x="147" y="1" type="curve" smooth="yes"/>
      <point x="147" y="496" type="line" smooth="yes"/>
      <point x="147" y="507"/>
      <point x="142" y="510"/>
      <point x="133" y="510" type="curve" smooth="yes"/>
      <point x="88" y="510" type="line" smooth="yes"/>
      <point x="79" y="510"/>
      <point x="74" y="507"/>
      <point x="74" y="496" type="curve" smooth="yes"/>
      <point x="74" y="11" type="line" smooth="yes"/>
      <point x="74" y="-53"/>
      <point x="45" y="-83"/>
      <point x="-19" y="-83" type="curve" smooth="yes"/>
      <point x="-42" y="-83" type="line" smooth="yes"/>
      <point x="-53" y="-83"/>
      <point x="-56" y="-88"/>
      <point x="-56" y="-97" type="curve" smooth="yes"/>
      <point x="-56" y="-134" type="line" smooth="yes"/>
      <point x="-56" y="-143"/>
      <point x="-53" y="-148"/>
      <point x="-42" y="-148" type="curve" smooth="yes"/>
    </contour>
    <contour>
      <point x="74" y="594" type="line"/>
      <point x="74" y="585"/>
      <point x="78" y="580"/>
      <point x="87" y="580" type="curve" smooth="yes"/>
      <point x="133" y="580" type="line" smooth="yes"/>
      <point x="142" y="580"/>
      <point x="147" y="585"/>
      <point x="147" y="594" type="curve" smooth="yes"/>
      <point x="147" y="688" type="line" smooth="yes"/>
      <point x="147" y="698"/>
      <point x="142" y="702"/>
      <point x="133" y="702" type="curve" smooth="yes"/>
      <point x="87" y="702" type="line" smooth="yes"/>
      <point x="78" y="702"/>
      <point x="74" y="698"/>
      <point x="74" y="688" type="curve" smooth="yes"/>
    </contour>
  </outline>
</glyph>
<glyph name="k" format="1">
  <advance width="443"/>
  <unicode hex="006B"/>
  <outline>
    <contour>
      <point x="192" y="273" type="line"/>
      <point x="189" y="267"/>
      <point x="189" y="257"/>
      <point x="192" y="252" type="curve" smooth="yes"/>
      <point x="346" y="14" type="line" smooth="yes"/>
      <point x="354" y="2"/>
      <point x="361" y="0"/>
      <point x="374" y="0" type="curve" smooth="yes"/>
      <point x="421" y="0" type="line" smooth="yes"/>
      <point x="432" y="0"/>
      <point x="437" y="7"/>
      <point x="431" y="16" type="curve" smooth="yes"/>
      <point x="269" y="262" type="line"/>
      <point x="269" y="266" type="line"/>
      <point x="416" y="494" type="line" smooth="yes"/>
      <point x="423" y="503"/>
      <point x="418" y="510"/>
      <point x="408" y="510" type="curve" smooth="yes"/>
      <point x="358" y="510" type="line" smooth="yes"/>
      <point x="347" y="510"/>
      <point x="339" y="507"/>
      <point x="334" y="497" type="curve" smooth="yes"/>
    </contour>
    <contour>
      <point x="128" y="0" type="line"/>
      <point x="137" y="0"/>
      <point x="142" y="3"/>
      <point x="142" y="14" type="curve" smooth="yes"/>
      <point x="142" y="159"/>
      <point x="142" y="544"/>
      <point x="142" y="689" type="curve" smooth="yes"/>
      <point x="142" y="700"/>
      <point x="137" y="703"/>
      <point x="128" y="703" type="curve" smooth="yes"/>
      <point x="83" y="703" type="line" smooth="yes"/>
      <point x="74" y="703"/>
      <point x="69" y="700"/>
      <point x="69" y="689" type="curve" smooth="yes"/>
      <point x="69" y="14" type="line" smooth="yes"/>
      <point x="69" y="3"/>
      <point x="74" y="0"/>
      <point x="83" y="0" type="curve" smooth="yes"/>
    </contour>
  </outline>
</glyph>
<glyph name="l" format="1">
  <advance width="221"/>
  <unicode hex="006C"/>
  <outline>
    <contour>
      <point x="133" y="0" type="line"/>
      <point x="142" y="0"/>
      <point x="147" y="3"/>
      <point x="147" y="14" type="curve" smooth="yes"/>
      <point x="147" y="689" type="line" smooth="yes"/>
      <point x="147" y="700"/>
      <point x="142" y="703"/>
      <point x="133" y="703" type="curve" smooth="yes"/>
      <point x="88" y="703" type="line" smooth="yes"/>
      <point x="79" y="703"/>
      <point x="74" y="700"/>
      <point x="74" y="689" type="curve" smooth="yes"/>
      <point x="74" y="14" type="line" smooth="yes"/>
      <point x="74" y="3"/>
      <point x="79" y="0"/>
      <point x="88" y="0" type="curve" smooth="yes"/>
    </contour>
  </outline>
</glyph>
<glyph name="m" format="1">
  <advance width="777"/>
  <unicode hex="006D"/>
  <outline>
    <contour>
      <point x="128" y="0" type="line"/>
      <point x="137" y="0"/>
      <point x="142" y="3"/>
      <point x="142" y="14" type="curve" smooth="yes"/>
      <point x="142" y="354" type="line" smooth="yes"/>
      <point x="142" y="412"/>
      <point x="174" y="446"/>
      <point x="235" y="446" type="curve" smooth="yes"/>
      <point x="272" y="446" type="line" smooth="yes"/>
      <point x="328" y="446"/>
      <point x="356" y="415"/>
      <point x="356" y="359" type="curve" smooth="yes"/>
      <point x="356" y="14" type="line" smooth="yes"/>
      <point x="356" y="3"/>
      <point x="361" y="0"/>
      <point x="370" y="0" type="curve" smooth="yes"/>
      <point x="415" y="0" type="line" smooth="yes"/>
      <point x="424" y="0"/>
      <point x="429" y="3"/>
      <point x="429" y="14" type="curve" smooth="yes"/>
      <point x="429" y="351" type="line" smooth="yes"/>
      <point x="429" y="408"/>
      <point x="461" y="446"/>
      <point x="523" y="446" type="curve" smooth="yes"/>
      <point x="556" y="446" type="line" smooth="yes"/>
      <point x="613" y="446"/>
      <point x="640" y="415"/>
      <point x="640" y="359" type="curve" smooth="yes"/>
      <point x="640" y="14" type="line" smooth="yes"/>
      <point x="640" y="3"/>
      <point x="645" y="0"/>
      <point x="654" y="0" type="curve" smooth="yes"/>
      <point x="699" y="0" type="line" smooth="yes"/>
      <point x="708" y="0"/>
      <point x="713" y="3"/>
      <point x="713" y="14" type="curve" smooth="yes"/>
      <point x="713" y="362" type="line" smooth="yes"/>
      <point x="713" y="455"/>
      <point x="660" y="510"/>
      <point x="569" y="510" type="curve" smooth="yes"/>
      <point x="534" y="510" type="line" smooth="yes"/>
      <point x="488" y="510"/>
      <point x="433" y="489"/>
      <point x="411" y="442" type="curve"/>
      <point x="389" y="486"/>
      <point x="348" y="510"/>
      <point x="289" y="510" type="curve" smooth="yes"/>
      <point x="252" y="510" type="line" smooth="yes"/>
      <point x="194" y="510"/>
      <point x="161" y="485"/>
      <point x="146" y="457" type="curve"/>
      <point x="142" y="457" type="line"/>
      <point x="142" y="496" type="line" smooth="yes"/>
      <point x="142" y="507"/>
      <point x="137" y="510"/>
      <point x="128" y="510" type="curve" smooth="yes"/>
      <point x="83" y="510" type="line" smooth="yes"/>
      <point x="74" y="510"/>
      <point x="69" y="507"/>
      <point x="69" y="496" type="curve" smooth="yes"/>
      <point x="69" y="14" type="line" smooth="yes"/>
      <point x="69" y="3"/>
      <point x="74" y="0"/>
      <point x="83" y="0" type="curve" smooth="yes"/>
    </contour>
  </outline>
</glyph>
<glyph name="p" format="1">
  <advance width="510"/>
  <unicode hex="0070"/>
  <outline>
    <contour>
      <point x="235" y="64" type="line"/>
      <point x="174" y="64"/>
      <point x="142" y="98"/>
      <point x="142" y="156" type="curve" smooth="yes"/>
      <point x="142" y="354" type="line" smooth="yes"/>
      <point x="142" y="412"/>
      <point x="174" y="446"/>
      <point x="235" y="446" type="curve" smooth="yes"/>
      <point x="294" y="446" type="line" smooth="yes"/>
      <point x="351" y="446"/>
      <point x="379" y="415"/>
      <point x="379" y="359" type="curve" smooth="yes"/>
      <point x="379" y="151" type="line" smooth="yes"/>
      <point x="379" y="95"/>
      <point x="351" y="64"/>
      <point x="294" y="64" type="curve" smooth="yes"/>
    </contour>
    <contour>
      <point x="128" y="-146" type="line"/>
      <point x="137" y="-146"/>
      <point x="142" y="-142"/>
      <point x="142" y="-132" type="curve" smooth="yes"/>
      <point x="142" y="53" type="line"/>
      <point x="146" y="53" type="line"/>
      <point x="161" y="21"/>
      <point x="197" y="0"/>
      <point x="248" y="0" type="curve" smooth="yes"/>
      <point x="308" y="0" type="line" smooth="yes"/>
      <point x="399" y="0"/>
      <point x="451" y="55"/>
      <point x="451" y="148" type="curve" smooth="yes"/>
      <point x="451" y="362" type="line" smooth="yes"/>
      <point x="451" y="455"/>
      <point x="399" y="510"/>
      <point x="308" y="510" type="curve" smooth="yes"/>
      <point x="248" y="510" type="line" smooth="yes"/>
      <point x="197" y="510"/>
      <point x="161" y="489"/>
      <point x="146" y="457" type="curve"/>
      <point x="142" y="457" type="line"/>
      <point x="142" y="496" type="line" smooth="yes"/>
      <point x="142" y="507"/>
      <point x="137" y="510"/>
      <point x="128" y="510" type="curve" smooth="yes"/>
      <point x="83" y="510" type="line" smooth="yes"/>
      <point x="74" y="510"/>
      <point x="69" y="507"/>
      <point x="69" y="496" type="curve" smooth="yes"/>
      <point x="69" y="-132" type="line" smooth="yes"/>
      <point x="69" y="-142"/>
      <point x="74" y="-146"/>
      <point x="83" y="-146" type="curve" smooth="yes"/>
    </contour>
  </outline>
</glyph>
<glyph name="q" format="1">
  <advance width="507"/>
  <unicode hex="0071"/>
  <outline>
    <contour>
      <point x="256" y="0" type="line"/>
      <point x="290" y="0"/>
      <point x="335" y="5"/>
      <point x="361" y="54" type="curve"/>
      <point x="365" y="54" type="line"/>
      <point x="365" y="-132" type="line" smooth="yes"/>
      <point x="365" y="-142"/>
      <point x="370" y="-146"/>
      <point x="379" y="-146" type="curve" smooth="yes"/>
      <point x="424" y="-146" type="line" smooth="yes"/>
      <point x="433" y="-146"/>
      <point x="438" y="-142"/>
      <point x="438" y="-132" type="curve" smooth="yes"/>
      <point x="438" y="496" type="line" smooth="yes"/>
      <point x="438" y="507"/>
      <point x="433" y="510"/>
      <point x="424" y="510" type="curve" smooth="yes"/>
      <point x="207" y="510" type="line" smooth="yes"/>
      <point x="115" y="510"/>
      <point x="59" y="455"/>
      <point x="59" y="362" type="curve" smooth="yes"/>
      <point x="59" y="148" type="line" smooth="yes"/>
      <point x="59" y="55"/>
      <point x="115" y="0"/>
      <point x="207" y="0" type="curve" smooth="yes"/>
    </contour>
    <contour>
      <point x="365" y="159" type="line"/>
      <point x="365" y="102"/>
      <point x="333" y="64"/>
      <point x="270" y="64" type="curve" smooth="yes"/>
      <point x="215" y="64" type="line" smooth="yes"/>
      <point x="159" y="64"/>
      <point x="132" y="95"/>
      <point x="132" y="151" type="curve" smooth="yes"/>
      <point x="132" y="359" type="line" smooth="yes"/>
      <point x="132" y="415"/>
      <point x="159" y="446"/>
      <point x="215" y="446" type="curve" smooth="yes"/>
      <point x="355" y="446" type="line" smooth="yes"/>
      <point x="362" y="446"/>
      <point x="365" y="443"/>
      <point x="365" y="437" type="curve" smooth="yes"/>
    </contour>
  </outline>
</glyph>
<glyph name="r" format="1">
  <advance width="323"/>
  <unicode hex="0072"/>
  <outline>
    <contour>
      <point x="128" y="0" type="line"/>
      <point x="137" y="0"/>
      <point x="142" y="3"/>
      <point x="142" y="14" type="curve" smooth="yes"/>
      <point x="142" y="345" type="line" smooth="yes"/>
      <point x="142" y="406"/>
      <point x="174" y="446"/>
      <point x="235" y="446" type="curve" smooth="yes"/>
      <point x="289" y="446" type="line" smooth="yes"/>
      <point x="299" y="445"/>
      <point x="302" y="450"/>
      <point x="302" y="459" type="curve" smooth="yes"/>
      <point x="302" y="496" type="line" smooth="yes"/>
      <point x="302" y="505"/>
      <point x="299" y="510"/>
      <point x="289" y="510" type="curve" smooth="yes"/>
      <point x="250" y="510" type="line" smooth="yes"/>
      <point x="197" y="510"/>
      <point x="158" y="483"/>
      <point x="146" y="456" type="curve"/>
      <point x="142" y="456" type="line"/>
      <point x="142" y="496" type="line" smooth="yes"/>
      <point x="142" y="507"/>
      <point x="137" y="510"/>
      <point x="128" y="510" type="curve" smooth="yes"/>
      <point x="83" y="510" type="line" smooth="yes"/>
      <point x="74" y="510"/>
      <point x="69" y="507"/>
      <point x="69" y="496" type="curve" smooth="yes"/>
      <point x="69" y="14" type="line" smooth="yes"/>
      <point x="69" y="3"/>
      <point x="74" y="0"/>
      <point x="83" y="0" type="curve" smooth="yes"/>
    </contour>
  </outline>
</glyph>
<glyph name="s" format="1">
  <advance width="433"/>
  <unicode hex="0073"/>
  <outline>
    <contour>
      <point x="242" y="0" type="line"/>
      <point x="339" y="0"/>
      <point x="385" y="39"/>
      <point x="385" y="126" type="curve" smooth="yes"/>
      <point x="385" y="189"/>
      <point x="370" y="235"/>
      <point x="296" y="264" type="curve"/>
      <point x="178" y="317" type="line" smooth="yes"/>
      <point x="144" y="330"/>
      <point x="121" y="347"/>
      <point x="121" y="381" type="curve" smooth="yes"/>
      <point x="121" y="398" type="line" smooth="yes"/>
      <point x="121" y="422"/>
      <point x="142" y="448"/>
      <point x="194" y="448" type="curve" smooth="yes"/>
      <point x="345" y="448" type="line" smooth="yes"/>
      <point x="356" y="448"/>
      <point x="359" y="452"/>
      <point x="359" y="461" type="curve" smooth="yes"/>
      <point x="359" y="496" type="line" smooth="yes"/>
      <point x="359" y="505"/>
      <point x="355" y="510"/>
      <point x="345" y="510" type="curve" smooth="yes"/>
      <point x="181" y="510" type="line" smooth="yes"/>
      <point x="86" y="510"/>
      <point x="46" y="466"/>
      <point x="46" y="387" type="curve" smooth="yes"/>
      <point x="46" y="323"/>
      <point x="74" y="290"/>
      <point x="141" y="262" type="curve" smooth="yes"/>
      <point x="259" y="212" type="line" smooth="yes"/>
      <point x="297" y="197"/>
      <point x="310" y="171"/>
      <point x="310" y="139" type="curve" smooth="yes"/>
      <point x="310" y="120" type="line" smooth="yes"/>
      <point x="310" y="80"/>
      <point x="283" y="62"/>
      <point x="232" y="62" type="curve" smooth="yes"/>
      <point x="64" y="62" type="line" smooth="yes"/>
      <point x="53" y="62"/>
      <point x="50" y="58"/>
      <point x="50" y="49" type="curve" smooth="yes"/>
      <point x="50" y="14" type="line" smooth="yes"/>
      <point x="50" y="5"/>
      <point x="53" y="0"/>
      <point x="64" y="0" type="curve" smooth="yes"/>
    </contour>
  </outline>
</glyph>
<glyph name="u" format="1">
  <advance width="512"/>
  <unicode hex="0075"/>
  <outline>
    <contour>
      <point x="264" y="0" type="line"/>
      <point x="315" y="0"/>
      <point x="351" y="21"/>
      <point x="366" y="53" type="curve"/>
      <point x="370" y="53" type="line"/>
      <point x="370" y="14" type="line" smooth="yes"/>
      <point x="370" y="3"/>
      <point x="375" y="0"/>
      <point x="384" y="0" type="curve" smooth="yes"/>
      <point x="429" y="0" type="line" smooth="yes"/>
      <point x="438" y="0"/>
      <point x="443" y="3"/>
      <point x="443" y="14" type="curve" smooth="yes"/>
      <point x="443" y="496" type="line" smooth="yes"/>
      <point x="443" y="507"/>
      <point x="438" y="510"/>
      <point x="429" y="510" type="curve" smooth="yes"/>
      <point x="384" y="510" type="line" smooth="yes"/>
      <point x="375" y="510"/>
      <point x="370" y="507"/>
      <point x="370" y="496" type="curve" smooth="yes"/>
      <point x="370" y="156" type="line" smooth="yes"/>
      <point x="370" y="98"/>
      <point x="338" y="64"/>
      <point x="277" y="64" type="curve" smooth="yes"/>
      <point x="220" y="64" type="line" smooth="yes"/>
      <point x="164" y="64"/>
      <point x="137" y="95"/>
      <point x="137" y="151" type="curve" smooth="yes"/>
      <point x="137" y="496" type="line" smooth="yes"/>
      <point x="137" y="507"/>
      <point x="132" y="510"/>
      <point x="123" y="510" type="curve" smooth="yes"/>
      <point x="78" y="510" type="line" smooth="yes"/>
      <point x="69" y="510"/>
      <point x="64" y="507"/>
      <point x="64" y="496" type="curve" smooth="yes"/>
      <point x="64" y="148" type="line" smooth="yes"/>
      <point x="64" y="55"/>
      <point x="117" y="0"/>
      <point x="208" y="0" type="curve" smooth="yes"/>
    </contour>
  </outline>
</glyph>
<glyph name="v" format="1">
  <advance width="431"/>
  <unicode hex="0076"/>
  <outline>
    <contour>
      <point x="163" y="15" type="line"/>
      <point x="166" y="4"/>
      <point x="172" y="0"/>
      <point x="181" y="0" type="curve" smooth="yes"/>
      <point x="249" y="0" type="line" smooth="yes"/>
      <point x="259" y="0"/>
      <point x="265" y="4"/>
      <point x="267" y="15" type="curve" smooth="yes"/>
      <point x="411" y="496" type="line" smooth="yes"/>
      <point x="414" y="506"/>
      <point x="410" y="510"/>
      <point x="401" y="510" type="curve" smooth="yes"/>
      <point x="354" y="510" type="line" smooth="yes"/>
      <point x="344" y="510"/>
      <point x="340" y="507"/>
      <point x="337" y="496" type="curve" smooth="yes"/>
      <point x="218" y="73" type="line"/>
      <point x="213" y="73" type="line"/>
      <point x="93" y="496" type="line" smooth="yes"/>
      <point x="91" y="507"/>
      <point x="86" y="510"/>
      <point x="77" y="510" type="curve" smooth="yes"/>
      <point x="30" y="510" type="line" smooth="yes"/>
      <point x="21" y="510"/>
      <point x="17" y="506"/>
      <point x="20" y="496" type="curve" smooth="yes"/>
    </contour>
  </outline>
</glyph>
<glyph name="w" format="1">
  <advance width="686"/>
  <unicode hex="0077"/>
  <outline>
    <contour>
      <point x="227" y="0" type="line"/>
      <point x="237" y="0"/>
      <point x="242" y="4"/>
      <point x="244" y="14" type="curve" smooth="yes"/>
      <point x="340" y="412" type="line"/>
      <point x="345" y="412" type="line"/>
      <point x="442" y="14" type="line" smooth="yes"/>
      <point x="444" y="3"/>
      <point x="448" y="0"/>
      <point x="458" y="0" type="curve" smooth="yes"/>
      <point x="520" y="0" type="line" smooth="yes"/>
      <point x="530" y="0"/>
      <point x="535" y="3"/>
      <point x="537" y="14" type="curve" smooth="yes"/>
      <point x="665" y="496" type="line" smooth="yes"/>
      <point x="667" y="505"/>
      <point x="664" y="510"/>
      <point x="655" y="510" type="curve" smooth="yes"/>
      <point x="604" y="510" type="line" smooth="yes"/>
      <point x="595" y="510"/>
      <point x="590" y="507"/>
      <point x="588" y="496" type="curve" smooth="yes"/>
      <point x="490" y="88" type="line"/>
      <point x="484" y="88" type="line"/>
      <point x="384" y="496" type="line" smooth="yes"/>
      <point x="381" y="507"/>
      <point x="375" y="510"/>
      <point x="366" y="510" type="curve" smooth="yes"/>
      <point x="320" y="510" type="line" smooth="yes"/>
      <point x="311" y="510"/>
      <point x="306" y="507"/>
      <point x="304" y="496" type="curve" smooth="yes"/>
      <point x="201" y="88" type="line"/>
      <point x="195" y="88" type="line"/>
      <point x="98" y="496" type="line" smooth="yes"/>
      <point x="96" y="507"/>
      <point x="91" y="510"/>
      <point x="82" y="510" type="curve" smooth="yes"/>
      <point x="31" y="510" type="line" smooth="yes"/>
      <point x="22" y="510"/>
      <point x="19" y="506"/>
      <point x="21" y="496" type="curve" smooth="yes"/>
      <point x="149" y="14" type="line" smooth="yes"/>
      <point x="151" y="4"/>
      <point x="156" y="0"/>
      <point x="166" y="0" type="curve" smooth="yes"/>
    </contour>
  </outline>
</glyph>
<glyph name="x" format="1">
  <advance width="427"/>
  <unicode hex="0078"/>
  <outline>
    <contour>
      <point x="89" y="0" type="line"/>
      <point x="98" y="0"/>
      <point x="104" y="3"/>
      <point x="109" y="14" type="curve"/>
      <point x="212" y="211" type="line"/>
      <point x="216" y="211" type="line"/>
      <point x="319" y="14" type="line"/>
      <point x="325" y="3"/>
      <point x="329" y="0"/>
      <point x="338" y="0" type="curve" smooth="yes"/>
      <point x="396" y="0" type="line" smooth="yes"/>
      <point x="405" y="0"/>
      <point x="409" y="5"/>
      <point x="403" y="14" type="curve"/>
      <point x="261" y="261" type="line"/>
      <point x="392" y="496" type="line"/>
      <point x="399" y="506"/>
      <point x="394" y="510"/>
      <point x="385" y="510" type="curve" smooth="yes"/>
      <point x="330" y="510" type="line" smooth="yes"/>
      <point x="321" y="510"/>
      <point x="315" y="508"/>
      <point x="309" y="496" type="curve"/>
      <point x="216" y="307" type="line"/>
      <point x="212" y="307" type="line"/>
      <point x="114" y="496" type="line"/>
      <point x="108" y="507"/>
      <point x="102" y="510"/>
      <point x="93" y="510" type="curve" smooth="yes"/>
      <point x="37" y="510" type="line" smooth="yes"/>
      <point x="29" y="510"/>
      <point x="24" y="506"/>
      <point x="30" y="496" type="curve"/>
      <point x="165" y="260" type="line"/>
      <point x="25" y="14" type="line" smooth="yes"/>
      <point x="19" y="4"/>
      <point x="24" y="0"/>
      <point x="33" y="0" type="curve" smooth="yes"/>
    </contour>
  </outline>
</glyph>
<glyph name="y" format="1">
  <advance width="463"/>
  <unicode hex="0079"/>
  <outline>
    <contour>
      <point x="110" y="-157" type="line"/>
      <point x="222" y="-157"/>
      <point x="260" y="-74"/>
      <point x="288" y="20" type="curve"/>
      <point x="437" y="495" type="line" smooth="yes"/>
      <point x="440" y="505"/>
      <point x="435" y="510"/>
      <point x="425" y="510" type="curve" smooth="yes"/>
      <point x="379" y="510" type="line" smooth="yes"/>
      <point x="371" y="510"/>
      <point x="365" y="506"/>
      <point x="363" y="496" type="curve" smooth="yes"/>
      <point x="234" y="84" type="line"/>
      <point x="230" y="84" type="line"/>
      <point x="101" y="496" type="line" smooth="yes"/>
      <point x="98" y="507"/>
      <point x="93" y="510"/>
      <point x="84" y="510" type="curve" smooth="yes"/>
      <point x="36" y="510" type="line" smooth="yes"/>
      <point x="27" y="510"/>
      <point x="23" y="506"/>
      <point x="26" y="496" type="curve" smooth="yes"/>
      <point x="173" y="41" type="line" smooth="yes"/>
      <point x="176" y="32"/>
      <point x="180" y="27"/>
      <point x="190" y="27" type="curve" smooth="yes"/>
      <point x="219" y="27" type="line"/>
      <point x="198" y="-38"/>
      <point x="179" y="-92"/>
      <point x="91" y="-92" type="curve" smooth="yes"/>
      <point x="66" y="-92" type="line" smooth="yes"/>
      <point x="55" y="-92"/>
      <point x="52" y="-97"/>
      <point x="52" y="-106" type="curve" smooth="yes"/>
      <point x="52" y="-143" type="line" smooth="yes"/>
      <point x="52" y="-151"/>
      <point x="55" y="-157"/>
      <point x="66" y="-157" type="curve" smooth="yes"/>
    </contour>
  </outline>
</glyph>
<glyph name="z" format="1">
  <advance width="418"/>
  <unicode hex="007A"/>
  <outline>
    <contour>
      <point x="33" y="14" type="line"/>
      <point x="33" y="5"/>
      <point x="37" y="0"/>
      <point x="48" y="0" type="curve" smooth="yes"/>
      <point x="371" y="0" type="line" smooth="yes"/>
      <point x="381" y="0"/>
      <point x="385" y="5"/>
      <point x="385" y="14" type="curve" smooth="yes"/>
      <point x="385" y="49" type="line" smooth="yes"/>
      <point x="385" y="58"/>
      <point x="381" y="64"/>
      <point x="371" y="64" type="curve" smooth="yes"/>
      <point x="129" y="64" type="line"/>
      <point x="129" y="68" type="line"/>
      <point x="368" y="436" type="line" smooth="yes"/>
      <point x="374" y="442"/>
      <point x="377" y="448"/>
      <point x="377" y="463" type="curve" smooth="yes"/>
      <point x="377" y="496" type="line" smooth="yes"/>
      <point x="377" y="505"/>
      <point x="373" y="510"/>
      <point x="362" y="510" type="curve" smooth="yes"/>
      <point x="55" y="510" type="line" smooth="yes"/>
      <point x="44" y="510"/>
      <point x="41" y="505"/>
      <point x="41" y="496" type="curve" smooth="yes"/>
      <point x="41" y="461" type="line" smooth="yes"/>
      <point x="41" y="452"/>
      <point x="44" y="446"/>
      <point x="55" y="446" type="curve" smooth="yes"/>
      <point x="290" y="446" type="line"/>
      <point x="290" y="442" type="line"/>
      <point x="43" y="64" type="line" smooth="yes"/>
      <point x="37" y="56"/>
      <point x="33" y="50"/>
      <point x="33" y="33" type="curve" smooth="yes"/>
    </contour>
  </outline>
</glyph>
<glyph name="braceleft" format="1">
  <advance width="303"/>
  <unicode hex="007B"/>
  <outline>
    <contour>
      <point x="227" y="643" type="line"/>
      <point x="142" y="643"/>
      <point x="103" y="588"/>
      <point x="103" y="495" type="curve" smooth="yes"/>
      <point x="103" y="372" type="line" smooth="yes"/>
      <point x="103" y="320"/>
      <point x="83" y="302"/>
      <point x="47" y="302" type="curve" smooth="yes"/>
      <point x="36" y="302"/>
      <point x="33" y="297"/>
      <point x="33" y="288" type="curve" smooth="yes"/>
      <point x="33" y="252" type="line" smooth="yes"/>
      <point x="33" y="243"/>
      <point x="36" y="238"/>
      <point x="47" y="238" type="curve" smooth="yes"/>
      <point x="83" y="238"/>
      <point x="103" y="220"/>
      <point x="103" y="169" type="curve" smooth="yes"/>
      <point x="103" y="46" type="line" smooth="yes"/>
      <point x="103" y="-47"/>
      <point x="142" y="-102"/>
      <point x="227" y="-102" type="curve" smooth="yes"/>
      <point x="232" y="-102" type="line" smooth="yes"/>
      <point x="243" y="-102"/>
      <point x="246" y="-97"/>
      <point x="246" y="-88" type="curve" smooth="yes"/>
      <point x="246" y="-61" type="line" smooth="yes"/>
      <point x="246" y="-52"/>
      <point x="243" y="-47"/>
      <point x="232" y="-47" type="curve" smooth="yes"/>
      <point x="229" y="-47" type="line" smooth="yes"/>
      <point x="178" y="-47"/>
      <point x="164" y="-17"/>
      <point x="164" y="40" type="curve" smooth="yes"/>
      <point x="164" y="174" type="line" smooth="yes"/>
      <point x="164" y="224"/>
      <point x="145" y="259"/>
      <point x="107" y="270" type="curve"/>
      <point x="146" y="283"/>
      <point x="164" y="315"/>
      <point x="164" y="367" type="curve" smooth="yes"/>
      <point x="164" y="501" type="line" smooth="yes"/>
      <point x="164" y="558"/>
      <point x="178" y="588"/>
      <point x="229" y="588" type="curve" smooth="yes"/>
      <point x="232" y="588" type="line" smooth="yes"/>
      <point x="243" y="588"/>
      <point x="246" y="593"/>
      <point x="246" y="602" type="curve" smooth="yes"/>
      <point x="246" y="629" type="line" smooth="yes"/>
      <point x="246" y="638"/>
      <point x="243" y="643"/>
      <point x="232" y="643" type="curve" smooth="yes"/>
    </contour>
  </outline>
</glyph>
<glyph name="bar" format="1">
  <advance width="214"/>
  <unicode hex="007C"/>
  <outline>
    <contour>
      <point x="134" y="629" type="line"/>
      <point x="134" y="640"/>
      <point x="129" y="643"/>
      <point x="120" y="643" type="curve" smooth="yes"/>
      <point x="93" y="643" type="line" smooth="yes"/>
      <point x="84" y="643"/>
      <point x="80" y="640"/>
      <point x="80" y="629" type="curve" smooth="yes"/>
      <point x="80" y="14" type="line" smooth="yes"/>
      <point x="80" y="3"/>
      <point x="84" y="0"/>
      <point x="93" y="0" type="curve" smooth="yes"/>
      <point x="120" y="0" type="line" smooth="yes"/>
      <point x="129" y="0"/>
      <point x="134" y="3"/>
      <point x="134" y="14" type="curve" smooth="yes"/>
    </contour>
  </outline>
</glyph>
<glyph name="braceright" format="1">
  <advance width="303"/>
  <unicode hex="007D"/>
  <outline>
    <contour>
      <point x="176" y="495" type="line"/>
      <point x="176" y="588"/>
      <point x="137" y="643"/>
      <point x="52" y="643" type="curve" smooth="yes"/>
      <point x="47" y="643" type="line" smooth="yes"/>
      <point x="36" y="643"/>
      <point x="33" y="638"/>
      <point x="33" y="629" type="curve" smooth="yes"/>
      <point x="33" y="602" type="line" smooth="yes"/>
      <point x="33" y="593"/>
      <point x="36" y="588"/>
      <point x="47" y="588" type="curve" smooth="yes"/>
      <point x="50" y="588" type="line" smooth="yes"/>
      <point x="100" y="588"/>
      <point x="115" y="558"/>
      <point x="115" y="501" type="curve" smooth="yes"/>
      <point x="115" y="367" type="line" smooth="yes"/>
      <point x="115" y="315"/>
      <point x="133" y="283"/>
      <point x="172" y="270" type="curve"/>
      <point x="134" y="259"/>
      <point x="115" y="224"/>
      <point x="115" y="174" type="curve" smooth="yes"/>
      <point x="115" y="40" type="line" smooth="yes"/>
      <point x="115" y="-17"/>
      <point x="100" y="-47"/>
      <point x="50" y="-47" type="curve" smooth="yes"/>
      <point x="47" y="-47" type="line" smooth="yes"/>
      <point x="36" y="-47"/>
      <point x="33" y="-52"/>
      <point x="33" y="-61" type="curve" smooth="yes"/>
      <point x="33" y="-88" type="line" smooth="yes"/>
      <point x="33" y="-97"/>
      <point x="36" y="-102"/>
      <point x="47" y="-102" type="curve" smooth="yes"/>
      <point x="52" y="-102" type="line" smooth="yes"/>
      <point x="137" y="-102"/>
      <point x="176" y="-47"/>
      <point x="176" y="46" type="curve" smooth="yes"/>
      <point x="176" y="169" type="line" smooth="yes"/>
      <point x="176" y="220"/>
      <point x="196" y="238"/>
      <point x="232" y="238" type="curve" smooth="yes"/>
      <point x="243" y="238"/>
      <point x="246" y="243"/>
      <point x="246" y="252" type="curve" smooth="yes"/>
      <point x="246" y="288" type="line" smooth="yes"/>
      <point x="246" y="297"/>
      <point x="243" y="302"/>
      <point x="232" y="302" type="curve" smooth="yes"/>
      <point x="196" y="302"/>
      <point x="176" y="320"/>
      <point x="176" y="372" type="curve" smooth="yes"/>
    </contour>
  </outline>
</glyph>
<glyph name="asciitilde" format="1">
  <advance width="535"/>
  <unicode hex="007E"/>
  <outline>
    <contour>
      <point x="170" y="309" type="curve" smooth="yes"/>
      <point x="227" y="309"/>
      <point x="301" y="279"/>
      <point x="363" y="279" type="curve" smooth="yes"/>
      <point x="393" y="279"/>
      <point x="422" y="285"/>
      <point x="444" y="294" type="curve" smooth="yes"/>
      <point x="460" y="301"/>
      <point x="465" y="306"/>
      <point x="465" y="318" type="curve" smooth="yes"/>
      <point x="465" y="349" type="line" smooth="yes"/>
      <point x="465" y="356"/>
      <point x="461" y="361"/>
      <point x="455" y="361" type="curve" smooth="yes"/>
      <point x="442" y="361"/>
      <point x="410" y="336"/>
      <point x="365" y="336" type="curve" smooth="yes"/>
      <point x="302" y="336"/>
      <point x="234" y="367"/>
      <point x="172" y="367" type="curve" smooth="yes"/>
      <point x="142" y="367"/>
      <point x="113" y="361"/>
      <point x="91" y="352" type="curve" smooth="yes"/>
      <point x="76" y="345"/>
      <point x="70" y="340"/>
      <point x="70" y="327" type="curve" smooth="yes"/>
      <point x="70" y="297" type="line" smooth="yes"/>
      <point x="70" y="290"/>
      <point x="74" y="285"/>
      <point x="81" y="285" type="curve" smooth="yes"/>
      <point x="94" y="285"/>
      <point x="126" y="309"/>
    </contour>
  </outline>
</glyph>
<glyph name="exclamdown" format="1">
  <advance width="237"/>
  <unicode hex="00A1"/>
  <outline>
    <contour>
      <point x="105" y="296" type="line"/>
      <point x="96" y="296"/>
      <point x="92" y="291"/>
      <point x="91" y="281" type="curve" smooth="yes"/>
      <point x="89" y="267"/>
      <point x="78" y="105"/>
      <point x="78" y="-3" type="curve" smooth="yes"/>
      <point x="78" y="-118" type="line" smooth="yes"/>
      <point x="78" y="-129"/>
      <point x="83" y="-133"/>
      <point x="92" y="-133" type="curve" smooth="yes"/>
      <point x="145" y="-133" type="line" smooth="yes"/>
      <point x="154" y="-133"/>
      <point x="159" y="-129"/>
      <point x="159" y="-118" type="curve" smooth="yes"/>
      <point x="159" y="-3" type="line" smooth="yes"/>
      <point x="159" y="105"/>
      <point x="148" y="267"/>
      <point x="146" y="281" type="curve" smooth="yes"/>
      <point x="144" y="291"/>
      <point x="141" y="296"/>
      <point x="132" y="296" type="curve" smooth="yes"/>
    </contour>
    <contour>
      <point x="143" y="362" type="line"/>
      <point x="151" y="362"/>
      <point x="157" y="366"/>
      <point x="157" y="375" type="curve" smooth="yes"/>
      <point x="157" y="496" type="line" smooth="yes"/>
      <point x="157" y="506"/>
      <point x="152" y="510"/>
      <point x="143" y="510" type="curve" smooth="yes"/>
      <point x="95" y="510" type="line" smooth="yes"/>
      <point x="86" y="510"/>
      <point x="82" y="505"/>
      <point x="82" y="496" type="curve" smooth="yes"/>
      <point x="82" y="376" type="line" smooth="yes"/>
      <point x="82" y="366"/>
      <point x="86" y="362"/>
      <point x="95" y="362" type="curve" smooth="yes"/>
    </contour>
  </outline>
</glyph>
<glyph name="cent" format="1">
  <advance width="419"/>
  <unicode hex="00A2"/>
  <outline>
    <contour>
      <point x="276" y="-91" type="line"/>
      <point x="284" y="-91"/>
      <point x="289" y="-88"/>
      <point x="289" y="-78" type="curve" smooth="yes"/>
      <point x="289" y="0" type="line"/>
      <point x="367" y="0" type="line" smooth="yes"/>
      <point x="378" y="0"/>
      <point x="382" y="5"/>
      <point x="382" y="14" type="curve" smooth="yes"/>
      <point x="382" y="51" type="line" smooth="yes"/>
      <point x="382" y="59"/>
      <point x="378" y="64"/>
      <point x="367" y="64" type="curve" smooth="yes"/>
      <point x="215" y="64" type="line" smooth="yes"/>
      <point x="159" y="64"/>
      <point x="132" y="95"/>
      <point x="132" y="151" type="curve" smooth="yes"/>
      <point x="132" y="359" type="line" smooth="yes"/>
      <point x="132" y="415"/>
      <point x="159" y="446"/>
      <point x="215" y="446" type="curve" smooth="yes"/>
      <point x="367" y="446" type="line" smooth="yes"/>
      <point x="378" y="446"/>
      <point x="382" y="451"/>
      <point x="382" y="459" type="curve" smooth="yes"/>
      <point x="382" y="496" type="line" smooth="yes"/>
      <point x="382" y="505"/>
      <point x="370" y="510"/>
      <point x="360" y="510" type="curve" smooth="yes"/>
      <point x="289" y="510" type="line"/>
      <point x="289" y="598" type="line" smooth="yes"/>
      <point x="289" y="607"/>
      <point x="284" y="611"/>
      <point x="276" y="611" type="curve" smooth="yes"/>
      <point x="240" y="611" type="line" smooth="yes"/>
      <point x="232" y="611"/>
      <point x="227" y="607"/>
      <point x="227" y="597" type="curve" smooth="yes"/>
      <point x="227" y="510" type="line"/>
      <point x="201" y="510" type="line" smooth="yes"/>
      <point x="113" y="510"/>
      <point x="59" y="453"/>
      <point x="59" y="362" type="curve" smooth="yes"/>
      <point x="59" y="148" type="line" smooth="yes"/>
      <point x="59" y="57"/>
      <point x="113" y="0"/>
      <point x="201" y="0" type="curve" smooth="yes"/>
      <point x="227" y="0" type="line"/>
      <point x="227" y="-77" type="line" smooth="yes"/>
      <point x="227" y="-87"/>
      <point x="232" y="-91"/>
      <point x="240" y="-91" type="curve" smooth="yes"/>
    </contour>
  </outline>
</glyph>
<glyph name="sterling" format="1">
  <advance width="536"/>
  <unicode hex="00A3"/>
  <outline>
    <contour>
      <point x="140" y="61" type="line"/>
      <point x="140" y="61"/>
      <point x="140" y="65"/>
      <point x="140" y="65" type="curve"/>
      <point x="154" y="65"/>
      <point x="175" y="87"/>
      <point x="175" y="138" type="curve" smooth="yes"/>
      <point x="175" y="266" type="line"/>
      <point x="322" y="266" type="line" smooth="yes"/>
      <point x="333" y="266"/>
      <point x="336" y="271"/>
      <point x="336" y="281" type="curve" smooth="yes"/>
      <point x="336" y="314" type="line" smooth="yes"/>
      <point x="336" y="323"/>
      <point x="333" y="327"/>
      <point x="322" y="327" type="curve" smooth="yes"/>
      <point x="175" y="327" type="line"/>
      <point x="175" y="496" type="line" smooth="yes"/>
      <point x="175" y="552"/>
      <point x="204" y="581"/>
      <point x="261" y="581" type="curve" smooth="yes"/>
      <point x="307" y="581" type="line" smooth="yes"/>
      <point x="364" y="581"/>
      <point x="391" y="552"/>
      <point x="391" y="496" type="curve" smooth="yes"/>
      <point x="391" y="470" type="line" smooth="yes"/>
      <point x="391" y="459"/>
      <point x="396" y="456"/>
      <point x="405" y="456" type="curve" smooth="yes"/>
      <point x="450" y="456" type="line" smooth="yes"/>
      <point x="459" y="456"/>
      <point x="464" y="459"/>
      <point x="464" y="470" type="curve" smooth="yes"/>
      <point x="464" y="497" type="line" smooth="yes"/>
      <point x="464" y="590"/>
      <point x="408" y="643"/>
      <point x="317" y="643" type="curve" smooth="yes"/>
      <point x="252" y="643" type="line" smooth="yes"/>
      <point x="160" y="643"/>
      <point x="104" y="590"/>
      <point x="104" y="497" type="curve" smooth="yes"/>
      <point x="104" y="327" type="line"/>
      <point x="47" y="327" type="line" smooth="yes"/>
      <point x="36" y="327"/>
      <point x="33" y="323"/>
      <point x="33" y="314" type="curve" smooth="yes"/>
      <point x="33" y="281" type="line" smooth="yes"/>
      <point x="33" y="271"/>
      <point x="36" y="266"/>
      <point x="47" y="266" type="curve" smooth="yes"/>
      <point x="104" y="266" type="line"/>
      <point x="104" y="129" type="line" smooth="yes"/>
      <point x="104" y="89"/>
      <point x="82" y="61"/>
      <point x="57" y="61" type="curve" smooth="yes"/>
      <point x="47" y="61" type="line" smooth="yes"/>
      <point x="36" y="61"/>
      <point x="33" y="56"/>
      <point x="33" y="47" type="curve" smooth="yes"/>
      <point x="33" y="14" type="line" smooth="yes"/>
      <point x="33" y="5"/>
      <point x="36" y="0"/>
      <point x="47" y="0" type="curve" smooth="yes"/>
      <point x="456" y="0" type="line" smooth="yes"/>
      <point x="466" y="0"/>
      <point x="469" y="5"/>
      <point x="469" y="14" type="curve" smooth="yes"/>
      <point x="469" y="47" type="line" smooth="yes"/>
      <point x="469" y="56"/>
      <point x="466" y="61"/>
      <point x="456" y="61" type="curve" smooth="yes"/>
    </contour>
  </outline>
</glyph>
<glyph name="currency" format="1">
  <advance width="496"/>
  <unicode hex="00A4"/>
  <outline>
    <contour>
      <point x="226" y="197" type="line"/>
      <point x="170" y="197"/>
      <point x="142" y="227"/>
      <point x="142" y="284" type="curve" smooth="yes"/>
      <point x="142" y="345" type="line" smooth="yes"/>
      <point x="142" y="402"/>
      <point x="170" y="432"/>
      <point x="226" y="432" type="curve" smooth="yes"/>
      <point x="270" y="432" type="line" smooth="yes"/>
      <point x="327" y="432"/>
      <point x="355" y="402"/>
      <point x="355" y="345" type="curve" smooth="yes"/>
      <point x="355" y="284" type="line" smooth="yes"/>
      <point x="355" y="227"/>
      <point x="327" y="197"/>
      <point x="270" y="197" type="curve" smooth="yes"/>
    </contour>
    <contour>
      <point x="279" y="134" type="line"/>
      <point x="370" y="134"/>
      <point x="426" y="189"/>
      <point x="426" y="281" type="curve" smooth="yes"/>
      <point x="426" y="352" type="line" smooth="yes"/>
      <point x="426" y="445"/>
      <point x="370" y="496"/>
      <point x="279" y="496" type="curve" smooth="yes"/>
      <point x="218" y="496" type="line" smooth="yes"/>
      <point x="126" y="496"/>
      <point x="70" y="445"/>
      <point x="70" y="352" type="curve" smooth="yes"/>
      <point x="70" y="281" type="line" smooth="yes"/>
      <point x="70" y="189"/>
      <point x="126" y="134"/>
      <point x="218" y="134" type="curve" smooth="yes"/>
    </contour>
    <contour>
      <point x="329" y="184" type="line"/>
      <point x="415" y="101" type="line" smooth="yes"/>
      <point x="424" y="93"/>
      <point x="430" y="94"/>
      <point x="437" y="102" type="curve" smooth="yes"/>
      <point x="461" y="126" type="line" smooth="yes"/>
      <point x="468" y="133"/>
      <point x="469" y="139"/>
      <point x="461" y="147" type="curve" smooth="yes"/>
      <point x="373" y="232" type="line"/>
    </contour>
    <contour>
      <point x="170" y="445" type="line"/>
      <point x="81" y="531" type="line" smooth="yes"/>
      <point x="73" y="539"/>
      <point x="67" y="538"/>
      <point x="60" y="531" type="curve" smooth="yes"/>
      <point x="36" y="506" type="line" smooth="yes"/>
      <point x="29" y="499"/>
      <point x="28" y="493"/>
      <point x="36" y="485" type="curve" smooth="yes"/>
      <point x="127" y="397" type="line"/>
    </contour>
    <contour>
      <point x="368" y="395" type="line"/>
      <point x="461" y="485" type="line" smooth="yes"/>
      <point x="469" y="493"/>
      <point x="468" y="499"/>
      <point x="461" y="506" type="curve" smooth="yes"/>
      <point x="437" y="531" type="line" smooth="yes"/>
      <point x="430" y="538"/>
      <point x="423" y="539"/>
      <point x="415" y="531" type="curve" smooth="yes"/>
      <point x="329" y="448" type="line"/>
    </contour>
    <contour>
      <point x="124" y="232" type="line"/>
      <point x="36" y="147" type="line" smooth="yes"/>
      <point x="28" y="139"/>
      <point x="29" y="133"/>
      <point x="36" y="126" type="curve" smooth="yes"/>
      <point x="60" y="102" type="line" smooth="yes"/>
      <point x="67" y="94"/>
      <point x="73" y="93"/>
      <point x="81" y="101" type="curve" smooth="yes"/>
      <point x="171" y="187" type="line"/>
    </contour>
  </outline>
</glyph>
<glyph name="yen" format="1">
  <advance width="512"/>
  <unicode hex="00A5"/>
  <outline>
    <contour>
      <point x="278" y="0" type="line"/>
      <point x="287" y="0"/>
      <point x="292" y="3"/>
      <point x="292" y="14" type="curve" smooth="yes"/>
      <point x="292" y="165" type="line"/>
      <point x="457" y="165" type="line" smooth="yes"/>
      <point x="469" y="165"/>
      <point x="472" y="170"/>
      <point x="472" y="180" type="curve" smooth="yes"/>
      <point x="472" y="203" type="line" smooth="yes"/>
      <point x="472" y="214"/>
      <point x="469" y="218"/>
      <point x="457" y="218" type="curve" smooth="yes"/>
      <point x="294" y="218" type="line"/>
      <point x="294" y="245" type="line"/>
      <point x="326" y="310" type="line"/>
      <point x="457" y="310" type="line" smooth="yes"/>
      <point x="469" y="310"/>
      <point x="472" y="314"/>
      <point x="472" y="324" type="curve" smooth="yes"/>
      <point x="472" y="348" type="line" smooth="yes"/>
      <point x="472" y="358"/>
      <point x="469" y="363"/>
      <point x="457" y="363" type="curve" smooth="yes"/>
      <point x="352" y="363" type="line"/>
      <point x="483" y="629" type="line" smooth="yes"/>
      <point x="488" y="639"/>
      <point x="484" y="643"/>
      <point x="475" y="643" type="curve" smooth="yes"/>
      <point x="417" y="643" type="line" smooth="yes"/>
      <point x="408" y="643"/>
      <point x="405" y="639"/>
      <point x="401" y="629" type="curve" smooth="yes"/>
      <point x="257" y="320" type="line"/>
      <point x="253" y="320" type="line"/>
      <point x="110" y="629" type="line" smooth="yes"/>
      <point x="106" y="639"/>
      <point x="103" y="643"/>
      <point x="95" y="643" type="curve" smooth="yes"/>
      <point x="36" y="643" type="line" smooth="yes"/>
      <point x="27" y="643"/>
      <point x="24" y="639"/>
      <point x="28" y="629" type="curve" smooth="yes"/>
      <point x="160" y="363" type="line"/>
      <point x="54" y="363" type="line" smooth="yes"/>
      <point x="42" y="363"/>
      <point x="39" y="358"/>
      <point x="39" y="348" type="curve" smooth="yes"/>
      <point x="39" y="324" type="line" smooth="yes"/>
      <point x="39" y="314"/>
      <point x="42" y="310"/>
      <point x="54" y="310" type="curve" smooth="yes"/>
      <point x="186" y="310" type="line"/>
      <point x="217" y="245" type="line"/>
      <point x="217" y="218" type="line"/>
      <point x="54" y="218" type="line" smooth="yes"/>
      <point x="42" y="218"/>
      <point x="39" y="214"/>
      <point x="39" y="203" type="curve" smooth="yes"/>
      <point x="39" y="180" type="line" smooth="yes"/>
      <point x="39" y="170"/>
      <point x="42" y="165"/>
      <point x="54" y="165" type="curve" smooth="yes"/>
      <point x="219" y="165" type="line"/>
      <point x="219" y="14" type="line" smooth="yes"/>
      <point x="219" y="3"/>
      <point x="224" y="0"/>
      <point x="233" y="0" type="curve" smooth="yes"/>
    </contour>
  </outline>
</glyph>
<glyph name="brokenbar" format="1">
  <advance width="209"/>
  <unicode hex="00A6"/>
  <outline>
    <contour>
      <point x="133" y="255" type="line"/>
      <point x="133" y="266"/>
      <point x="128" y="269"/>
      <point x="119" y="269" type="curve" smooth="yes"/>
      <point x="90" y="269" type="line" smooth="yes"/>
      <point x="81" y="269"/>
      <point x="76" y="266"/>
      <point x="76" y="255" type="curve" smooth="yes"/>
      <point x="76" y="14" type="line" smooth="yes"/>
      <point x="76" y="3"/>
      <point x="81" y="0"/>
      <point x="90" y="0" type="curve" smooth="yes"/>
      <point x="119" y="0" type="line" smooth="yes"/>
      <point x="128" y="0"/>
      <point x="133" y="3"/>
      <point x="133" y="14" type="curve" smooth="yes"/>
    </contour>
    <contour>
      <point x="133" y="629" type="line"/>
      <point x="133" y="640"/>
      <point x="128" y="643"/>
      <point x="119" y="643" type="curve" smooth="yes"/>
      <point x="90" y="643" type="line" smooth="yes"/>
      <point x="81" y="643"/>
      <point x="76" y="640"/>
      <point x="76" y="629" type="curve" smooth="yes"/>
      <point x="76" y="388" type="line" smooth="yes"/>
      <point x="76" y="377"/>
      <point x="81" y="374"/>
      <point x="90" y="374" type="curve" smooth="yes"/>
      <point x="119" y="374" type="line" smooth="yes"/>
      <point x="128" y="374"/>
      <point x="133" y="377"/>
      <point x="133" y="388" type="curve" smooth="yes"/>
    </contour>
  </outline>
</glyph>
<glyph name="section" format="1">
  <advance width="464"/>
  <unicode hex="00A7"/>
  <outline>
    <contour>
      <point x="336" y="302" type="line"/>
      <point x="336" y="343"/>
      <point x="313" y="361"/>
      <point x="271" y="370" type="curve" smooth="yes"/>
      <point x="191" y="385" type="line"/>
      <point x="168" y="391"/>
      <point x="146" y="399"/>
      <point x="128" y="412" type="curve"/>
      <point x="128" y="346" type="line" smooth="yes"/>
      <point x="128" y="311"/>
      <point x="146" y="284"/>
      <point x="192" y="274" type="curve" smooth="yes"/>
      <point x="272" y="259" type="line" smooth="yes"/>
      <point x="297" y="254"/>
      <point x="319" y="247"/>
      <point x="336" y="235" type="curve"/>
    </contour>
    <contour>
      <point x="84" y="0" type="line"/>
      <point x="73" y="0"/>
      <point x="70" y="5"/>
      <point x="70" y="14" type="curve" smooth="yes"/>
      <point x="70" y="51" type="line" smooth="yes"/>
      <point x="70" y="60"/>
      <point x="73" y="64"/>
      <point x="84" y="64" type="curve" smooth="yes"/>
      <point x="254" y="64" type="line" smooth="yes"/>
      <point x="319" y="64"/>
      <point x="331" y="97"/>
      <point x="331" y="136" type="curve" smooth="yes"/>
      <point x="331" y="176"/>
      <point x="308" y="191"/>
      <point x="259" y="201" type="curve" smooth="yes"/>
      <point x="159" y="220" type="line"/>
      <point x="99" y="232"/>
      <point x="60" y="272"/>
      <point x="60" y="342" type="curve" smooth="yes"/>
      <point x="60" y="515" type="line" smooth="yes"/>
      <point x="60" y="587"/>
      <point x="97" y="643"/>
      <point x="199" y="643" type="curve" smooth="yes"/>
      <point x="362" y="643" type="line" smooth="yes"/>
      <point x="372" y="643"/>
      <point x="376" y="638"/>
      <point x="376" y="629" type="curve" smooth="yes"/>
      <point x="376" y="592" type="line" smooth="yes"/>
      <point x="376" y="583"/>
      <point x="372" y="579"/>
      <point x="362" y="579" type="curve" smooth="yes"/>
      <point x="201" y="579" type="line" smooth="yes"/>
      <point x="158" y="579"/>
      <point x="133" y="557"/>
      <point x="133" y="512" type="curve" smooth="yes"/>
      <point x="133" y="476"/>
      <point x="147" y="455"/>
      <point x="204" y="444" type="curve" smooth="yes"/>
      <point x="304" y="425" type="line" smooth="yes"/>
      <point x="368" y="412"/>
      <point x="404" y="376"/>
      <point x="404" y="306" type="curve" smooth="yes"/>
      <point x="404" y="135" type="line" smooth="yes"/>
      <point x="404" y="57"/>
      <point x="367" y="0"/>
      <point x="258" y="0" type="curve" smooth="yes"/>
    </contour>
  </outline>
</glyph>
<glyph name="dieresis" format="1">
  <advance width="366"/>
  <unicode hex="00A8"/>
  <outline>
    <contour>
      <point x="233" y="588" type="line"/>
      <point x="233" y="578"/>
      <point x="238" y="574"/>
      <point x="247" y="574" type="curve" smooth="yes"/>
      <point x="289" y="574" type="line" smooth="yes"/>
      <point x="298" y="574"/>
      <point x="303" y="578"/>
      <point x="303" y="588" type="curve" smooth="yes"/>
      <point x="303" y="690" type="line" smooth="yes"/>
      <point x="303" y="700"/>
      <point x="298" y="703"/>
      <point x="289" y="703" type="curve" smooth="yes"/>
      <point x="247" y="703" type="line" smooth="yes"/>
      <point x="238" y="703"/>
      <point x="233" y="699"/>
      <point x="233" y="689" type="curve" smooth="yes"/>
    </contour>
    <contour>
      <point x="63" y="588" type="line"/>
      <point x="63" y="578"/>
      <point x="67" y="574"/>
      <point x="76" y="574" type="curve" smooth="yes"/>
      <point x="118" y="574" type="line" smooth="yes"/>
      <point x="127" y="574"/>
      <point x="132" y="578"/>
      <point x="132" y="588" type="curve" smooth="yes"/>
      <point x="132" y="690" type="line" smooth="yes"/>
      <point x="132" y="700"/>
      <point x="127" y="703"/>
      <point x="118" y="703" type="curve" smooth="yes"/>
      <point x="76" y="703" type="line" smooth="yes"/>
      <point x="67" y="703"/>
      <point x="63" y="699"/>
      <point x="63" y="689" type="curve" smooth="yes"/>
    </contour>
  </outline>
</glyph>
<glyph name="copyright" format="1">
  <advance width="717"/>
  <unicode hex="00A9"/>
  <outline>
    <contour>
      <point x="200" y="643" type="line"/>
      <point x="121" y="643"/>
      <point x="70" y="593"/>
      <point x="70" y="512" type="curve" smooth="yes"/>
      <point x="70" y="131" type="line" smooth="yes"/>
      <point x="70" y="50"/>
      <point x="121" y="0"/>
      <point x="200" y="0" type="curve" smooth="yes"/>
      <point x="517" y="0" type="line" smooth="yes"/>
      <point x="597" y="0"/>
      <point x="648" y="50"/>
      <point x="648" y="131" type="curve" smooth="yes"/>
      <point x="648" y="512" type="line" smooth="yes"/>
      <point x="648" y="593"/>
      <point x="597" y="643"/>
      <point x="517" y="643" type="curve" smooth="yes"/>
    </contour>
    <contour>
      <point x="211" y="48" type="line"/>
      <point x="152" y="48"/>
      <point x="122" y="79"/>
      <point x="122" y="138" type="curve" smooth="yes"/>
      <point x="122" y="505" type="line" smooth="yes"/>
      <point x="122" y="564"/>
      <point x="152" y="595"/>
      <point x="211" y="595" type="curve" smooth="yes"/>
      <point x="506" y="595" type="line" smooth="yes"/>
      <point x="565" y="595"/>
      <point x="595" y="564"/>
      <point x="595" y="505" type="curve" smooth="yes"/>
      <point x="595" y="138" type="line" smooth="yes"/>
      <point x="595" y="79"/>
      <point x="565" y="48"/>
      <point x="506" y="48" type="curve" smooth="yes"/>
    </contour>
    <contour>
      <point x="493" y="402" type="line"/>
      <point x="493" y="480"/>
      <point x="451" y="514"/>
      <point x="375" y="514" type="curve" smooth="yes"/>
      <point x="341" y="514" type="line" smooth="yes"/>
      <point x="265" y="514"/>
      <point x="223" y="480"/>
      <point x="223" y="402" type="curve" smooth="yes"/>
      <point x="223" y="237" type="line" smooth="yes"/>
      <point x="223" y="160"/>
      <point x="265" y="125"/>
      <point x="341" y="125" type="curve" smooth="yes"/>
      <point x="375" y="125" type="line" smooth="yes"/>
      <point x="451" y="125"/>
      <point x="493" y="160"/>
      <point x="493" y="237" type="curve" smooth="yes"/>
      <point x="493" y="263" type="line" smooth="yes"/>
      <point x="493" y="272"/>
      <point x="489" y="274"/>
      <point x="483" y="274" type="curve" smooth="yes"/>
      <point x="451" y="274" type="line" smooth="yes"/>
      <point x="445" y="274"/>
      <point x="441" y="272"/>
      <point x="441" y="263" type="curve" smooth="yes"/>
      <point x="441" y="244" type="line" smooth="yes"/>
      <point x="441" y="185"/>
      <point x="423" y="172"/>
      <point x="365" y="172" type="curve" smooth="yes"/>
      <point x="351" y="172" type="line" smooth="yes"/>
      <point x="293" y="172"/>
      <point x="275" y="185"/>
      <point x="275" y="244" type="curve" smooth="yes"/>
      <point x="275" y="396" type="line" smooth="yes"/>
      <point x="275" y="454"/>
      <point x="293" y="468"/>
      <point x="351" y="468" type="curve" smooth="yes"/>
      <point x="365" y="468" type="line" smooth="yes"/>
      <point x="423" y="468"/>
      <point x="441" y="454"/>
      <point x="441" y="396" type="curve" smooth="yes"/>
      <point x="441" y="380" type="line" smooth="yes"/>
      <point x="441" y="372"/>
      <point x="445" y="369"/>
      <point x="451" y="369" type="curve" smooth="yes"/>
      <point x="483" y="369" type="line" smooth="yes"/>
      <point x="489" y="369"/>
      <point x="493" y="372"/>
      <point x="493" y="380" type="curve" smooth="yes"/>
    </contour>
  </outline>
</glyph>
<glyph name="ordfeminine" format="1">
  <advance width="371"/>
  <unicode hex="00AA"/>
  <outline>
    <contour>
      <point x="260" y="457" type="line"/>
      <point x="260" y="406"/>
      <point x="236" y="377"/>
      <point x="184" y="377" type="curve" smooth="yes"/>
      <point x="176" y="377" type="line" smooth="yes"/>
      <point x="126" y="377"/>
      <point x="107" y="405"/>
      <point x="107" y="455" type="curve" smooth="yes"/>
      <point x="107" y="515" type="line" smooth="yes"/>
      <point x="107" y="565"/>
      <point x="131" y="593"/>
      <point x="181" y="593" type="curve" smooth="yes"/>
      <point x="252" y="593" type="line" smooth="yes"/>
      <point x="258" y="593"/>
      <point x="260" y="590"/>
      <point x="260" y="585" type="curve" smooth="yes"/>
    </contour>
    <contour>
      <point x="176" y="328" type="line"/>
      <point x="215" y="328"/>
      <point x="243" y="343"/>
      <point x="255" y="369" type="curve"/>
      <point x="260" y="369" type="line"/>
      <point x="260" y="339" type="line" smooth="yes"/>
      <point x="260" y="330"/>
      <point x="264" y="328"/>
      <point x="270" y="328" type="curve" smooth="yes"/>
      <point x="306" y="328" type="line" smooth="yes"/>
      <point x="313" y="328"/>
      <point x="316" y="330"/>
      <point x="316" y="339" type="curve" smooth="yes"/>
      <point x="316" y="632" type="line" smooth="yes"/>
      <point x="316" y="641"/>
      <point x="313" y="643"/>
      <point x="306" y="643" type="curve" smooth="yes"/>
      <point x="176" y="643" type="line" smooth="yes"/>
      <point x="101" y="643"/>
      <point x="50" y="597"/>
      <point x="50" y="522" type="curve" smooth="yes"/>
      <point x="50" y="449" type="line" smooth="yes"/>
      <point x="50" y="373"/>
      <point x="95" y="328"/>
      <point x="170" y="328" type="curve" smooth="yes"/>
    </contour>
  </outline>
</glyph>
<glyph name="guillemotleft" format="1">
  <advance width="438"/>
  <unicode hex="00AB"/>
  <outline>
    <contour>
      <point x="217" y="363" type="line"/>
      <point x="226" y="370"/>
      <point x="228" y="374"/>
      <point x="228" y="383" type="curve" smooth="yes"/>
      <point x="228" y="416" type="line" smooth="yes"/>
      <point x="228" y="426"/>
      <point x="222" y="431"/>
      <point x="213" y="423" type="curve" smooth="yes"/>
      <point x="73" y="295" type="line" smooth="yes"/>
      <point x="64" y="287"/>
      <point x="59" y="283"/>
      <point x="59" y="269" type="curve" smooth="yes"/>
      <point x="59" y="243" type="line" smooth="yes"/>
      <point x="59" y="228"/>
      <point x="63" y="224"/>
      <point x="73" y="216" type="curve" smooth="yes"/>
      <point x="213" y="88" type="line" smooth="yes"/>
      <point x="222" y="80"/>
      <point x="228" y="85"/>
      <point x="228" y="96" type="curve" smooth="yes"/>
      <point x="228" y="129" type="line" smooth="yes"/>
      <point x="228" y="138"/>
      <point x="226" y="142"/>
      <point x="217" y="149" type="curve" smooth="yes"/>
      <point x="102" y="256" type="line"/>
    </contour>
    <contour>
      <point x="367" y="363" type="line"/>
      <point x="377" y="370"/>
      <point x="379" y="374"/>
      <point x="379" y="383" type="curve" smooth="yes"/>
      <point x="379" y="416" type="line" smooth="yes"/>
      <point x="379" y="426"/>
      <point x="372" y="431"/>
      <point x="363" y="423" type="curve" smooth="yes"/>
      <point x="223" y="295" type="line" smooth="yes"/>
      <point x="214" y="287"/>
      <point x="209" y="283"/>
      <point x="209" y="269" type="curve" smooth="yes"/>
      <point x="209" y="243" type="line" smooth="yes"/>
      <point x="209" y="228"/>
      <point x="214" y="224"/>
      <point x="223" y="216" type="curve" smooth="yes"/>
      <point x="363" y="88" type="line" smooth="yes"/>
      <point x="372" y="80"/>
      <point x="379" y="85"/>
      <point x="379" y="96" type="curve" smooth="yes"/>
      <point x="379" y="129" type="line" smooth="yes"/>
      <point x="379" y="138"/>
      <point x="377" y="142"/>
      <point x="367" y="149" type="curve" smooth="yes"/>
      <point x="252" y="256" type="line"/>
    </contour>
  </outline>
</glyph>
<glyph name="logicalnot" format="1">
  <advance width="516"/>
  <unicode hex="00AC"/>
  <outline>
    <contour>
      <point x="459" y="324" type="line"/>
      <point x="459" y="336"/>
      <point x="454" y="340"/>
      <point x="444" y="340" type="curve" smooth="yes"/>
      <point x="410" y="340" type="line" smooth="yes"/>
      <point x="400" y="340"/>
      <point x="395" y="336"/>
      <point x="395" y="324" type="curve" smooth="yes"/>
      <point x="395" y="157" type="line" smooth="yes"/>
      <point x="395" y="145"/>
      <point x="400" y="142"/>
      <point x="410" y="142" type="curve" smooth="yes"/>
      <point x="444" y="142" type="line" smooth="yes"/>
      <point x="454" y="142"/>
      <point x="459" y="145"/>
      <point x="459" y="157" type="curve" smooth="yes"/>
    </contour>
    <contour>
      <point x="71" y="350" type="line"/>
      <point x="60" y="350"/>
      <point x="57" y="346"/>
      <point x="57" y="336" type="curve" smooth="yes"/>
      <point x="57" y="311" type="line" smooth="yes"/>
      <point x="57" y="302"/>
      <point x="60" y="297"/>
      <point x="71" y="297" type="curve" smooth="yes"/>
      <point x="445" y="297" type="line" smooth="yes"/>
      <point x="456" y="297"/>
      <point x="459" y="302"/>
      <point x="459" y="311" type="curve" smooth="yes"/>
      <point x="459" y="336" type="line" smooth="yes"/>
      <point x="459" y="346"/>
      <point x="456" y="350"/>
      <point x="445" y="350" type="curve" smooth="yes"/>
    </contour>
  </outline>
</glyph>
<glyph name="softhyphen" format="1">
  <advance width="312"/>
  <unicode hex="00AD"/>
  <outline>
    <contour>
      <point x="258" y="289" type="line"/>
      <point x="269" y="289"/>
      <point x="272" y="294"/>
      <point x="272" y="303" type="curve" smooth="yes"/>
      <point x="272" y="336" type="line" smooth="yes"/>
      <point x="272" y="345"/>
      <point x="269" y="350"/>
      <point x="258" y="350" type="curve" smooth="yes"/>
      <point x="54" y="350" type="line" smooth="yes"/>
      <point x="43" y="350"/>
      <point x="40" y="345"/>
      <point x="40" y="336" type="curve" smooth="yes"/>
      <point x="40" y="303" type="line" smooth="yes"/>
      <point x="40" y="294"/>
      <point x="43" y="289"/>
      <point x="54" y="289" type="curve" smooth="yes"/>
    </contour>
  </outline>
</glyph>
<glyph name="registered" format="1">
  <advance width="450"/>
  <unicode hex="00AE"/>
  <outline>
    <contour>
      <point x="281" y="391" type="line"/>
      <point x="344" y="391"/>
      <point x="383" y="430"/>
      <point x="383" y="492" type="curve" smooth="yes"/>
      <point x="383" y="611" type="line" smooth="yes"/>
      <point x="383" y="673"/>
      <point x="344" y="713"/>
      <point x="281" y="713" type="curve" smooth="yes"/>
      <point x="168" y="713" type="line" smooth="yes"/>
      <point x="106" y="713"/>
      <point x="66" y="673"/>
      <point x="66" y="611" type="curve" smooth="yes"/>
      <point x="66" y="492" type="line" smooth="yes"/>
      <point x="66" y="430"/>
      <point x="106" y="391"/>
      <point x="168" y="391" type="curve" smooth="yes"/>
    </contour>
    <contour>
      <point x="174" y="424" type="line"/>
      <point x="126" y="424"/>
      <point x="102" y="450"/>
      <point x="102" y="498" type="curve" smooth="yes"/>
      <point x="102" y="606" type="line" smooth="yes"/>
      <point x="102" y="654"/>
      <point x="126" y="679"/>
      <point x="174" y="679" type="curve" smooth="yes"/>
      <point x="276" y="679" type="line" smooth="yes"/>
      <point x="324" y="679"/>
      <point x="347" y="654"/>
      <point x="347" y="606" type="curve" smooth="yes"/>
      <point x="347" y="498" type="line" smooth="yes"/>
      <point x="347" y="450"/>
      <point x="324" y="424"/>
      <point x="276" y="424" type="curve" smooth="yes"/>
    </contour>
    <contour>
      <point x="168" y="473" type="line"/>
      <point x="168" y="463"/>
      <point x="171" y="460"/>
      <point x="181" y="460" type="curve" smooth="yes"/>
      <point x="188" y="460" type="line" smooth="yes"/>
      <point x="197" y="460"/>
      <point x="201" y="462"/>
      <point x="201" y="473" type="curve" smooth="yes"/>
      <point x="201" y="528" type="line"/>
      <point x="233" y="528" type="line"/>
      <point x="260" y="469" type="line" smooth="yes"/>
      <point x="263" y="462"/>
      <point x="266" y="460"/>
      <point x="273" y="460" type="curve" smooth="yes"/>
      <point x="283" y="460" type="line" smooth="yes"/>
      <point x="295" y="460"/>
      <point x="296" y="465"/>
      <point x="291" y="476" type="curve" smooth="yes"/>
      <point x="265" y="530" type="line"/>
      <point x="281" y="536"/>
      <point x="289" y="550"/>
      <point x="289" y="571" type="curve" smooth="yes"/>
      <point x="289" y="600" type="line" smooth="yes"/>
      <point x="289" y="630"/>
      <point x="271" y="645"/>
      <point x="242" y="645" type="curve" smooth="yes"/>
      <point x="181" y="645" type="line" smooth="yes"/>
      <point x="171" y="645"/>
      <point x="168" y="642"/>
      <point x="168" y="632" type="curve" smooth="yes"/>
    </contour>
    <contour>
      <point x="240" y="615" type="line"/>
      <point x="251" y="615"/>
      <point x="256" y="610"/>
      <point x="256" y="600" type="curve" smooth="yes"/>
      <point x="256" y="572" type="line" smooth="yes"/>
      <point x="256" y="561"/>
      <point x="251" y="555"/>
      <point x="240" y="555" type="curve" smooth="yes"/>
      <point x="201" y="555" type="line"/>
      <point x="201" y="615" type="line"/>
    </contour>
  </outline>
</glyph>
<glyph name="degree" format="1">
  <advance width="321"/>
  <unicode hex="00B0"/>
  <outline>
    <contour>
      <point x="167" y="545" type="curve"/>
      <point x="154" y="545" type="line"/>
      <point x="130" y="545"/>
      <point x="125" y="551"/>
      <point x="125" y="574" type="curve" smooth="yes"/>
      <point x="125" y="639" type="line" smooth="yes"/>
      <point x="125" y="663"/>
      <point x="130" y="668"/>
      <point x="154" y="668" type="curve" smooth="yes"/>
      <point x="167" y="668" type="line"/>
      <point x="190" y="668"/>
      <point x="196" y="663"/>
      <point x="196" y="639" type="curve" smooth="yes"/>
      <point x="196" y="574" type="line" smooth="yes"/>
      <point x="196" y="551"/>
      <point x="190" y="545"/>
    </contour>
    <contour>
      <point x="184" y="511" type="line"/>
      <point x="214" y="511"/>
      <point x="234" y="529"/>
      <point x="234" y="560" type="curve" smooth="yes"/>
      <point x="234" y="657" type="line" smooth="yes"/>
      <point x="234" y="687"/>
      <point x="214" y="704"/>
      <point x="184" y="704" type="curve" smooth="yes"/>
      <point x="136" y="704" type="line" smooth="yes"/>
      <point x="105" y="704"/>
      <point x="87" y="687"/>
      <point x="87" y="657" type="curve" smooth="yes"/>
      <point x="87" y="560" type="line" smooth="yes"/>
      <point x="87" y="529"/>
      <point x="105" y="511"/>
      <point x="136" y="511" type="curve" smooth="yes"/>
    </contour>
  </outline>
</glyph>
<glyph name="plusminus" format="1">
  <advance width="535"/>
  <unicode hex="00B1"/>
  <outline>
    <contour>
      <point x="300" y="503" type="line"/>
      <point x="300" y="515"/>
      <point x="295" y="519"/>
      <point x="285" y="519" type="curve" smooth="yes"/>
      <point x="251" y="519" type="line" smooth="yes"/>
      <point x="240" y="519"/>
      <point x="236" y="515"/>
      <point x="236" y="503" type="curve" smooth="yes"/>
      <point x="236" y="248" type="line" smooth="yes"/>
      <point x="236" y="237"/>
      <point x="240" y="233"/>
      <point x="251" y="233" type="curve" smooth="yes"/>
      <point x="285" y="233" type="line" smooth="yes"/>
      <point x="295" y="233"/>
      <point x="300" y="237"/>
      <point x="300" y="248" type="curve" smooth="yes"/>
    </contour>
    <contour>
      <point x="85" y="406" type="line"/>
      <point x="73" y="406"/>
      <point x="70" y="401"/>
      <point x="70" y="391" type="curve" smooth="yes"/>
      <point x="70" y="361" type="line" smooth="yes"/>
      <point x="70" y="351"/>
      <point x="73" y="346"/>
      <point x="85" y="346" type="curve" smooth="yes"/>
      <point x="450" y="346" type="line" smooth="yes"/>
      <point x="462" y="346"/>
      <point x="465" y="351"/>
      <point x="465" y="361" type="curve" smooth="yes"/>
      <point x="465" y="391" type="line" smooth="yes"/>
      <point x="465" y="401"/>
      <point x="462" y="406"/>
      <point x="450" y="406" type="curve" smooth="yes"/>
    </contour>
    <contour>
      <point x="85" y="183" type="line"/>
      <point x="73" y="183"/>
      <point x="70" y="178"/>
      <point x="70" y="169" type="curve" smooth="yes"/>
      <point x="70" y="138" type="line" smooth="yes"/>
      <point x="70" y="128"/>
      <point x="73" y="123"/>
      <point x="85" y="123" type="curve" smooth="yes"/>
      <point x="450" y="123" type="line" smooth="yes"/>
      <point x="462" y="123"/>
      <point x="465" y="128"/>
      <point x="465" y="138" type="curve" smooth="yes"/>
      <point x="465" y="169" type="line" smooth="yes"/>
      <point x="465" y="178"/>
      <point x="462" y="183"/>
      <point x="450" y="183" type="curve" smooth="yes"/>
    </contour>
  </outline>
</glyph>
<glyph name="twosuperior" format="1">
  <advance width="327"/>
  <unicode hex="00B2"/>
  <outline>
    <contour>
      <point x="51" y="310" type="line"/>
      <point x="51" y="303"/>
      <point x="54" y="300"/>
      <point x="62" y="300" type="curve" smooth="yes"/>
      <point x="271" y="300" type="line" smooth="yes"/>
      <point x="279" y="300"/>
      <point x="282" y="303"/>
      <point x="282" y="310" type="curve" smooth="yes"/>
      <point x="282" y="336" type="line" smooth="yes"/>
      <point x="282" y="343"/>
      <point x="279" y="346"/>
      <point x="271" y="346" type="curve" smooth="yes"/>
      <point x="110" y="346" type="line"/>
      <point x="110" y="350" type="line" smooth="yes"/>
      <point x="110" y="363"/>
      <point x="121" y="372"/>
      <point x="150" y="392" type="curve"/>
      <point x="227" y="445" type="line" smooth="yes"/>
      <point x="264" y="471"/>
      <point x="278" y="495"/>
      <point x="278" y="541" type="curve" smooth="yes"/>
      <point x="278" y="554" type="line" smooth="yes"/>
      <point x="278" y="612"/>
      <point x="243" y="643"/>
      <point x="172" y="643" type="curve" smooth="yes"/>
      <point x="154" y="643" type="line" smooth="yes"/>
      <point x="82" y="643"/>
      <point x="48" y="611"/>
      <point x="48" y="553" type="curve" smooth="yes"/>
      <point x="48" y="535" type="line" smooth="yes"/>
      <point x="48" y="528"/>
      <point x="52" y="525"/>
      <point x="58" y="525" type="curve" smooth="yes"/>
      <point x="95" y="525" type="line" smooth="yes"/>
      <point x="102" y="525"/>
      <point x="106" y="528"/>
      <point x="106" y="535" type="curve" smooth="yes"/>
      <point x="106" y="547" type="line" smooth="yes"/>
      <point x="106" y="579"/>
      <point x="118" y="596"/>
      <point x="163" y="596" type="curve" smooth="yes"/>
      <point x="168" y="596" type="line" smooth="yes"/>
      <point x="214" y="596"/>
      <point x="226" y="579"/>
      <point x="226" y="549" type="curve" smooth="yes"/>
      <point x="226" y="543" type="line" smooth="yes"/>
      <point x="226" y="514"/>
      <point x="217" y="499"/>
      <point x="188" y="479" type="curve" smooth="yes"/>
      <point x="107" y="424" type="line"/>
      <point x="70" y="398"/>
      <point x="51" y="381"/>
      <point x="51" y="341" type="curve" smooth="yes"/>
    </contour>
  </outline>
</glyph>
<glyph name="threesuperior" format="1">
  <advance width="323"/>
  <unicode hex="00B3"/>
  <outline>
    <contour>
      <point x="148" y="494" type="line"/>
      <point x="141" y="494"/>
      <point x="138" y="491"/>
      <point x="138" y="484" type="curve" smooth="yes"/>
      <point x="138" y="457" type="line" smooth="yes"/>
      <point x="138" y="451"/>
      <point x="141" y="448"/>
      <point x="148" y="448" type="curve" smooth="yes"/>
      <point x="170" y="448" type="line" smooth="yes"/>
      <point x="206" y="448"/>
      <point x="226" y="437"/>
      <point x="226" y="403" type="curve" smooth="yes"/>
      <point x="226" y="397" type="line" smooth="yes"/>
      <point x="226" y="358"/>
      <point x="208" y="345"/>
      <point x="168" y="345" type="curve" smooth="yes"/>
      <point x="161" y="345" type="line" smooth="yes"/>
      <point x="129" y="345"/>
      <point x="99" y="351"/>
      <point x="99" y="396" type="curve" smooth="yes"/>
      <point x="99" y="408" type="line" smooth="yes"/>
      <point x="99" y="416"/>
      <point x="96" y="419"/>
      <point x="90" y="419" type="curve" smooth="yes"/>
      <point x="58" y="419" type="line" smooth="yes"/>
      <point x="52" y="419"/>
      <point x="48" y="416"/>
      <point x="48" y="408" type="curve" smooth="yes"/>
      <point x="48" y="390" type="line" smooth="yes"/>
      <point x="48" y="322"/>
      <point x="94" y="300"/>
      <point x="152" y="300" type="curve" smooth="yes"/>
      <point x="176" y="300" type="line" smooth="yes"/>
      <point x="244" y="300"/>
      <point x="277" y="331"/>
      <point x="277" y="393" type="curve" smooth="yes"/>
      <point x="277" y="408" type="line" smooth="yes"/>
      <point x="277" y="443"/>
      <point x="261" y="466"/>
      <point x="229" y="472" type="curve"/>
      <point x="263" y="481"/>
      <point x="277" y="508"/>
      <point x="277" y="537" type="curve" smooth="yes"/>
      <point x="277" y="553" type="line" smooth="yes"/>
      <point x="277" y="610"/>
      <point x="244" y="643"/>
      <point x="174" y="643" type="curve" smooth="yes"/>
      <point x="150" y="643" type="line" smooth="yes"/>
      <point x="80" y="643"/>
      <point x="48" y="611"/>
      <point x="48" y="553" type="curve" smooth="yes"/>
      <point x="48" y="532" type="line" smooth="yes"/>
      <point x="48" y="525"/>
      <point x="52" y="522"/>
      <point x="58" y="522" type="curve" smooth="yes"/>
      <point x="90" y="522" type="line" smooth="yes"/>
      <point x="96" y="522"/>
      <point x="99" y="525"/>
      <point x="99" y="532" type="curve" smooth="yes"/>
      <point x="99" y="547" type="line" smooth="yes"/>
      <point x="99" y="582"/>
      <point x="112" y="598"/>
      <point x="159" y="598" type="curve" smooth="yes"/>
      <point x="167" y="598" type="line" smooth="yes"/>
      <point x="214" y="598"/>
      <point x="226" y="579"/>
      <point x="226" y="547" type="curve" smooth="yes"/>
      <point x="226" y="539" type="line" smooth="yes"/>
      <point x="226" y="506"/>
      <point x="212" y="494"/>
      <point x="170" y="494" type="curve" smooth="yes"/>
    </contour>
  </outline>
</glyph>
<glyph name="acute" format="1">
  <advance width="277"/>
  <unicode hex="00B4"/>
  <outline>
    <contour>
      <point x="145" y="703" type="line"/>
      <point x="135" y="703"/>
      <point x="128" y="699"/>
      <point x="123" y="690" type="curve" smooth="yes"/>
      <point x="65" y="588" type="line" smooth="yes"/>
      <point x="61" y="579"/>
      <point x="63" y="574"/>
      <point x="72" y="574" type="curve" smooth="yes"/>
      <point x="104" y="574" type="line" smooth="yes"/>
      <point x="112" y="574"/>
      <point x="119" y="578"/>
      <point x="124" y="584" type="curve" smooth="yes"/>
      <point x="212" y="689" type="line" smooth="yes"/>
      <point x="218" y="697"/>
      <point x="214" y="703"/>
      <point x="205" y="703" type="curve" smooth="yes"/>
    </contour>
  </outline>
</glyph>
<glyph name="mu.math" format="1">
  <advance width="538"/>
  <unicode hex="00B5"/>
  <outline>
    <contour>
      <point x="152" y="28" type="line"/>
      <point x="181" y="-6"/>
      <point x="235" y="0"/>
      <point x="279" y="0" type="curve" smooth="yes"/>
      <point x="331" y="0"/>
      <point x="367" y="21"/>
      <point x="382" y="53" type="curve"/>
      <point x="386" y="53" type="line"/>
      <point x="386" y="14" type="line" smooth="yes"/>
      <point x="386" y="3"/>
      <point x="391" y="0"/>
      <point x="400" y="0" type="curve" smooth="yes"/>
      <point x="444" y="0" type="line" smooth="yes"/>
      <point x="454" y="0"/>
      <point x="459" y="3"/>
      <point x="459" y="14" type="curve" smooth="yes"/>
      <point x="459" y="496" type="line" smooth="yes"/>
      <point x="459" y="507"/>
      <point x="454" y="510"/>
      <point x="444" y="510" type="curve" smooth="yes"/>
      <point x="400" y="510" type="line" smooth="yes"/>
      <point x="391" y="510"/>
      <point x="386" y="507"/>
      <point x="386" y="496" type="curve" smooth="yes"/>
      <point x="386" y="156" type="line" smooth="yes"/>
      <point x="386" y="98"/>
      <point x="353" y="64"/>
      <point x="293" y="64" type="curve" smooth="yes"/>
      <point x="236" y="64" type="line" smooth="yes"/>
      <point x="180" y="64"/>
      <point x="152" y="95"/>
      <point x="152" y="151" type="curve" smooth="yes"/>
      <point x="152" y="496" type="line" smooth="yes"/>
      <point x="152" y="507"/>
      <point x="148" y="510"/>
      <point x="139" y="510" type="curve" smooth="yes"/>
      <point x="93" y="510" type="line" smooth="yes"/>
      <point x="84" y="510"/>
      <point x="80" y="507"/>
      <point x="80" y="496" type="curve" smooth="yes"/>
      <point x="80" y="-119" type="line" smooth="yes"/>
      <point x="80" y="-130"/>
      <point x="84" y="-133"/>
      <point x="93" y="-133" type="curve" smooth="yes"/>
      <point x="139" y="-133" type="line" smooth="yes"/>
      <point x="148" y="-133"/>
      <point x="152" y="-130"/>
      <point x="152" y="-119" type="curve" smooth="yes"/>
    </contour>
  </outline>
</glyph>
